<ttFont>
    <TTGlyph name="A" xMin="-11" yMin="0" xMax="1404" yMax="1290">
      <contour>
        <pt x="810" y="1290" on="1"/>
        <pt x="810" y="1290" on="0"/>
        <pt x="844" y="1200" on="0"/>
        <pt x="900" y="1052" on="0"/>
        <pt x="973" y="863" on="0"/>
        <pt x="1048" y="664" on="0"/>
        <pt x="1121" y="474" on="0"/>
        <pt x="1179" y="323" on="0"/>
        <pt x="1215" y="228" on="0"/>
        <pt x="1216" y="225" on="1"/>
        <pt x="1234" y="178" on="0"/>
        <pt x="1257" y="127" on="0"/>
        <pt x="1291" y="103" on="0"/>
        <pt x="1350" y="98" on="0"/>
        <pt x="1404" y="98" on="1"/>
        <pt x="1404" y="0" on="1"/>
        <pt x="1348" y="0" on="0"/>
        <pt x="1238" y="2" on="0"/>
        <pt x="1179" y="2" on="1"/>
        <pt x="1147" y="2" on="0"/>
        <pt x="1087" y="2" on="0"/>
        <pt x="1023" y="2" on="0"/>
        <pt x="951" y="1" on="0"/>
        <pt x="906" y="0" on="1"/>
        <pt x="906" y="8" on="0"/>
        <pt x="905" y="41" on="0"/>
        <pt x="905" y="57" on="1"/>
        <pt x="905" y="96" on="1"/>
        <pt x="951" y="96" on="0"/>
        <pt x="1009" y="97" on="0"/>
        <pt x="1043" y="102" on="0"/>
        <pt x="1056" y="113" on="0"/>
        <pt x="1056" y="123" on="1"/>
        <pt x="1054" y="128" on="0"/>
        <pt x="1052" y="144" on="0"/>
        <pt x="1049" y="155" on="1"/>
        <pt x="943" y="473" on="1"/>
        <pt x="420" y="473" on="1"/>
        <pt x="419" y="471" on="0"/>
        <pt x="403" y="424" on="0"/>
        <pt x="379" y="355" on="0"/>
        <pt x="351" y="275" on="0"/>
        <pt x="326" y="206" on="0"/>
        <pt x="310" y="159" on="0"/>
        <pt x="310" y="158" on="1"/>
        <pt x="300" y="133" on="0"/>
        <pt x="300" y="122" on="1"/>
        <pt x="300" y="103" on="0"/>
        <pt x="341" y="95" on="0"/>
        <pt x="389" y="95" on="1"/>
        <pt x="461" y="95" on="1"/>
        <pt x="461" y="0" on="1"/>
        <pt x="405" y="0" on="0"/>
        <pt x="294" y="2" on="0"/>
        <pt x="237" y="2" on="1"/>
        <pt x="207" y="2" on="0"/>
        <pt x="152" y="2" on="0"/>
        <pt x="94" y="2" on="0"/>
        <pt x="29" y="1" on="0"/>
        <pt x="-11" y="0" on="1"/>
        <pt x="-11" y="99" on="1"/>
        <pt x="39" y="100" on="0"/>
        <pt x="96" y="102" on="0"/>
        <pt x="128" y="116" on="0"/>
        <pt x="145" y="144" on="0"/>
        <pt x="155" y="171" on="1"/>
        <pt x="156" y="174" on="0"/>
        <pt x="179" y="233" on="0"/>
        <pt x="216" y="329" on="0"/>
        <pt x="264" y="456" on="0"/>
        <pt x="319" y="598" on="0"/>
        <pt x="376" y="747" on="0"/>
        <pt x="430" y="889" on="0"/>
        <pt x="479" y="1016" on="0"/>
        <pt x="516" y="1112" on="0"/>
        <pt x="538" y="1171" on="0"/>
        <pt x="539" y="1174" on="1"/>
        <pt x="579" y="1290" on="1"/>
      </contour>
      <contour>
        <pt x="458" y="574" on="1"/>
        <pt x="906" y="574" on="1"/>
        <pt x="682" y="1196" on="1"/>
      </contour>
    </TTGlyph>
    <TTGlyph name="AE" xMin="-78" yMin="0" xMax="1807" yMax="1290">
      <contour>
        <pt x="623" y="1070" on="1"/>
        <pt x="761" y="1290" on="1"/>
        <pt x="1804" y="1290" on="1"/>
        <pt x="1804" y="962" on="1"/>
        <pt x="1690" y="962" on="1"/>
        <pt x="1690" y="1011" on="1"/>
        <pt x="1690" y="1074" on="0"/>
        <pt x="1682" y="1143" on="0"/>
        <pt x="1666" y="1175" on="0"/>
        <pt x="1638" y="1180" on="0"/>
        <pt x="1619" y="1180" on="1"/>
        <pt x="1085" y="1180" on="1"/>
        <pt x="1085" y="713" on="1"/>
        <pt x="1433" y="713" on="1"/>
        <pt x="1442" y="713" on="0"/>
        <pt x="1458" y="716" on="0"/>
        <pt x="1471" y="731" on="0"/>
        <pt x="1478" y="765" on="0"/>
        <pt x="1478" y="797" on="1"/>
        <pt x="1558" y="797" on="1"/>
        <pt x="1558" y="526" on="1"/>
        <pt x="1478" y="526" on="1"/>
        <pt x="1478" y="558" on="0"/>
        <pt x="1470" y="592" on="0"/>
        <pt x="1457" y="608" on="0"/>
        <pt x="1438" y="611" on="0"/>
        <pt x="1428" y="611" on="1"/>
        <pt x="1085" y="611" on="1"/>
        <pt x="1085" y="114" on="1"/>
        <pt x="1641" y="114" on="1"/>
        <pt x="1660" y="114" on="0"/>
        <pt x="1681" y="126" on="0"/>
        <pt x="1692" y="173" on="0"/>
        <pt x="1695" y="266" on="0"/>
        <pt x="1695" y="348" on="1"/>
        <pt x="1807" y="348" on="1"/>
        <pt x="1807" y="0" on="1"/>
        <pt x="699" y="0" on="1"/>
        <pt x="699" y="99" on="1"/>
        <pt x="763" y="99" on="1"/>
        <pt x="815" y="99" on="0"/>
        <pt x="872" y="108" on="0"/>
        <pt x="898" y="123" on="0"/>
        <pt x="903" y="143" on="0"/>
        <pt x="903" y="154" on="1"/>
        <pt x="903" y="537" on="1"/>
        <pt x="451" y="537" on="1"/>
        <pt x="269" y="221" on="1"/>
        <pt x="252" y="191" on="0"/>
        <pt x="229" y="149" on="0"/>
        <pt x="229" y="134" on="1"/>
        <pt x="229" y="115" on="0"/>
        <pt x="269" y="99" on="0"/>
        <pt x="321" y="99" on="1"/>
        <pt x="378" y="99" on="1"/>
        <pt x="378" y="0" on="1"/>
        <pt x="343" y="1" on="0"/>
        <pt x="288" y="2" on="0"/>
        <pt x="239" y="2" on="0"/>
        <pt x="195" y="2" on="0"/>
        <pt x="171" y="2" on="1"/>
        <pt x="142" y="2" on="0"/>
        <pt x="87" y="2" on="0"/>
        <pt x="28" y="2" on="0"/>
        <pt x="-38" y="1" on="0"/>
        <pt x="-78" y="0" on="1"/>
        <pt x="-78" y="99" on="1"/>
        <pt x="-35" y="99" on="0"/>
        <pt x="15" y="106" on="0"/>
        <pt x="54" y="135" on="0"/>
        <pt x="92" y="193" on="0"/>
        <pt x="123" y="244" on="1"/>
      </contour>
      <contour>
        <pt x="511" y="642" on="1"/>
        <pt x="902" y="642" on="1"/>
        <pt x="902" y="1183" on="1"/>
        <pt x="835" y="1183" on="1"/>
      </contour>
    </TTGlyph>
    <TTGlyph name="Aacute" xMin="-11" yMin="0" xMax="1404" yMax="1749">
      <component glyphName="A" x="0" y="0" flags="0x1204"/>
      <component glyphName="acute" x="228" y="395" flags="0x1004"/>
    </TTGlyph>
    <TTGlyph name="Acircumflex" xMin="-11" yMin="0" xMax="1404" yMax="1745">
      <component glyphName="A" x="0" y="0" flags="0x1204"/>
      <component glyphName="circumflex" x="265" y="395" flags="0x1004"/>
    </TTGlyph>
    <TTGlyph name="Adieresis" xMin="-11" yMin="0" xMax="1404" yMax="1669">
      <component glyphName="A" x="0" y="0" flags="0x1204"/>
      <component glyphName="dieresis" x="265" y="395" flags="0x1004"/>
    </TTGlyph>
    <TTGlyph name="Agrave" xMin="-11" yMin="0" xMax="1404" yMax="1757">
      <component glyphName="A" x="0" y="0" flags="0x1204"/>
      <component glyphName="grave" x="307" y="395" flags="0x1004"/>
    </TTGlyph>
    <TTGlyph name="Aring" xMin="-11" yMin="0" xMax="1404" yMax="1823">
      <component glyphName="A" x="0" y="0" flags="0x1204"/>
      <component glyphName="ring" x="265" y="395" flags="0x1004"/>
    </TTGlyph>
    <TTGlyph name="Atilde" xMin="-11" yMin="0" xMax="1404" yMax="1690">
      <component glyphName="A" x="0" y="0" flags="0x1204"/>
      <component glyphName="tilde" x="266" y="395" flags="0x1004"/>
    </TTGlyph>
    <TTGlyph name="B" xMin="58" yMin="0" xMax="1143" yMax="1290">
      <contour>
        <pt x="578" y="1290" on="1"/>
        <pt x="721" y="1290" on="0"/>
        <pt x="916" y="1247" on="0"/>
        <pt x="1035" y="1165" on="0"/>
        <pt x="1086" y="1044" on="0"/>
        <pt x="1086" y="965" on="1"/>
        <pt x="1086" y="749" on="0"/>
        <pt x="856" y="677" on="1"/>
        <pt x="999" y="645" on="0"/>
        <pt x="1143" y="483" on="0"/>
        <pt x="1143" y="355" on="1"/>
        <pt x="1143" y="282" on="0"/>
        <pt x="1095" y="153" on="0"/>
        <pt x="981" y="56" on="0"/>
        <pt x="793" y="0" on="0"/>
        <pt x="654" y="0" on="1"/>
        <pt x="58" y="0" on="1"/>
        <pt x="58" y="99" on="1"/>
        <pt x="121" y="99" on="1"/>
        <pt x="162" y="99" on="0"/>
        <pt x="206" y="110" on="0"/>
        <pt x="227" y="130" on="0"/>
        <pt x="230" y="157" on="0"/>
        <pt x="230" y="173" on="1"/>
        <pt x="230" y="1124" on="1"/>
        <pt x="230" y="1144" on="0"/>
        <pt x="222" y="1170" on="0"/>
        <pt x="187" y="1185" on="0"/>
        <pt x="118" y="1191" on="0"/>
        <pt x="58" y="1191" on="1"/>
        <pt x="58" y="1290" on="1"/>
      </contour>
      <contour>
        <pt x="412" y="718" on="1"/>
        <pt x="614" y="718" on="1"/>
        <pt x="685" y="718" on="0"/>
        <pt x="795" y="751" on="0"/>
        <pt x="869" y="813" on="0"/>
        <pt x="907" y="900" on="0"/>
        <pt x="907" y="954" on="1"/>
        <pt x="907" y="1002" on="0"/>
        <pt x="875" y="1085" on="0"/>
        <pt x="803" y="1147" on="0"/>
        <pt x="686" y="1182" on="0"/>
        <pt x="602" y="1182" on="1"/>
        <pt x="412" y="1182" on="1"/>
      </contour>
      <contour>
        <pt x="412" y="109" on="1"/>
        <pt x="624" y="109" on="1"/>
        <pt x="795" y="109" on="0"/>
        <pt x="957" y="241" on="0"/>
        <pt x="957" y="356" on="1"/>
        <pt x="957" y="425" on="0"/>
        <pt x="911" y="524" on="0"/>
        <pt x="813" y="589" on="0"/>
        <pt x="660" y="619" on="0"/>
        <pt x="553" y="619" on="1"/>
        <pt x="412" y="619" on="1"/>
      </contour>
    </TTGlyph>
    <TTGlyph name="C" xMin="116" yMin="-24" xMax="1328" yMax="1314">
      <contour>
        <pt x="792" y="91" on="1"/>
        <pt x="895" y="91" on="0"/>
        <pt x="1051" y="124" on="0"/>
        <pt x="1157" y="203" on="0"/>
        <pt x="1211" y="334" on="0"/>
        <pt x="1212" y="432" on="1"/>
        <pt x="1328" y="412" on="1"/>
        <pt x="1318" y="152" on="1"/>
        <pt x="1258" y="100" on="0"/>
        <pt x="1125" y="32" on="0"/>
        <pt x="986" y="-8" on="0"/>
        <pt x="843" y="-24" on="0"/>
        <pt x="773" y="-24" on="1"/>
        <pt x="611" y="-24" on="0"/>
        <pt x="366" y="72" on="0"/>
        <pt x="200" y="247" on="0"/>
        <pt x="116" y="493" on="0"/>
        <pt x="116" y="643" on="1"/>
        <pt x="116" y="796" on="0"/>
        <pt x="212" y="1043" on="0"/>
        <pt x="386" y="1219" on="0"/>
        <pt x="629" y="1314" on="0"/>
        <pt x="777" y="1314" on="1"/>
        <pt x="890" y="1314" on="0"/>
        <pt x="1090" y="1242" on="0"/>
        <pt x="1164" y="1177" on="1"/>
        <pt x="1175" y="1276" on="1"/>
        <pt x="1300" y="1276" on="1"/>
        <pt x="1300" y="917" on="1"/>
        <pt x="1184" y="919" on="1"/>
        <pt x="1178" y="988" on="0"/>
        <pt x="1117" y="1094" on="0"/>
        <pt x="1016" y="1165" on="0"/>
        <pt x="877" y="1201" on="0"/>
        <pt x="792" y="1201" on="1"/>
        <pt x="682" y="1201" on="0"/>
        <pt x="505" y="1123" on="0"/>
        <pt x="380" y="979" on="0"/>
        <pt x="312" y="774" on="0"/>
        <pt x="312" y="647" on="1"/>
        <pt x="312" y="518" on="0"/>
        <pt x="380" y="312" on="0"/>
        <pt x="505" y="168" on="0"/>
        <pt x="682" y="91" on="0"/>
      </contour>
    </TTGlyph>
    <TTGlyph name="Ccedilla" xMin="116" yMin="-424" xMax="1328" yMax="1314">
      <component glyphName="C" x="0" y="0" flags="0x1204"/>
      <component glyphName="cedilla" x="279" y="0" flags="0x1004"/>
    </TTGlyph>
    <TTGlyph name="D" xMin="50" yMin="0" xMax="1370" yMax="1290">
      <contour>
        <pt x="566" y="1290" on="1"/>
        <pt x="966" y="1290" on="0"/>
        <pt x="1370" y="979" on="0"/>
        <pt x="1370" y="659" on="1"/>
        <pt x="1370" y="493" on="0"/>
        <pt x="1277" y="246" on="0"/>
        <pt x="1083" y="82" on="0"/>
        <pt x="784" y="0" on="0"/>
        <pt x="577" y="0" on="1"/>
        <pt x="50" y="0" on="1"/>
        <pt x="50" y="99" on="1"/>
        <pt x="115" y="99" on="1"/>
        <pt x="157" y="99" on="0"/>
        <pt x="202" y="111" on="0"/>
        <pt x="223" y="134" on="0"/>
        <pt x="227" y="169" on="0"/>
        <pt x="227" y="192" on="1"/>
        <pt x="227" y="192" on="0"/>
        <pt x="227" y="271" on="0"/>
        <pt x="226" y="400" on="0"/>
        <pt x="226" y="565" on="0"/>
        <pt x="226" y="651" on="1"/>
        <pt x="226" y="1108" on="1"/>
        <pt x="226" y="1138" on="0"/>
        <pt x="212" y="1171" on="0"/>
        <pt x="173" y="1188" on="0"/>
        <pt x="104" y="1192" on="0"/>
        <pt x="50" y="1192" on="1"/>
        <pt x="50" y="1290" on="1"/>
      </contour>
      <contour>
        <pt x="409" y="111" on="1"/>
        <pt x="614" y="111" on="1"/>
        <pt x="749" y="111" on="0"/>
        <pt x="958" y="173" on="0"/>
        <pt x="1101" y="305" on="0"/>
        <pt x="1175" y="511" on="0"/>
        <pt x="1175" y="655" on="1"/>
        <pt x="1175" y="789" on="0"/>
        <pt x="1102" y="987" on="0"/>
        <pt x="960" y="1117" on="0"/>
        <pt x="751" y="1181" on="0"/>
        <pt x="615" y="1181" on="1"/>
        <pt x="409" y="1181" on="1"/>
      </contour>
    </TTGlyph>
    <TTGlyph name="Delta" xMin="64" yMin="0" xMax="1254" yMax="1383">
      <contour>
        <pt x="64" y="87" on="1"/>
        <pt x="585" y="1383" on="1"/>
        <pt x="737" y="1383" on="1"/>
        <pt x="1254" y="89" on="1"/>
        <pt x="1254" y="0" on="1"/>
        <pt x="64" y="0" on="1"/>
      </contour>
      <contour>
        <pt x="1107" y="102" on="1"/>
        <pt x="794" y="899" on="1"/>
        <pt x="784" y="924" on="0"/>
        <pt x="757" y="996" on="0"/>
        <pt x="727" y="1075" on="0"/>
        <pt x="699" y="1152" on="0"/>
        <pt x="675" y="1215" on="0"/>
        <pt x="660" y="1256" on="0"/>
        <pt x="659" y="1259" on="1"/>
        <pt x="649" y="1259" on="1"/>
        <pt x="648" y="1257" on="0"/>
        <pt x="635" y="1221" on="0"/>
        <pt x="614" y="1165" on="0"/>
        <pt x="589" y="1094" on="0"/>
        <pt x="562" y="1022" on="0"/>
        <pt x="537" y="954" on="0"/>
        <pt x="528" y="929" on="1"/>
        <pt x="201" y="102" on="1"/>
      </contour>
    </TTGlyph>
    <TTGlyph name="E" xMin="47" yMin="0" xMax="1128" yMax="1288">
      <contour>
        <pt x="1125" y="1288" on="1"/>
        <pt x="1125" y="962" on="1"/>
        <pt x="1012" y="962" on="1"/>
        <pt x="1012" y="1010" on="1"/>
        <pt x="1012" y="1072" on="0"/>
        <pt x="1003" y="1139" on="0"/>
        <pt x="985" y="1170" on="0"/>
        <pt x="958" y="1175" on="0"/>
        <pt x="940" y="1175" on="1"/>
        <pt x="409" y="1175" on="1"/>
        <pt x="409" y="713" on="1"/>
        <pt x="754" y="713" on="1"/>
        <pt x="764" y="713" on="0"/>
        <pt x="778" y="716" on="0"/>
        <pt x="788" y="735" on="0"/>
        <pt x="795" y="779" on="0"/>
        <pt x="798" y="821" on="1"/>
        <pt x="878" y="821" on="1"/>
        <pt x="878" y="499" on="1"/>
        <pt x="798" y="499" on="1"/>
        <pt x="795" y="540" on="0"/>
        <pt x="787" y="585" on="0"/>
        <pt x="775" y="606" on="0"/>
        <pt x="759" y="610" on="0"/>
        <pt x="748" y="610" on="1"/>
        <pt x="409" y="610" on="1"/>
        <pt x="409" y="112" on="1"/>
        <pt x="949" y="112" on="1"/>
        <pt x="972" y="112" on="0"/>
        <pt x="999" y="131" on="0"/>
        <pt x="1012" y="183" on="0"/>
        <pt x="1016" y="275" on="0"/>
        <pt x="1016" y="348" on="1"/>
        <pt x="1128" y="348" on="1"/>
        <pt x="1128" y="0" on="1"/>
        <pt x="47" y="0" on="1"/>
        <pt x="47" y="99" on="1"/>
        <pt x="162" y="99" on="1"/>
        <pt x="186" y="99" on="0"/>
        <pt x="212" y="113" on="0"/>
        <pt x="224" y="137" on="0"/>
        <pt x="226" y="166" on="0"/>
        <pt x="226" y="181" on="1"/>
        <pt x="226" y="1096" on="1"/>
        <pt x="226" y="1120" on="0"/>
        <pt x="225" y="1155" on="0"/>
        <pt x="214" y="1179" on="0"/>
        <pt x="187" y="1191" on="0"/>
        <pt x="162" y="1191" on="1"/>
        <pt x="55" y="1191" on="1"/>
        <pt x="55" y="1288" on="1"/>
      </contour>
    </TTGlyph>
    <TTGlyph name="Eacute" xMin="47" yMin="0" xMax="1128" yMax="1749">
      <component glyphName="acute" x="147" y="395" flags="0x1004"/>
      <component glyphName="E" x="0" y="0" flags="0x1004"/>
    </TTGlyph>
    <TTGlyph name="Ecircumflex" xMin="47" yMin="0" xMax="1128" yMax="1745">
      <component glyphName="circumflex" x="183" y="395" flags="0x1004"/>
      <component glyphName="E" x="0" y="0" flags="0x1004"/>
    </TTGlyph>
    <TTGlyph name="Edieresis" xMin="47" yMin="0" xMax="1128" yMax="1669">
      <component glyphName="dieresis" x="183" y="395" flags="0x1004"/>
      <component glyphName="E" x="0" y="0" flags="0x1004"/>
    </TTGlyph>
    <TTGlyph name="Egrave" xMin="47" yMin="0" xMax="1128" yMax="1757">
      <component glyphName="E" x="0" y="0" flags="0x1204"/>
      <component glyphName="grave" x="225" y="395" flags="0x1004"/>
    </TTGlyph>
    <TTGlyph name="Eth" xMin="50" yMin="0" xMax="1370" yMax="1290">
      <contour>
        <pt x="566" y="1290" on="1"/>
        <pt x="966" y="1290" on="0"/>
        <pt x="1370" y="979" on="0"/>
        <pt x="1370" y="659" on="1"/>
        <pt x="1370" y="493" on="0"/>
        <pt x="1277" y="246" on="0"/>
        <pt x="1083" y="82" on="0"/>
        <pt x="784" y="0" on="0"/>
        <pt x="577" y="0" on="1"/>
        <pt x="50" y="0" on="1"/>
        <pt x="50" y="99" on="1"/>
        <pt x="115" y="99" on="1"/>
        <pt x="157" y="99" on="0"/>
        <pt x="202" y="111" on="0"/>
        <pt x="223" y="134" on="0"/>
        <pt x="226" y="169" on="0"/>
        <pt x="226" y="192" on="1"/>
        <pt x="226" y="1108" on="1"/>
        <pt x="226" y="1138" on="0"/>
        <pt x="212" y="1171" on="0"/>
        <pt x="173" y="1188" on="0"/>
        <pt x="104" y="1192" on="0"/>
        <pt x="50" y="1192" on="1"/>
        <pt x="50" y="1290" on="1"/>
      </contour>
      <contour>
        <pt x="409" y="111" on="1"/>
        <pt x="614" y="111" on="1"/>
        <pt x="749" y="111" on="0"/>
        <pt x="958" y="173" on="0"/>
        <pt x="1101" y="305" on="0"/>
        <pt x="1175" y="511" on="0"/>
        <pt x="1175" y="655" on="1"/>
        <pt x="1175" y="789" on="0"/>
        <pt x="1102" y="987" on="0"/>
        <pt x="960" y="1117" on="0"/>
        <pt x="751" y="1181" on="0"/>
        <pt x="615" y="1181" on="1"/>
        <pt x="409" y="1181" on="1"/>
      </contour>
      <contour>
        <pt x="656" y="731" on="1"/>
        <pt x="656" y="585" on="1"/>
        <pt x="50" y="585" on="1"/>
        <pt x="50" y="731" on="1"/>
      </contour>
    </TTGlyph>
    <TTGlyph name="Euro" xMin="26" yMin="-17" xMax="1063" yMax="1397">
      <contour>
        <pt x="1063" y="306" on="1"/>
        <pt x="1038" y="241" on="0"/>
        <pt x="969" y="124" on="0"/>
        <pt x="872" y="35" on="0"/>
        <pt x="743" y="-17" on="0"/>
        <pt x="657" y="-17" on="1"/>
        <pt x="534" y="-17" on="0"/>
        <pt x="359" y="78" on="0"/>
        <pt x="242" y="231" on="0"/>
        <pt x="177" y="423" on="0"/>
        <pt x="165" y="521" on="1"/>
        <pt x="26" y="521" on="1"/>
        <pt x="26" y="612" on="1"/>
        <pt x="157" y="612" on="1"/>
        <pt x="156" y="627" on="0"/>
        <pt x="154" y="661" on="0"/>
        <pt x="154" y="675" on="1"/>
        <pt x="154" y="694" on="0"/>
        <pt x="155" y="730" on="0"/>
        <pt x="157" y="748" on="1"/>
        <pt x="26" y="748" on="1"/>
        <pt x="26" y="841" on="1"/>
        <pt x="165" y="841" on="1"/>
        <pt x="189" y="974" on="0"/>
        <pt x="281" y="1182" on="0"/>
        <pt x="415" y="1323" on="0"/>
        <pt x="588" y="1397" on="0"/>
        <pt x="692" y="1397" on="1"/>
        <pt x="785" y="1397" on="0"/>
        <pt x="971" y="1337" on="0"/>
        <pt x="1059" y="1275" on="1"/>
        <pt x="1029" y="1070" on="1"/>
        <pt x="958" y="1060" on="1"/>
        <pt x="941" y="1118" on="0"/>
        <pt x="882" y="1205" on="0"/>
        <pt x="807" y="1263" on="0"/>
        <pt x="720" y="1291" on="0"/>
        <pt x="674" y="1291" on="1"/>
        <pt x="609" y="1291" on="0"/>
        <pt x="494" y="1233" on="0"/>
        <pt x="401" y="1120" on="0"/>
        <pt x="334" y="952" on="0"/>
        <pt x="316" y="841" on="1"/>
        <pt x="714" y="841" on="1"/>
        <pt x="714" y="748" on="1"/>
        <pt x="307" y="748" on="1"/>
        <pt x="307" y="731" on="0"/>
        <pt x="305" y="699" on="0"/>
        <pt x="305" y="682" on="1"/>
        <pt x="305" y="665" on="0"/>
        <pt x="305" y="630" on="0"/>
        <pt x="307" y="612" on="1"/>
        <pt x="714" y="612" on="1"/>
        <pt x="714" y="521" on="1"/>
        <pt x="318" y="521" on="1"/>
        <pt x="324" y="476" on="0"/>
        <pt x="348" y="378" on="0"/>
        <pt x="386" y="283" on="0"/>
        <pt x="438" y="197" on="0"/>
        <pt x="507" y="132" on="0"/>
        <pt x="595" y="94" on="0"/>
        <pt x="650" y="94" on="1"/>
        <pt x="711" y="94" on="0"/>
        <pt x="803" y="137" on="0"/>
        <pt x="872" y="209" on="0"/>
        <pt x="924" y="302" on="0"/>
        <pt x="946" y="352" on="1"/>
      </contour>
    </TTGlyph>
    <TTGlyph name="F" xMin="46" yMin="0" xMax="1094" yMax="1290">
      <contour>
        <pt x="1094" y="1290" on="1"/>
        <pt x="1094" y="960" on="1"/>
        <pt x="983" y="960" on="1"/>
        <pt x="983" y="1001" on="1"/>
        <pt x="983" y="1067" on="0"/>
        <pt x="975" y="1138" on="0"/>
        <pt x="956" y="1171" on="0"/>
        <pt x="925" y="1176" on="0"/>
        <pt x="903" y="1176" on="1"/>
        <pt x="409" y="1176" on="1"/>
        <pt x="409" y="714" on="1"/>
        <pt x="696" y="714" on="1"/>
        <pt x="704" y="714" on="0"/>
        <pt x="719" y="713" on="0"/>
        <pt x="726" y="713" on="1"/>
        <pt x="738" y="713" on="0"/>
        <pt x="756" y="718" on="0"/>
        <pt x="768" y="736" on="0"/>
        <pt x="775" y="769" on="0"/>
        <pt x="776" y="798" on="1"/>
        <pt x="847" y="798" on="1"/>
        <pt x="847" y="527" on="1"/>
        <pt x="776" y="527" on="1"/>
        <pt x="775" y="558" on="0"/>
        <pt x="765" y="592" on="0"/>
        <pt x="745" y="608" on="0"/>
        <pt x="717" y="611" on="0"/>
        <pt x="698" y="611" on="1"/>
        <pt x="409" y="611" on="1"/>
        <pt x="409" y="166" on="1"/>
        <pt x="409" y="141" on="0"/>
        <pt x="423" y="114" on="0"/>
        <pt x="453" y="101" on="0"/>
        <pt x="503" y="99" on="0"/>
        <pt x="539" y="99" on="1"/>
        <pt x="593" y="99" on="1"/>
        <pt x="593" y="0" on="1"/>
        <pt x="562" y="0" on="0"/>
        <pt x="503" y="0" on="0"/>
        <pt x="440" y="0" on="0"/>
        <pt x="368" y="1" on="0"/>
        <pt x="325" y="2" on="1"/>
        <pt x="279" y="2" on="0"/>
        <pt x="206" y="1" on="0"/>
        <pt x="141" y="1" on="0"/>
        <pt x="79" y="0" on="0"/>
        <pt x="46" y="0" on="1"/>
        <pt x="46" y="99" on="1"/>
        <pt x="163" y="99" on="1"/>
        <pt x="185" y="99" on="0"/>
        <pt x="211" y="109" on="0"/>
        <pt x="223" y="129" on="0"/>
        <pt x="226" y="159" on="0"/>
        <pt x="226" y="179" on="1"/>
        <pt x="226" y="1101" on="1"/>
        <pt x="226" y="1126" on="0"/>
        <pt x="225" y="1161" on="0"/>
        <pt x="213" y="1182" on="0"/>
        <pt x="187" y="1191" on="0"/>
        <pt x="163" y="1191" on="1"/>
        <pt x="52" y="1191" on="1"/>
        <pt x="52" y="1290" on="1"/>
      </contour>
    </TTGlyph>
    <TTGlyph name="G" xMin="104" yMin="-24" xMax="1449" yMax="1315">
      <contour>
        <pt x="1299" y="918" on="1"/>
        <pt x="1181" y="918" on="1"/>
        <pt x="1172" y="985" on="0"/>
        <pt x="1112" y="1090" on="0"/>
        <pt x="1013" y="1162" on="0"/>
        <pt x="878" y="1200" on="0"/>
        <pt x="795" y="1200" on="1"/>
        <pt x="680" y="1200" on="0"/>
        <pt x="497" y="1123" on="0"/>
        <pt x="369" y="980" on="0"/>
        <pt x="301" y="776" on="0"/>
        <pt x="301" y="648" on="1"/>
        <pt x="301" y="518" on="0"/>
        <pt x="370" y="312" on="0"/>
        <pt x="500" y="169" on="0"/>
        <pt x="687" y="93" on="0"/>
        <pt x="806" y="93" on="1"/>
        <pt x="992" y="93" on="0"/>
        <pt x="1182" y="202" on="0"/>
        <pt x="1182" y="315" on="1"/>
        <pt x="1182" y="447" on="1"/>
        <pt x="1182" y="467" on="0"/>
        <pt x="1176" y="488" on="0"/>
        <pt x="1151" y="498" on="0"/>
        <pt x="1099" y="499" on="0"/>
        <pt x="1054" y="499" on="1"/>
        <pt x="929" y="499" on="1"/>
        <pt x="929" y="604" on="1"/>
        <pt x="962" y="604" on="0"/>
        <pt x="1027" y="603" on="0"/>
        <pt x="1102" y="603" on="0"/>
        <pt x="1189" y="602" on="0"/>
        <pt x="1243" y="602" on="1"/>
        <pt x="1262" y="602" on="0"/>
        <pt x="1316" y="603" on="0"/>
        <pt x="1373" y="603" on="0"/>
        <pt x="1428" y="604" on="0"/>
        <pt x="1449" y="604" on="1"/>
        <pt x="1449" y="602" on="0"/>
        <pt x="1447" y="571" on="0"/>
        <pt x="1446" y="534" on="0"/>
        <pt x="1444" y="503" on="0"/>
        <pt x="1444" y="501" on="1"/>
        <pt x="1399" y="500" on="0"/>
        <pt x="1349" y="495" on="0"/>
        <pt x="1325" y="483" on="0"/>
        <pt x="1320" y="464" on="0"/>
        <pt x="1320" y="448" on="1"/>
        <pt x="1320" y="394" on="0"/>
        <pt x="1309" y="241" on="0"/>
        <pt x="1304" y="160" on="1"/>
        <pt x="1249" y="104" on="0"/>
        <pt x="1126" y="32" on="0"/>
        <pt x="999" y="-9" on="0"/>
        <pt x="871" y="-24" on="0"/>
        <pt x="811" y="-24" on="1"/>
        <pt x="637" y="-24" on="0"/>
        <pt x="373" y="71" on="0"/>
        <pt x="194" y="246" on="0"/>
        <pt x="104" y="493" on="0"/>
        <pt x="104" y="645" on="1"/>
        <pt x="104" y="793" on="0"/>
        <pt x="202" y="1040" on="0"/>
        <pt x="376" y="1217" on="0"/>
        <pt x="616" y="1315" on="0"/>
        <pt x="758" y="1315" on="1"/>
        <pt x="877" y="1315" on="0"/>
        <pt x="1086" y="1246" on="0"/>
        <pt x="1164" y="1171" on="1"/>
        <pt x="1174" y="1274" on="1"/>
        <pt x="1299" y="1274" on="1"/>
      </contour>
    </TTGlyph>
    <TTGlyph name="H" xMin="60" yMin="0" xMax="1429" yMax="1290">
      <contour>
        <pt x="60" y="1290" on="1"/>
        <pt x="93" y="1290" on="0"/>
        <pt x="167" y="1289" on="0"/>
        <pt x="245" y="1289" on="0"/>
        <pt x="323" y="1288" on="0"/>
        <pt x="359" y="1288" on="1"/>
        <pt x="363" y="1288" on="0"/>
        <pt x="417" y="1289" on="0"/>
        <pt x="487" y="1289" on="0"/>
        <pt x="558" y="1290" on="0"/>
        <pt x="580" y="1290" on="1"/>
        <pt x="580" y="1191" on="1"/>
        <pt x="532" y="1191" on="1"/>
        <pt x="486" y="1191" on="0"/>
        <pt x="437" y="1184" on="0"/>
        <pt x="414" y="1167" on="0"/>
        <pt x="410" y="1139" on="0"/>
        <pt x="410" y="1118" on="1"/>
        <pt x="410" y="725" on="1"/>
        <pt x="1079" y="725" on="1"/>
        <pt x="1079" y="1126" on="1"/>
        <pt x="1079" y="1150" on="0"/>
        <pt x="1068" y="1177" on="0"/>
        <pt x="1039" y="1189" on="0"/>
        <pt x="992" y="1191" on="0"/>
        <pt x="956" y="1191" on="1"/>
        <pt x="908" y="1191" on="1"/>
        <pt x="908" y="1290" on="1"/>
        <pt x="981" y="1288" on="0"/>
        <pt x="1123" y="1288" on="0"/>
        <pt x="1187" y="1288" on="1"/>
        <pt x="1191" y="1288" on="0"/>
        <pt x="1249" y="1289" on="0"/>
        <pt x="1326" y="1289" on="0"/>
        <pt x="1405" y="1290" on="0"/>
        <pt x="1429" y="1290" on="1"/>
        <pt x="1429" y="1191" on="1"/>
        <pt x="1382" y="1191" on="1"/>
        <pt x="1337" y="1191" on="0"/>
        <pt x="1288" y="1184" on="0"/>
        <pt x="1265" y="1168" on="0"/>
        <pt x="1261" y="1144" on="0"/>
        <pt x="1261" y="1126" on="1"/>
        <pt x="1261" y="183" on="1"/>
        <pt x="1261" y="175" on="0"/>
        <pt x="1260" y="160" on="0"/>
        <pt x="1260" y="153" on="1"/>
        <pt x="1260" y="139" on="0"/>
        <pt x="1267" y="119" on="0"/>
        <pt x="1292" y="105" on="0"/>
        <pt x="1340" y="99" on="0"/>
        <pt x="1382" y="99" on="1"/>
        <pt x="1429" y="99" on="1"/>
        <pt x="1429" y="0" on="1"/>
        <pt x="1396" y="0" on="0"/>
        <pt x="1332" y="1" on="0"/>
        <pt x="1265" y="1" on="0"/>
        <pt x="1191" y="2" on="0"/>
        <pt x="1146" y="2" on="1"/>
        <pt x="1108" y="2" on="0"/>
        <pt x="1044" y="1" on="0"/>
        <pt x="987" y="1" on="0"/>
        <pt x="935" y="0" on="0"/>
        <pt x="908" y="0" on="1"/>
        <pt x="908" y="99" on="1"/>
        <pt x="956" y="99" on="1"/>
        <pt x="1001" y="99" on="0"/>
        <pt x="1051" y="110" on="0"/>
        <pt x="1075" y="131" on="0"/>
        <pt x="1079" y="160" on="0"/>
        <pt x="1079" y="179" on="1"/>
        <pt x="1079" y="618" on="1"/>
        <pt x="410" y="618" on="1"/>
        <pt x="410" y="173" on="1"/>
        <pt x="410" y="144" on="0"/>
        <pt x="420" y="114" on="0"/>
        <pt x="447" y="100" on="0"/>
        <pt x="495" y="99" on="0"/>
        <pt x="532" y="99" on="1"/>
        <pt x="580" y="99" on="1"/>
        <pt x="580" y="0" on="1"/>
        <pt x="552" y="0" on="0"/>
        <pt x="500" y="1" on="0"/>
        <pt x="445" y="1" on="0"/>
        <pt x="381" y="2" on="0"/>
        <pt x="342" y="2" on="1"/>
        <pt x="297" y="2" on="0"/>
        <pt x="222" y="1" on="0"/>
        <pt x="156" y="1" on="0"/>
        <pt x="93" y="0" on="0"/>
        <pt x="60" y="0" on="1"/>
        <pt x="60" y="99" on="1"/>
        <pt x="107" y="99" on="1"/>
        <pt x="152" y="99" on="0"/>
        <pt x="202" y="111" on="0"/>
        <pt x="224" y="132" on="0"/>
        <pt x="228" y="160" on="0"/>
        <pt x="228" y="177" on="1"/>
        <pt x="228" y="1129" on="1"/>
        <pt x="228" y="1146" on="0"/>
        <pt x="224" y="1170" on="0"/>
        <pt x="201" y="1185" on="0"/>
        <pt x="152" y="1191" on="0"/>
        <pt x="107" y="1191" on="1"/>
        <pt x="60" y="1191" on="1"/>
      </contour>
    </TTGlyph>
    <TTGlyph name="I" xMin="68" yMin="0" xMax="591" yMax="1290">
      <contour>
        <pt x="68" y="1290" on="1"/>
        <pt x="115" y="1288" on="0"/>
        <pt x="185" y="1287" on="0"/>
        <pt x="220" y="1287" on="1"/>
        <pt x="308" y="1287" on="0"/>
        <pt x="429" y="1288" on="0"/>
        <pt x="512" y="1289" on="0"/>
        <pt x="567" y="1290" on="0"/>
        <pt x="591" y="1290" on="1"/>
        <pt x="591" y="1191" on="1"/>
        <pt x="542" y="1191" on="1"/>
        <pt x="497" y="1191" on="0"/>
        <pt x="447" y="1181" on="0"/>
        <pt x="424" y="1162" on="0"/>
        <pt x="420" y="1136" on="0"/>
        <pt x="420" y="1121" on="1"/>
        <pt x="420" y="162" on="1"/>
        <pt x="420" y="143" on="0"/>
        <pt x="424" y="119" on="0"/>
        <pt x="446" y="105" on="0"/>
        <pt x="496" y="99" on="0"/>
        <pt x="542" y="99" on="1"/>
        <pt x="591" y="99" on="1"/>
        <pt x="591" y="0" on="1"/>
        <pt x="560" y="0" on="0"/>
        <pt x="503" y="1" on="0"/>
        <pt x="442" y="1" on="0"/>
        <pt x="372" y="2" on="0"/>
        <pt x="328" y="2" on="1"/>
        <pt x="248" y="2" on="0"/>
        <pt x="127" y="0" on="0"/>
        <pt x="68" y="0" on="1"/>
        <pt x="68" y="99" on="1"/>
        <pt x="116" y="99" on="1"/>
        <pt x="162" y="99" on="0"/>
        <pt x="211" y="109" on="0"/>
        <pt x="234" y="128" on="0"/>
        <pt x="238" y="154" on="0"/>
        <pt x="238" y="169" on="1"/>
        <pt x="238" y="1114" on="1"/>
        <pt x="238" y="1136" on="0"/>
        <pt x="233" y="1166" on="0"/>
        <pt x="210" y="1184" on="0"/>
        <pt x="161" y="1191" on="0"/>
        <pt x="116" y="1191" on="1"/>
        <pt x="68" y="1191" on="1"/>
      </contour>
    </TTGlyph>
    <TTGlyph name="Iacute" xMin="68" yMin="0" xMax="591" yMax="1749">
      <component glyphName="I" x="0" y="0" flags="0x1204"/>
      <component glyphName="acute" x="-133" y="395" flags="0x1004"/>
    </TTGlyph>
    <TTGlyph name="Icircumflex" xMin="28" yMin="0" xMax="633" yMax="1745">
      <component glyphName="I" x="0" y="0" flags="0x1204"/>
      <component glyphName="circumflex" x="-96" y="395" flags="0x1004"/>
    </TTGlyph>
    <TTGlyph name="Idieresis" xMin="52" yMin="0" xMax="609" yMax="1669">
      <component glyphName="I" x="0" y="0" flags="0x1204"/>
      <component glyphName="dieresis" x="-96" y="395" flags="0x1004"/>
    </TTGlyph>
    <TTGlyph name="Igrave" xMin="68" yMin="0" xMax="591" yMax="1757">
      <component glyphName="I" x="0" y="0" flags="0x1204"/>
      <component glyphName="grave" x="-54" y="395" flags="0x1004"/>
    </TTGlyph>
    <TTGlyph name="J" xMin="-20" yMin="-227" xMax="724" yMax="1290">
      <contour>
        <pt x="198" y="1290" on="1"/>
        <pt x="225" y="1290" on="0"/>
        <pt x="280" y="1289" on="0"/>
        <pt x="346" y="1288" on="0"/>
        <pt x="426" y="1287" on="0"/>
        <pt x="479" y="1287" on="1"/>
        <pt x="483" y="1287" on="0"/>
        <pt x="540" y="1288" on="0"/>
        <pt x="616" y="1289" on="0"/>
        <pt x="697" y="1290" on="0"/>
        <pt x="724" y="1290" on="1"/>
        <pt x="724" y="1191" on="1"/>
        <pt x="640" y="1191" on="1"/>
        <pt x="604" y="1191" on="0"/>
        <pt x="565" y="1178" on="0"/>
        <pt x="547" y="1156" on="0"/>
        <pt x="544" y="1127" on="0"/>
        <pt x="544" y="1111" on="1"/>
        <pt x="544" y="278" on="1"/>
        <pt x="544" y="144" on="0"/>
        <pt x="517" y="-47" on="0"/>
        <pt x="439" y="-169" on="0"/>
        <pt x="295" y="-227" on="0"/>
        <pt x="178" y="-227" on="1"/>
        <pt x="121" y="-227" on="0"/>
        <pt x="24" y="-213" on="0"/>
        <pt x="-20" y="-200" on="1"/>
        <pt x="-20" y="42" on="1"/>
        <pt x="-19" y="42" on="0"/>
        <pt x="12" y="38" on="0"/>
        <pt x="48" y="34" on="0"/>
        <pt x="79" y="31" on="0"/>
        <pt x="80" y="31" on="1"/>
        <pt x="86" y="-9" on="0"/>
        <pt x="103" y="-62" on="0"/>
        <pt x="130" y="-93" on="0"/>
        <pt x="168" y="-106" on="0"/>
        <pt x="194" y="-106" on="1"/>
        <pt x="252" y="-100" on="0"/>
        <pt x="319" y="-45" on="0"/>
        <pt x="353" y="45" on="0"/>
        <pt x="361" y="167" on="0"/>
        <pt x="361" y="240" on="1"/>
        <pt x="361" y="1110" on="1"/>
        <pt x="361" y="1129" on="0"/>
        <pt x="358" y="1159" on="0"/>
        <pt x="340" y="1180" on="0"/>
        <pt x="300" y="1191" on="0"/>
        <pt x="263" y="1191" on="1"/>
        <pt x="161" y="1191" on="1"/>
        <pt x="161" y="1290" on="1"/>
      </contour>
    </TTGlyph>
    <TTGlyph name="K" xMin="13" yMin="0" xMax="1275" yMax="1290">
      <contour>
        <pt x="864" y="1133" on="1"/>
        <pt x="900" y="1166" on="0"/>
        <pt x="900" y="1177" on="1"/>
        <pt x="900" y="1188" on="0"/>
        <pt x="860" y="1191" on="0"/>
        <pt x="827" y="1191" on="1"/>
        <pt x="776" y="1191" on="1"/>
        <pt x="776" y="1290" on="1"/>
        <pt x="809" y="1288" on="0"/>
        <pt x="896" y="1287" on="0"/>
        <pt x="939" y="1287" on="1"/>
        <pt x="962" y="1287" on="0"/>
        <pt x="1006" y="1288" on="0"/>
        <pt x="1026" y="1288" on="1"/>
        <pt x="1248" y="1290" on="1"/>
        <pt x="1248" y="1191" on="1"/>
        <pt x="1224" y="1191" on="0"/>
        <pt x="1187" y="1192" on="0"/>
        <pt x="1172" y="1192" on="1"/>
        <pt x="1147" y="1192" on="0"/>
        <pt x="1111" y="1185" on="0"/>
        <pt x="1070" y="1163" on="0"/>
        <pt x="1015" y="1119" on="0"/>
        <pt x="972" y="1082" on="1"/>
        <pt x="547" y="706" on="1"/>
        <pt x="1072" y="155" on="1"/>
        <pt x="1093" y="132" on="0"/>
        <pt x="1127" y="109" on="0"/>
        <pt x="1169" y="100" on="0"/>
        <pt x="1228" y="99" on="0"/>
        <pt x="1275" y="99" on="1"/>
        <pt x="1275" y="0" on="1"/>
        <pt x="1222" y="0" on="0"/>
        <pt x="1085" y="2" on="0"/>
        <pt x="1010" y="2" on="1"/>
        <pt x="975" y="2" on="0"/>
        <pt x="903" y="1" on="0"/>
        <pt x="835" y="1" on="0"/>
        <pt x="774" y="0" on="0"/>
        <pt x="750" y="0" on="1"/>
        <pt x="750" y="99" on="1"/>
        <pt x="858" y="99" on="1"/>
        <pt x="884" y="99" on="0"/>
        <pt x="908" y="101" on="0"/>
        <pt x="908" y="108" on="1"/>
        <pt x="908" y="114" on="0"/>
        <pt x="893" y="134" on="0"/>
        <pt x="876" y="152" on="1"/>
        <pt x="431" y="623" on="1"/>
        <pt x="365" y="568" on="1"/>
        <pt x="365" y="164" on="1"/>
        <pt x="365" y="146" on="0"/>
        <pt x="368" y="121" on="0"/>
        <pt x="391" y="106" on="0"/>
        <pt x="440" y="99" on="0"/>
        <pt x="486" y="99" on="1"/>
        <pt x="536" y="99" on="1"/>
        <pt x="536" y="0" on="1"/>
        <pt x="483" y="0" on="0"/>
        <pt x="349" y="2" on="0"/>
        <pt x="274" y="2" on="1"/>
        <pt x="205" y="2" on="0"/>
        <pt x="64" y="0" on="0"/>
        <pt x="13" y="0" on="1"/>
        <pt x="13" y="99" on="1"/>
        <pt x="62" y="99" on="1"/>
        <pt x="107" y="99" on="0"/>
        <pt x="156" y="110" on="0"/>
        <pt x="179" y="128" on="0"/>
        <pt x="183" y="153" on="0"/>
        <pt x="183" y="167" on="1"/>
        <pt x="183" y="1116" on="1"/>
        <pt x="183" y="1137" on="0"/>
        <pt x="178" y="1165" on="0"/>
        <pt x="155" y="1183" on="0"/>
        <pt x="106" y="1191" on="0"/>
        <pt x="62" y="1191" on="1"/>
        <pt x="13" y="1191" on="1"/>
        <pt x="13" y="1290" on="1"/>
        <pt x="64" y="1288" on="0"/>
        <pt x="161" y="1286" on="0"/>
        <pt x="209" y="1286" on="1"/>
        <pt x="224" y="1286" on="0"/>
        <pt x="253" y="1287" on="0"/>
        <pt x="268" y="1287" on="1"/>
        <pt x="272" y="1287" on="0"/>
        <pt x="312" y="1287" on="0"/>
        <pt x="368" y="1288" on="0"/>
        <pt x="433" y="1289" on="0"/>
        <pt x="491" y="1290" on="0"/>
        <pt x="533" y="1290" on="0"/>
        <pt x="538" y="1290" on="1"/>
        <pt x="538" y="1191" on="1"/>
        <pt x="486" y="1191" on="1"/>
        <pt x="441" y="1191" on="0"/>
        <pt x="392" y="1179" on="0"/>
        <pt x="369" y="1160" on="0"/>
        <pt x="365" y="1134" on="0"/>
        <pt x="365" y="1119" on="1"/>
        <pt x="365" y="687" on="1"/>
      </contour>
    </TTGlyph>
    <TTGlyph name="L" xMin="56" yMin="0" xMax="1049" yMax="1290">
      <contour>
        <pt x="56" y="1290" on="1"/>
        <pt x="123" y="1287" on="0"/>
        <pt x="204" y="1287" on="1"/>
        <pt x="301" y="1287" on="0"/>
        <pt x="490" y="1287" on="0"/>
        <pt x="596" y="1290" on="1"/>
        <pt x="596" y="1191" on="1"/>
        <pt x="525" y="1191" on="1"/>
        <pt x="484" y="1191" on="0"/>
        <pt x="440" y="1177" on="0"/>
        <pt x="419" y="1154" on="0"/>
        <pt x="415" y="1123" on="0"/>
        <pt x="415" y="1106" on="1"/>
        <pt x="415" y="114" on="1"/>
        <pt x="870" y="114" on="1"/>
        <pt x="894" y="114" on="0"/>
        <pt x="920" y="158" on="0"/>
        <pt x="932" y="242" on="0"/>
        <pt x="934" y="363" on="0"/>
        <pt x="934" y="440" on="1"/>
        <pt x="1049" y="440" on="1"/>
        <pt x="1049" y="0" on="1"/>
        <pt x="56" y="0" on="1"/>
        <pt x="56" y="99" on="1"/>
        <pt x="107" y="99" on="1"/>
        <pt x="154" y="99" on="0"/>
        <pt x="205" y="113" on="0"/>
        <pt x="228" y="139" on="0"/>
        <pt x="232" y="172" on="0"/>
        <pt x="232" y="192" on="1"/>
        <pt x="232" y="1095" on="1"/>
        <pt x="232" y="1103" on="0"/>
        <pt x="233" y="1119" on="0"/>
        <pt x="233" y="1127" on="1"/>
        <pt x="233" y="1142" on="0"/>
        <pt x="226" y="1166" on="0"/>
        <pt x="200" y="1182" on="0"/>
        <pt x="150" y="1191" on="0"/>
        <pt x="107" y="1191" on="1"/>
        <pt x="56" y="1191" on="1"/>
      </contour>
    </TTGlyph>
    <TTGlyph name="Lslash" xMin="26" yMin="0" xMax="1049" yMax="1290">
      <contour>
        <pt x="769" y="895" on="1"/>
        <pt x="769" y="806" on="1"/>
        <pt x="26" y="490" on="1"/>
        <pt x="26" y="579" on="1"/>
      </contour>
      <contour>
        <pt x="56" y="1290" on="1"/>
        <pt x="123" y="1287" on="0"/>
        <pt x="204" y="1287" on="1"/>
        <pt x="301" y="1287" on="0"/>
        <pt x="490" y="1287" on="0"/>
        <pt x="596" y="1290" on="1"/>
        <pt x="596" y="1191" on="1"/>
        <pt x="525" y="1191" on="1"/>
        <pt x="484" y="1191" on="0"/>
        <pt x="440" y="1177" on="0"/>
        <pt x="419" y="1154" on="0"/>
        <pt x="415" y="1123" on="0"/>
        <pt x="415" y="1106" on="1"/>
        <pt x="415" y="114" on="1"/>
        <pt x="870" y="114" on="1"/>
        <pt x="894" y="114" on="0"/>
        <pt x="920" y="158" on="0"/>
        <pt x="932" y="242" on="0"/>
        <pt x="934" y="363" on="0"/>
        <pt x="934" y="440" on="1"/>
        <pt x="1049" y="440" on="1"/>
        <pt x="1049" y="0" on="1"/>
        <pt x="56" y="0" on="1"/>
        <pt x="56" y="99" on="1"/>
        <pt x="107" y="99" on="1"/>
        <pt x="154" y="99" on="0"/>
        <pt x="205" y="113" on="0"/>
        <pt x="228" y="139" on="0"/>
        <pt x="232" y="172" on="0"/>
        <pt x="232" y="192" on="1"/>
        <pt x="232" y="1095" on="1"/>
        <pt x="232" y="1103" on="0"/>
        <pt x="233" y="1119" on="0"/>
        <pt x="233" y="1127" on="1"/>
        <pt x="233" y="1142" on="0"/>
        <pt x="226" y="1166" on="0"/>
        <pt x="200" y="1182" on="0"/>
        <pt x="150" y="1191" on="0"/>
        <pt x="107" y="1191" on="1"/>
        <pt x="56" y="1191" on="1"/>
      </contour>
    </TTGlyph>
    <TTGlyph name="M" xMin="52" yMin="0" xMax="1715" yMax="1290">
      <contour>
        <pt x="59" y="1290" on="1"/>
        <pt x="119" y="1288" on="0"/>
        <pt x="250" y="1288" on="0"/>
        <pt x="304" y="1288" on="1"/>
        <pt x="309" y="1288" on="0"/>
        <pt x="362" y="1289" on="0"/>
        <pt x="424" y="1289" on="0"/>
        <pt x="479" y="1290" on="0"/>
        <pt x="486" y="1290" on="1"/>
        <pt x="882" y="212" on="1"/>
        <pt x="883" y="217" on="0"/>
        <pt x="918" y="312" on="0"/>
        <pt x="973" y="463" on="0"/>
        <pt x="1043" y="652" on="0"/>
        <pt x="1116" y="849" on="0"/>
        <pt x="1186" y="1038" on="0"/>
        <pt x="1242" y="1189" on="0"/>
        <pt x="1277" y="1285" on="0"/>
        <pt x="1279" y="1290" on="1"/>
        <pt x="1283" y="1290" on="0"/>
        <pt x="1317" y="1290" on="0"/>
        <pt x="1363" y="1289" on="0"/>
        <pt x="1414" y="1288" on="0"/>
        <pt x="1460" y="1287" on="0"/>
        <pt x="1492" y="1287" on="0"/>
        <pt x="1496" y="1287" on="1"/>
        <pt x="1521" y="1287" on="0"/>
        <pt x="1578" y="1287" on="0"/>
        <pt x="1635" y="1288" on="0"/>
        <pt x="1689" y="1289" on="0"/>
        <pt x="1712" y="1290" on="1"/>
        <pt x="1712" y="1191" on="1"/>
        <pt x="1650" y="1191" on="1"/>
        <pt x="1611" y="1191" on="0"/>
        <pt x="1568" y="1182" on="0"/>
        <pt x="1548" y="1165" on="0"/>
        <pt x="1544" y="1139" on="0"/>
        <pt x="1544" y="1122" on="1"/>
        <pt x="1544" y="188" on="1"/>
        <pt x="1544" y="156" on="0"/>
        <pt x="1553" y="120" on="0"/>
        <pt x="1577" y="103" on="0"/>
        <pt x="1620" y="99" on="0"/>
        <pt x="1654" y="99" on="1"/>
        <pt x="1715" y="99" on="1"/>
        <pt x="1715" y="0" on="1"/>
        <pt x="1680" y="0" on="0"/>
        <pt x="1615" y="1" on="0"/>
        <pt x="1546" y="1" on="0"/>
        <pt x="1468" y="2" on="0"/>
        <pt x="1420" y="2" on="1"/>
        <pt x="1383" y="2" on="0"/>
        <pt x="1326" y="1" on="0"/>
        <pt x="1278" y="1" on="0"/>
        <pt x="1233" y="0" on="0"/>
        <pt x="1208" y="0" on="1"/>
        <pt x="1208" y="99" on="1"/>
        <pt x="1268" y="99" on="1"/>
        <pt x="1308" y="99" on="0"/>
        <pt x="1353" y="112" on="0"/>
        <pt x="1374" y="136" on="0"/>
        <pt x="1378" y="169" on="0"/>
        <pt x="1378" y="189" on="1"/>
        <pt x="1378" y="1200" on="1"/>
        <pt x="1287" y="962" on="1"/>
        <pt x="925" y="0" on="1"/>
        <pt x="812" y="0" on="1"/>
        <pt x="775" y="95" on="0"/>
        <pt x="697" y="303" on="0"/>
        <pt x="618" y="516" on="0"/>
        <pt x="538" y="729" on="0"/>
        <pt x="462" y="931" on="0"/>
        <pt x="392" y="1117" on="0"/>
        <pt x="361" y="1196" on="1"/>
        <pt x="361" y="181" on="1"/>
        <pt x="361" y="152" on="0"/>
        <pt x="368" y="119" on="0"/>
        <pt x="390" y="103" on="0"/>
        <pt x="432" y="99" on="0"/>
        <pt x="467" y="99" on="1"/>
        <pt x="527" y="99" on="1"/>
        <pt x="527" y="0" on="1"/>
        <pt x="501" y="0" on="0"/>
        <pt x="455" y="1" on="0"/>
        <pt x="404" y="1" on="0"/>
        <pt x="346" y="2" on="0"/>
        <pt x="309" y="2" on="1"/>
        <pt x="269" y="2" on="0"/>
        <pt x="201" y="1" on="0"/>
        <pt x="140" y="1" on="0"/>
        <pt x="82" y="0" on="0"/>
        <pt x="52" y="0" on="1"/>
        <pt x="52" y="99" on="1"/>
        <pt x="114" y="99" on="1"/>
        <pt x="159" y="99" on="0"/>
        <pt x="204" y="109" on="0"/>
        <pt x="223" y="129" on="0"/>
        <pt x="224" y="161" on="0"/>
        <pt x="224" y="183" on="1"/>
        <pt x="225" y="1119" on="1"/>
        <pt x="225" y="1144" on="0"/>
        <pt x="213" y="1173" on="0"/>
        <pt x="188" y="1187" on="0"/>
        <pt x="147" y="1191" on="0"/>
        <pt x="118" y="1191" on="1"/>
        <pt x="59" y="1191" on="1"/>
      </contour>
    </TTGlyph>
    <TTGlyph name="N" xMin="38" yMin="-10" xMax="1403" yMax="1290">
      <contour>
        <pt x="44" y="1290" on="1"/>
        <pt x="44" y="1290" on="0"/>
        <pt x="68" y="1290" on="0"/>
        <pt x="106" y="1290" on="0"/>
        <pt x="151" y="1290" on="0"/>
        <pt x="193" y="1289" on="0"/>
        <pt x="227" y="1289" on="0"/>
        <pt x="234" y="1289" on="1"/>
        <pt x="254" y="1289" on="0"/>
        <pt x="304" y="1289" on="0"/>
        <pt x="357" y="1290" on="0"/>
        <pt x="409" y="1290" on="0"/>
        <pt x="430" y="1290" on="1"/>
        <pt x="1096" y="187" on="1"/>
        <pt x="1098" y="187" on="1"/>
        <pt x="1098" y="1119" on="1"/>
        <pt x="1098" y="1145" on="0"/>
        <pt x="1086" y="1174" on="0"/>
        <pt x="1058" y="1188" on="0"/>
        <pt x="1009" y="1191" on="0"/>
        <pt x="972" y="1191" on="1"/>
        <pt x="920" y="1191" on="1"/>
        <pt x="920" y="1290" on="1"/>
        <pt x="999" y="1290" on="0"/>
        <pt x="1107" y="1287" on="0"/>
        <pt x="1151" y="1287" on="1"/>
        <pt x="1156" y="1287" on="0"/>
        <pt x="1184" y="1287" on="0"/>
        <pt x="1221" y="1287" on="0"/>
        <pt x="1266" y="1288" on="0"/>
        <pt x="1288" y="1288" on="1"/>
        <pt x="1340" y="1289" on="0"/>
        <pt x="1403" y="1290" on="1"/>
        <pt x="1403" y="1191" on="1"/>
        <pt x="1340" y="1191" on="1"/>
        <pt x="1301" y="1191" on="0"/>
        <pt x="1258" y="1182" on="0"/>
        <pt x="1238" y="1164" on="0"/>
        <pt x="1234" y="1138" on="0"/>
        <pt x="1234" y="1121" on="1"/>
        <pt x="1234" y="1121" on="0"/>
        <pt x="1234" y="1078" on="0"/>
        <pt x="1233" y="999" on="0"/>
        <pt x="1233" y="889" on="0"/>
        <pt x="1233" y="824" on="1"/>
        <pt x="1233" y="281" on="1"/>
        <pt x="1233" y="134" on="0"/>
        <pt x="1234" y="-10" on="1"/>
        <pt x="1040" y="-10" on="1"/>
        <pt x="352" y="1124" on="1"/>
        <pt x="350" y="1124" on="1"/>
        <pt x="350" y="175" on="1"/>
        <pt x="350" y="147" on="0"/>
        <pt x="361" y="116" on="0"/>
        <pt x="389" y="102" on="0"/>
        <pt x="438" y="99" on="0"/>
        <pt x="477" y="99" on="1"/>
        <pt x="531" y="99" on="1"/>
        <pt x="531" y="0" on="1"/>
        <pt x="504" y="0" on="0"/>
        <pt x="454" y="1" on="0"/>
        <pt x="401" y="1" on="0"/>
        <pt x="341" y="2" on="0"/>
        <pt x="303" y="2" on="1"/>
        <pt x="262" y="2" on="0"/>
        <pt x="193" y="1" on="0"/>
        <pt x="130" y="1" on="0"/>
        <pt x="69" y="0" on="0"/>
        <pt x="38" y="0" on="1"/>
        <pt x="38" y="99" on="1"/>
        <pt x="102" y="99" on="1"/>
        <pt x="144" y="99" on="0"/>
        <pt x="190" y="107" on="0"/>
        <pt x="211" y="127" on="0"/>
        <pt x="214" y="158" on="0"/>
        <pt x="214" y="181" on="1"/>
        <pt x="214" y="1109" on="1"/>
        <pt x="214" y="1139" on="0"/>
        <pt x="206" y="1172" on="0"/>
        <pt x="183" y="1188" on="0"/>
        <pt x="140" y="1191" on="0"/>
        <pt x="105" y="1191" on="1"/>
        <pt x="43" y="1191" on="1"/>
        <pt x="43" y="1200" on="0"/>
        <pt x="43" y="1226" on="0"/>
        <pt x="44" y="1254" on="0"/>
        <pt x="44" y="1281" on="0"/>
      </contour>
    </TTGlyph>
    <TTGlyph name="Ntilde" xMin="38" yMin="-10" xMax="1403" yMax="1690">
      <component glyphName="N" x="0" y="0" flags="0x1204"/>
      <component glyphName="tilde" x="294" y="395" flags="0x1004"/>
    </TTGlyph>
    <TTGlyph name="O" xMin="105" yMin="-24" xMax="1425" yMax="1315">
      <contour>
        <pt x="765" y="1315" on="1"/>
        <pt x="916" y="1315" on="0"/>
        <pt x="1161" y="1218" on="0"/>
        <pt x="1332" y="1042" on="0"/>
        <pt x="1425" y="796" on="0"/>
        <pt x="1425" y="646" on="1"/>
        <pt x="1425" y="497" on="0"/>
        <pt x="1333" y="251" on="0"/>
        <pt x="1163" y="74" on="0"/>
        <pt x="921" y="-24" on="0"/>
        <pt x="772" y="-24" on="1"/>
        <pt x="617" y="-24" on="0"/>
        <pt x="370" y="72" on="0"/>
        <pt x="197" y="247" on="0"/>
        <pt x="105" y="494" on="0"/>
        <pt x="105" y="646" on="1"/>
        <pt x="105" y="796" on="0"/>
        <pt x="197" y="1043" on="0"/>
        <pt x="368" y="1218" on="0"/>
        <pt x="613" y="1315" on="0"/>
      </contour>
      <contour>
        <pt x="764" y="1202" on="1"/>
        <pt x="656" y="1202" on="0"/>
        <pt x="484" y="1124" on="0"/>
        <pt x="365" y="980" on="0"/>
        <pt x="301" y="774" on="0"/>
        <pt x="301" y="647" on="1"/>
        <pt x="301" y="519" on="0"/>
        <pt x="365" y="313" on="0"/>
        <pt x="485" y="169" on="0"/>
        <pt x="657" y="92" on="0"/>
        <pt x="764" y="92" on="1"/>
        <pt x="872" y="92" on="0"/>
        <pt x="1043" y="169" on="0"/>
        <pt x="1163" y="313" on="0"/>
        <pt x="1227" y="518" on="0"/>
        <pt x="1227" y="646" on="1"/>
        <pt x="1227" y="775" on="0"/>
        <pt x="1163" y="981" on="0"/>
        <pt x="1043" y="1125" on="0"/>
        <pt x="872" y="1202" on="0"/>
      </contour>
    </TTGlyph>
    <TTGlyph name="OE" xMin="103" yMin="0" xMax="1929" yMax="1290">
      <contour>
        <pt x="1925" y="1290" on="1"/>
        <pt x="1925" y="964" on="1"/>
        <pt x="1813" y="964" on="1"/>
        <pt x="1813" y="1044" on="0"/>
        <pt x="1811" y="1131" on="0"/>
        <pt x="1801" y="1172" on="0"/>
        <pt x="1780" y="1180" on="0"/>
        <pt x="1761" y="1180" on="1"/>
        <pt x="1210" y="1180" on="1"/>
        <pt x="1210" y="715" on="1"/>
        <pt x="1562" y="715" on="1"/>
        <pt x="1572" y="715" on="0"/>
        <pt x="1590" y="718" on="0"/>
        <pt x="1604" y="737" on="0"/>
        <pt x="1612" y="778" on="0"/>
        <pt x="1612" y="816" on="1"/>
        <pt x="1680" y="816" on="1"/>
        <pt x="1680" y="493" on="1"/>
        <pt x="1612" y="493" on="1"/>
        <pt x="1612" y="538" on="0"/>
        <pt x="1604" y="586" on="0"/>
        <pt x="1591" y="609" on="0"/>
        <pt x="1573" y="612" on="0"/>
        <pt x="1563" y="612" on="1"/>
        <pt x="1210" y="612" on="1"/>
        <pt x="1210" y="114" on="1"/>
        <pt x="1755" y="114" on="1"/>
        <pt x="1778" y="114" on="0"/>
        <pt x="1803" y="125" on="0"/>
        <pt x="1815" y="171" on="0"/>
        <pt x="1818" y="264" on="0"/>
        <pt x="1818" y="347" on="1"/>
        <pt x="1929" y="347" on="1"/>
        <pt x="1929" y="0" on="1"/>
        <pt x="903" y="0" on="1"/>
        <pt x="790" y="0" on="0"/>
        <pt x="584" y="28" on="0"/>
        <pt x="406" y="91" on="0"/>
        <pt x="261" y="191" on="0"/>
        <pt x="159" y="335" on="0"/>
        <pt x="103" y="525" on="0"/>
        <pt x="103" y="647" on="1"/>
        <pt x="103" y="804" on="0"/>
        <pt x="197" y="1044" on="0"/>
        <pt x="379" y="1207" on="0"/>
        <pt x="647" y="1290" on="0"/>
        <pt x="821" y="1290" on="1"/>
      </contour>
      <contour>
        <pt x="851" y="1180" on="1"/>
        <pt x="695" y="1180" on="0"/>
        <pt x="482" y="1102" on="0"/>
        <pt x="351" y="960" on="0"/>
        <pt x="294" y="763" on="0"/>
        <pt x="294" y="645" on="1"/>
        <pt x="294" y="490" on="0"/>
        <pt x="384" y="285" on="0"/>
        <pt x="546" y="163" on="0"/>
        <pt x="771" y="112" on="0"/>
        <pt x="905" y="112" on="1"/>
        <pt x="1028" y="112" on="1"/>
        <pt x="1028" y="1180" on="1"/>
      </contour>
    </TTGlyph>
    <TTGlyph name="Oacute" xMin="105" yMin="-24" xMax="1425" yMax="1749">
      <component glyphName="acute" x="301" y="395" flags="0x1004"/>
      <component glyphName="O" x="0" y="0" flags="0x1004"/>
    </TTGlyph>
    <TTGlyph name="Ocircumflex" xMin="105" yMin="-24" xMax="1425" yMax="1745">
      <component glyphName="circumflex" x="338" y="395" flags="0x1004"/>
      <component glyphName="O" x="0" y="0" flags="0x1004"/>
    </TTGlyph>
    <TTGlyph name="Odieresis" xMin="105" yMin="-24" xMax="1425" yMax="1669">
      <component glyphName="dieresis" x="338" y="395" flags="0x1004"/>
      <component glyphName="O" x="0" y="0" flags="0x1004"/>
    </TTGlyph>
    <TTGlyph name="Ograve" xMin="105" yMin="-24" xMax="1425" yMax="1757">
      <component glyphName="O" x="0" y="0" flags="0x1204"/>
      <component glyphName="grave" x="379" y="395" flags="0x1004"/>
    </TTGlyph>
    <TTGlyph name="Oslash" xMin="105" yMin="-72" xMax="1425" yMax="1345">
      <contour>
        <pt x="1375" y="1318" on="1"/>
        <pt x="1232" y="1141" on="1"/>
        <pt x="1425" y="968" on="0"/>
        <pt x="1425" y="646" on="1"/>
        <pt x="1425" y="504" on="0"/>
        <pt x="1340" y="259" on="0"/>
        <pt x="1173" y="79" on="0"/>
        <pt x="926" y="-24" on="0"/>
        <pt x="765" y="-24" on="1"/>
        <pt x="700" y="-24" on="0"/>
        <pt x="591" y="-11" on="0"/>
        <pt x="496" y="17" on="0"/>
        <pt x="410" y="59" on="0"/>
        <pt x="370" y="89" on="1"/>
        <pt x="241" y="-72" on="1"/>
        <pt x="146" y="-45" on="1"/>
        <pt x="297" y="146" on="1"/>
        <pt x="199" y="242" on="0"/>
        <pt x="105" y="485" on="0"/>
        <pt x="105" y="643" on="1"/>
        <pt x="105" y="786" on="0"/>
        <pt x="191" y="1032" on="0"/>
        <pt x="359" y="1212" on="0"/>
        <pt x="605" y="1315" on="0"/>
        <pt x="765" y="1315" on="1"/>
        <pt x="825" y="1315" on="0"/>
        <pt x="930" y="1302" on="0"/>
        <pt x="1026" y="1273" on="0"/>
        <pt x="1117" y="1228" on="0"/>
        <pt x="1162" y="1197" on="1"/>
        <pt x="1280" y="1345" on="1"/>
      </contour>
      <contour>
        <pt x="1072" y="1091" on="1"/>
        <pt x="1038" y="1122" on="0"/>
        <pt x="969" y="1165" on="0"/>
        <pt x="895" y="1192" on="0"/>
        <pt x="814" y="1204" on="0"/>
        <pt x="767" y="1204" on="1"/>
        <pt x="657" y="1204" on="0"/>
        <pt x="483" y="1127" on="0"/>
        <pt x="361" y="982" on="0"/>
        <pt x="297" y="774" on="0"/>
        <pt x="297" y="643" on="1"/>
        <pt x="297" y="588" on="0"/>
        <pt x="309" y="492" on="0"/>
        <pt x="335" y="403" on="0"/>
        <pt x="377" y="322" on="0"/>
        <pt x="407" y="282" on="1"/>
      </contour>
      <contour>
        <pt x="462" y="201" on="1"/>
        <pt x="579" y="90" on="0"/>
        <pt x="763" y="90" on="1"/>
        <pt x="886" y="90" on="0"/>
        <pt x="1063" y="181" on="0"/>
        <pt x="1177" y="334" on="0"/>
        <pt x="1232" y="537" on="0"/>
        <pt x="1232" y="650" on="1"/>
        <pt x="1232" y="762" on="0"/>
        <pt x="1179" y="941" on="0"/>
        <pt x="1128" y="1010" on="1"/>
      </contour>
    </TTGlyph>
    <TTGlyph name="Otilde" xMin="105" yMin="-24" xMax="1425" yMax="1690">
      <component glyphName="O" x="0" y="0" flags="0x1204"/>
      <component glyphName="tilde" x="338" y="395" flags="0x1004"/>
    </TTGlyph>
    <TTGlyph name="P" xMin="55" yMin="0" xMax="1117" yMax="1290">
      <contour>
        <pt x="644" y="1290" on="1"/>
        <pt x="767" y="1290" on="0"/>
        <pt x="945" y="1236" on="0"/>
        <pt x="1061" y="1138" on="0"/>
        <pt x="1117" y="1001" on="0"/>
        <pt x="1117" y="919" on="1"/>
        <pt x="1117" y="837" on="0"/>
        <pt x="1065" y="702" on="0"/>
        <pt x="952" y="605" on="0"/>
        <pt x="773" y="551" on="0"/>
        <pt x="646" y="551" on="1"/>
        <pt x="414" y="551" on="1"/>
        <pt x="414" y="176" on="1"/>
        <pt x="414" y="148" on="0"/>
        <pt x="426" y="117" on="0"/>
        <pt x="456" y="102" on="0"/>
        <pt x="504" y="99" on="0"/>
        <pt x="540" y="99" on="1"/>
        <pt x="591" y="99" on="1"/>
        <pt x="591" y="0" on="1"/>
        <pt x="564" y="0" on="0"/>
        <pt x="514" y="1" on="0"/>
        <pt x="461" y="1" on="0"/>
        <pt x="400" y="2" on="0"/>
        <pt x="361" y="2" on="1"/>
        <pt x="269" y="2" on="0"/>
        <pt x="125" y="0" on="0"/>
        <pt x="55" y="0" on="1"/>
        <pt x="55" y="99" on="1"/>
        <pt x="107" y="99" on="1"/>
        <pt x="153" y="99" on="0"/>
        <pt x="203" y="110" on="0"/>
        <pt x="227" y="130" on="0"/>
        <pt x="231" y="160" on="0"/>
        <pt x="231" y="180" on="1"/>
        <pt x="231" y="1126" on="1"/>
        <pt x="231" y="1149" on="0"/>
        <pt x="219" y="1175" on="0"/>
        <pt x="182" y="1188" on="0"/>
        <pt x="112" y="1191" on="0"/>
        <pt x="55" y="1191" on="1"/>
        <pt x="55" y="1290" on="1"/>
      </contour>
      <contour>
        <pt x="414" y="654" on="1"/>
        <pt x="605" y="654" on="1"/>
        <pt x="774" y="654" on="0"/>
        <pt x="937" y="783" on="0"/>
        <pt x="937" y="916" on="1"/>
        <pt x="937" y="981" on="0"/>
        <pt x="901" y="1081" on="0"/>
        <pt x="823" y="1149" on="0"/>
        <pt x="699" y="1184" on="0"/>
        <pt x="610" y="1184" on="1"/>
        <pt x="414" y="1184" on="1"/>
      </contour>
    </TTGlyph>
    <TTGlyph name="Q" xMin="105" yMin="-281" xMax="1425" yMax="1315">
      <contour>
        <pt x="764" y="92" on="1"/>
        <pt x="871" y="92" on="0"/>
        <pt x="1042" y="170" on="0"/>
        <pt x="1162" y="315" on="0"/>
        <pt x="1227" y="521" on="0"/>
        <pt x="1227" y="648" on="1"/>
        <pt x="1227" y="776" on="0"/>
        <pt x="1162" y="981" on="0"/>
        <pt x="1042" y="1125" on="0"/>
        <pt x="871" y="1202" on="0"/>
        <pt x="764" y="1202" on="1"/>
        <pt x="656" y="1202" on="0"/>
        <pt x="484" y="1123" on="0"/>
        <pt x="365" y="979" on="0"/>
        <pt x="301" y="775" on="0"/>
        <pt x="301" y="649" on="1"/>
        <pt x="301" y="523" on="0"/>
        <pt x="364" y="317" on="0"/>
        <pt x="484" y="172" on="0"/>
        <pt x="656" y="92" on="0"/>
      </contour>
      <contour>
        <pt x="1244" y="-279" on="1"/>
        <pt x="1178" y="-274" on="0"/>
        <pt x="1071" y="-245" on="0"/>
        <pt x="978" y="-207" on="0"/>
        <pt x="893" y="-162" on="0"/>
        <pt x="807" y="-118" on="0"/>
        <pt x="714" y="-79" on="0"/>
        <pt x="658" y="-65" on="1"/>
        <pt x="635" y="-65" on="0"/>
        <pt x="590" y="-78" on="0"/>
        <pt x="572" y="-91" on="1"/>
        <pt x="564" y="-81" on="0"/>
        <pt x="551" y="-63" on="0"/>
        <pt x="543" y="-53" on="1"/>
        <pt x="566" y="-33" on="0"/>
        <pt x="626" y="-17" on="0"/>
        <pt x="658" y="-14" on="1"/>
        <pt x="526" y="6" on="0"/>
        <pt x="320" y="116" on="0"/>
        <pt x="179" y="285" on="0"/>
        <pt x="105" y="510" on="0"/>
        <pt x="105" y="645" on="1"/>
        <pt x="105" y="795" on="0"/>
        <pt x="197" y="1042" on="0"/>
        <pt x="369" y="1218" on="0"/>
        <pt x="614" y="1315" on="0"/>
        <pt x="767" y="1315" on="1"/>
        <pt x="917" y="1315" on="0"/>
        <pt x="1161" y="1218" on="0"/>
        <pt x="1332" y="1042" on="0"/>
        <pt x="1425" y="795" on="0"/>
        <pt x="1425" y="646" on="1"/>
        <pt x="1425" y="511" on="0"/>
        <pt x="1347" y="281" on="0"/>
        <pt x="1201" y="107" on="0"/>
        <pt x="995" y="-1" on="0"/>
        <pt x="867" y="-15" on="1"/>
        <pt x="869" y="-16" on="0"/>
        <pt x="874" y="-18" on="0"/>
        <pt x="876" y="-18" on="1"/>
        <pt x="930" y="-40" on="0"/>
        <pt x="1023" y="-88" on="0"/>
        <pt x="1123" y="-132" on="0"/>
        <pt x="1241" y="-168" on="0"/>
        <pt x="1320" y="-177" on="1"/>
        <pt x="1286" y="-281" on="1"/>
        <pt x="1275" y="-280" on="0"/>
        <pt x="1255" y="-280" on="0"/>
      </contour>
    </TTGlyph>
    <TTGlyph name="R" xMin="46" yMin="-24" xMax="1331" yMax="1290">
      <contour>
        <pt x="1009" y="349" on="1"/>
        <pt x="1024" y="283" on="0"/>
        <pt x="1050" y="187" on="0"/>
        <pt x="1080" y="126" on="0"/>
        <pt x="1118" y="96" on="0"/>
        <pt x="1146" y="96" on="1"/>
        <pt x="1161" y="96" on="0"/>
        <pt x="1191" y="103" on="0"/>
        <pt x="1215" y="124" on="0"/>
        <pt x="1230" y="162" on="0"/>
        <pt x="1230" y="192" on="1"/>
        <pt x="1331" y="201" on="1"/>
        <pt x="1331" y="97" on="0"/>
        <pt x="1217" y="-24" on="0"/>
        <pt x="1113" y="-24" on="1"/>
        <pt x="1040" y="-24" on="0"/>
        <pt x="946" y="36" on="0"/>
        <pt x="882" y="144" on="0"/>
        <pt x="835" y="294" on="0"/>
        <pt x="810" y="385" on="1"/>
        <pt x="792" y="450" on="0"/>
        <pt x="732" y="552" on="0"/>
        <pt x="704" y="593" on="1"/>
        <pt x="674" y="604" on="0"/>
        <pt x="594" y="614" on="0"/>
        <pt x="543" y="614" on="1"/>
        <pt x="411" y="614" on="1"/>
        <pt x="411" y="151" on="1"/>
        <pt x="411" y="131" on="0"/>
        <pt x="423" y="110" on="0"/>
        <pt x="452" y="101" on="0"/>
        <pt x="501" y="99" on="0"/>
        <pt x="537" y="99" on="1"/>
        <pt x="589" y="99" on="1"/>
        <pt x="589" y="0" on="1"/>
        <pt x="559" y="0" on="0"/>
        <pt x="501" y="0" on="0"/>
        <pt x="440" y="0" on="0"/>
        <pt x="371" y="1" on="0"/>
        <pt x="330" y="2" on="1"/>
        <pt x="286" y="2" on="0"/>
        <pt x="210" y="1" on="0"/>
        <pt x="142" y="1" on="0"/>
        <pt x="78" y="0" on="0"/>
        <pt x="46" y="0" on="1"/>
        <pt x="46" y="99" on="1"/>
        <pt x="96" y="99" on="1"/>
        <pt x="146" y="99" on="0"/>
        <pt x="200" y="107" on="0"/>
        <pt x="225" y="123" on="0"/>
        <pt x="229" y="147" on="0"/>
        <pt x="229" y="163" on="1"/>
        <pt x="229" y="1127" on="1"/>
        <pt x="229" y="1150" on="0"/>
        <pt x="221" y="1176" on="0"/>
        <pt x="185" y="1188" on="0"/>
        <pt x="112" y="1191" on="0"/>
        <pt x="46" y="1191" on="1"/>
        <pt x="46" y="1290" on="1"/>
        <pt x="597" y="1290" on="1"/>
        <pt x="706" y="1290" on="0"/>
        <pt x="895" y="1263" on="0"/>
        <pt x="1033" y="1190" on="0"/>
        <pt x="1112" y="1060" on="0"/>
        <pt x="1112" y="958" on="1"/>
        <pt x="1112" y="838" on="0"/>
        <pt x="965" y="678" on="0"/>
        <pt x="829" y="649" on="1"/>
        <pt x="859" y="626" on="0"/>
        <pt x="911" y="575" on="0"/>
        <pt x="957" y="506" on="0"/>
        <pt x="994" y="413" on="0"/>
      </contour>
      <contour>
        <pt x="411" y="711" on="1"/>
        <pt x="629" y="711" on="1"/>
        <pt x="710" y="711" on="0"/>
        <pt x="825" y="737" on="0"/>
        <pt x="897" y="793" on="0"/>
        <pt x="931" y="883" on="0"/>
        <pt x="931" y="947" on="1"/>
        <pt x="931" y="1020" on="0"/>
        <pt x="883" y="1112" on="0"/>
        <pt x="790" y="1163" on="0"/>
        <pt x="654" y="1182" on="0"/>
        <pt x="566" y="1182" on="1"/>
        <pt x="411" y="1182" on="1"/>
      </contour>
    </TTGlyph>
    <TTGlyph name="S" xMin="100" yMin="-24" xMax="1040" yMax="1314">
      <contour>
        <pt x="986" y="941" on="1"/>
        <pt x="869" y="941" on="1"/>
        <pt x="868" y="952" on="0"/>
        <pt x="867" y="972" on="0"/>
        <pt x="867" y="982" on="1"/>
        <pt x="865" y="1034" on="0"/>
        <pt x="819" y="1118" on="0"/>
        <pt x="736" y="1176" on="0"/>
        <pt x="622" y="1208" on="0"/>
        <pt x="552" y="1208" on="1"/>
        <pt x="489" y="1208" on="0"/>
        <pt x="388" y="1177" on="0"/>
        <pt x="318" y="1121" on="0"/>
        <pt x="281" y="1044" on="0"/>
        <pt x="281" y="999" on="1"/>
        <pt x="281" y="951" on="0"/>
        <pt x="319" y="881" on="0"/>
        <pt x="385" y="827" on="0"/>
        <pt x="476" y="786" on="0"/>
        <pt x="582" y="749" on="0"/>
        <pt x="700" y="711" on="0"/>
        <pt x="760" y="689" on="1"/>
        <pt x="822" y="665" on="0"/>
        <pt x="925" y="604" on="0"/>
        <pt x="999" y="522" on="0"/>
        <pt x="1040" y="417" on="0"/>
        <pt x="1040" y="349" on="1"/>
        <pt x="1040" y="270" on="0"/>
        <pt x="979" y="134" on="0"/>
        <pt x="868" y="33" on="0"/>
        <pt x="711" y="-24" on="0"/>
        <pt x="615" y="-24" on="1"/>
        <pt x="480" y="-24" on="0"/>
        <pt x="285" y="51" on="0"/>
        <pt x="232" y="117" on="1"/>
        <pt x="232" y="0" on="1"/>
        <pt x="100" y="0" on="1"/>
        <pt x="100" y="408" on="1"/>
        <pt x="220" y="408" on="1"/>
        <pt x="220" y="336" on="0"/>
        <pt x="258" y="218" on="0"/>
        <pt x="340" y="134" on="0"/>
        <pt x="469" y="88" on="0"/>
        <pt x="560" y="88" on="1"/>
        <pt x="626" y="88" on="0"/>
        <pt x="736" y="122" on="0"/>
        <pt x="815" y="185" on="0"/>
        <pt x="859" y="274" on="0"/>
        <pt x="859" y="329" on="1"/>
        <pt x="859" y="401" on="0"/>
        <pt x="781" y="492" on="0"/>
        <pt x="653" y="556" on="0"/>
        <pt x="490" y="607" on="0"/>
        <pt x="406" y="639" on="1"/>
        <pt x="332" y="667" on="0"/>
        <pt x="220" y="732" on="0"/>
        <pt x="145" y="812" on="0"/>
        <pt x="107" y="912" on="0"/>
        <pt x="107" y="975" on="1"/>
        <pt x="107" y="1046" on="0"/>
        <pt x="163" y="1170" on="0"/>
        <pt x="269" y="1261" on="0"/>
        <pt x="421" y="1314" on="0"/>
        <pt x="517" y="1314" on="1"/>
        <pt x="566" y="1314" on="0"/>
        <pt x="657" y="1304" on="0"/>
        <pt x="742" y="1279" on="0"/>
        <pt x="822" y="1236" on="0"/>
        <pt x="862" y="1202" on="1"/>
        <pt x="862" y="1285" on="1"/>
        <pt x="886" y="1285" on="0"/>
        <pt x="954" y="1284" on="0"/>
        <pt x="986" y="1284" on="1"/>
      </contour>
    </TTGlyph>
    <TTGlyph name="Scaron" xMin="100" yMin="-24" xMax="1040" yMax="1746">
      <component glyphName="caron" x="141" y="395" flags="0x1004"/>
      <component glyphName="S" x="0" y="0" flags="0x1004"/>
    </TTGlyph>
    <TTGlyph name="T" xMin="47" yMin="0" xMax="1175" yMax="1290">
      <contour>
        <pt x="47" y="1290" on="1"/>
        <pt x="47" y="1290" on="0"/>
        <pt x="94" y="1289" on="0"/>
        <pt x="169" y="1289" on="0"/>
        <pt x="261" y="1288" on="0"/>
        <pt x="350" y="1288" on="0"/>
        <pt x="425" y="1288" on="0"/>
        <pt x="447" y="1288" on="1"/>
        <pt x="833" y="1288" on="1"/>
        <pt x="867" y="1288" on="0"/>
        <pt x="958" y="1289" on="0"/>
        <pt x="1052" y="1289" on="0"/>
        <pt x="1141" y="1290" on="0"/>
        <pt x="1175" y="1290" on="1"/>
        <pt x="1175" y="904" on="1"/>
        <pt x="1069" y="904" on="1"/>
        <pt x="1069" y="1110" on="1"/>
        <pt x="1069" y="1131" on="0"/>
        <pt x="1063" y="1157" on="0"/>
        <pt x="1032" y="1171" on="0"/>
        <pt x="966" y="1176" on="0"/>
        <pt x="906" y="1176" on="1"/>
        <pt x="704" y="1176" on="1"/>
        <pt x="704" y="157" on="1"/>
        <pt x="704" y="140" on="0"/>
        <pt x="708" y="118" on="0"/>
        <pt x="732" y="105" on="0"/>
        <pt x="782" y="99" on="0"/>
        <pt x="828" y="99" on="1"/>
        <pt x="884" y="99" on="1"/>
        <pt x="884" y="0" on="1"/>
        <pt x="855" y="0" on="0"/>
        <pt x="799" y="0" on="0"/>
        <pt x="738" y="0" on="0"/>
        <pt x="669" y="1" on="0"/>
        <pt x="627" y="2" on="1"/>
        <pt x="623" y="2" on="0"/>
        <pt x="587" y="2" on="0"/>
        <pt x="536" y="1" on="0"/>
        <pt x="475" y="1" on="0"/>
        <pt x="414" y="0" on="0"/>
        <pt x="360" y="0" on="0"/>
        <pt x="342" y="0" on="1"/>
        <pt x="342" y="99" on="1"/>
        <pt x="397" y="99" on="1"/>
        <pt x="444" y="99" on="0"/>
        <pt x="495" y="110" on="0"/>
        <pt x="518" y="129" on="0"/>
        <pt x="522" y="154" on="0"/>
        <pt x="522" y="168" on="1"/>
        <pt x="522" y="1176" on="1"/>
        <pt x="305" y="1176" on="1"/>
        <pt x="249" y="1176" on="0"/>
        <pt x="187" y="1169" on="0"/>
        <pt x="157" y="1156" on="0"/>
        <pt x="151" y="1135" on="0"/>
        <pt x="151" y="1121" on="1"/>
        <pt x="151" y="1098" on="0"/>
        <pt x="151" y="1043" on="0"/>
        <pt x="152" y="985" on="0"/>
        <pt x="152" y="928" on="0"/>
        <pt x="152" y="904" on="1"/>
        <pt x="47" y="904" on="1"/>
      </contour>
    </TTGlyph>
    <TTGlyph name="Thorn" xMin="57" yMin="0" xMax="1119" yMax="1290">
      <contour>
        <pt x="57" y="1290" on="1"/>
        <pt x="88" y="1290" on="0"/>
        <pt x="163" y="1289" on="0"/>
        <pt x="241" y="1289" on="0"/>
        <pt x="321" y="1288" on="0"/>
        <pt x="357" y="1288" on="1"/>
        <pt x="415" y="1288" on="0"/>
        <pt x="534" y="1288" on="0"/>
        <pt x="593" y="1290" on="1"/>
        <pt x="593" y="1205" on="1"/>
        <pt x="544" y="1205" on="1"/>
        <pt x="514" y="1205" on="0"/>
        <pt x="466" y="1203" on="0"/>
        <pt x="433" y="1193" on="0"/>
        <pt x="416" y="1174" on="0"/>
        <pt x="416" y="1156" on="1"/>
        <pt x="416" y="1032" on="1"/>
        <pt x="649" y="1032" on="1"/>
        <pt x="770" y="1032" on="0"/>
        <pt x="947" y="977" on="0"/>
        <pt x="1063" y="879" on="0"/>
        <pt x="1119" y="743" on="0"/>
        <pt x="1119" y="663" on="1"/>
        <pt x="1119" y="575" on="0"/>
        <pt x="1065" y="437" on="0"/>
        <pt x="945" y="342" on="0"/>
        <pt x="755" y="292" on="0"/>
        <pt x="619" y="292" on="1"/>
        <pt x="416" y="292" on="1"/>
        <pt x="416" y="148" on="1"/>
        <pt x="416" y="128" on="0"/>
        <pt x="420" y="104" on="0"/>
        <pt x="444" y="90" on="0"/>
        <pt x="496" y="86" on="0"/>
        <pt x="544" y="86" on="1"/>
        <pt x="593" y="86" on="1"/>
        <pt x="593" y="0" on="1"/>
        <pt x="566" y="0" on="0"/>
        <pt x="514" y="0" on="0"/>
        <pt x="457" y="0" on="0"/>
        <pt x="393" y="1" on="0"/>
        <pt x="354" y="2" on="1"/>
        <pt x="307" y="2" on="0"/>
        <pt x="229" y="1" on="0"/>
        <pt x="159" y="1" on="0"/>
        <pt x="92" y="0" on="0"/>
        <pt x="57" y="0" on="1"/>
        <pt x="57" y="86" on="1"/>
        <pt x="106" y="86" on="1"/>
        <pt x="154" y="86" on="0"/>
        <pt x="206" y="99" on="0"/>
        <pt x="230" y="120" on="0"/>
        <pt x="234" y="146" on="0"/>
        <pt x="234" y="158" on="1"/>
        <pt x="234" y="1166" on="1"/>
        <pt x="234" y="1188" on="0"/>
        <pt x="174" y="1205" on="0"/>
        <pt x="110" y="1205" on="1"/>
        <pt x="57" y="1205" on="1"/>
      </contour>
      <contour>
        <pt x="416" y="396" on="1"/>
        <pt x="606" y="396" on="1"/>
        <pt x="696" y="396" on="0"/>
        <pt x="822" y="432" on="0"/>
        <pt x="902" y="499" on="0"/>
        <pt x="939" y="597" on="0"/>
        <pt x="939" y="659" on="1"/>
        <pt x="939" y="791" on="0"/>
        <pt x="781" y="924" on="0"/>
        <pt x="612" y="924" on="1"/>
        <pt x="416" y="924" on="1"/>
      </contour>
    </TTGlyph>
    <TTGlyph name="U" xMin="24" yMin="-24" xMax="1327" yMax="1290">
      <contour>
        <pt x="24" y="1290" on="1"/>
        <pt x="93" y="1288" on="0"/>
        <pt x="250" y="1288" on="0"/>
        <pt x="323" y="1288" on="1"/>
        <pt x="377" y="1288" on="0"/>
        <pt x="481" y="1288" on="0"/>
        <pt x="539" y="1290" on="1"/>
        <pt x="539" y="1191" on="1"/>
        <pt x="492" y="1191" on="1"/>
        <pt x="447" y="1191" on="0"/>
        <pt x="397" y="1181" on="0"/>
        <pt x="374" y="1164" on="0"/>
        <pt x="370" y="1141" on="0"/>
        <pt x="370" y="1128" on="1"/>
        <pt x="370" y="495" on="1"/>
        <pt x="370" y="391" on="0"/>
        <pt x="401" y="239" on="0"/>
        <pt x="476" y="141" on="0"/>
        <pt x="602" y="94" on="0"/>
        <pt x="697" y="94" on="1"/>
        <pt x="799" y="94" on="0"/>
        <pt x="925" y="146" on="0"/>
        <pt x="994" y="247" on="0"/>
        <pt x="1018" y="393" on="0"/>
        <pt x="1018" y="487" on="1"/>
        <pt x="1018" y="1123" on="1"/>
        <pt x="1018" y="1142" on="0"/>
        <pt x="1014" y="1168" on="0"/>
        <pt x="990" y="1184" on="0"/>
        <pt x="938" y="1191" on="0"/>
        <pt x="889" y="1191" on="1"/>
        <pt x="841" y="1191" on="1"/>
        <pt x="841" y="1290" on="1"/>
        <pt x="876" y="1288" on="0"/>
        <pt x="961" y="1288" on="0"/>
        <pt x="1004" y="1288" on="1"/>
        <pt x="1034" y="1288" on="0"/>
        <pt x="1086" y="1289" on="0"/>
        <pt x="1155" y="1289" on="0"/>
        <pt x="1252" y="1290" on="0"/>
        <pt x="1327" y="1290" on="1"/>
        <pt x="1327" y="1191" on="1"/>
        <pt x="1276" y="1191" on="1"/>
        <pt x="1233" y="1191" on="0"/>
        <pt x="1188" y="1180" on="0"/>
        <pt x="1167" y="1162" on="0"/>
        <pt x="1164" y="1140" on="0"/>
        <pt x="1164" y="1128" on="1"/>
        <pt x="1164" y="493" on="1"/>
        <pt x="1164" y="362" on="0"/>
        <pt x="1113" y="167" on="0"/>
        <pt x="999" y="39" on="0"/>
        <pt x="816" y="-24" on="0"/>
        <pt x="685" y="-24" on="1"/>
        <pt x="542" y="-24" on="0"/>
        <pt x="351" y="40" on="0"/>
        <pt x="237" y="169" on="0"/>
        <pt x="189" y="361" on="0"/>
        <pt x="189" y="490" on="1"/>
        <pt x="189" y="1134" on="1"/>
        <pt x="189" y="1150" on="0"/>
        <pt x="185" y="1171" on="0"/>
        <pt x="163" y="1185" on="0"/>
        <pt x="116" y="1191" on="0"/>
        <pt x="74" y="1191" on="1"/>
        <pt x="24" y="1191" on="1"/>
      </contour>
    </TTGlyph>
    <TTGlyph name="Uacute" xMin="24" yMin="-24" xMax="1327" yMax="1749">
      <component glyphName="acute" x="212" y="395" flags="0x1004"/>
      <component glyphName="U" x="0" y="0" flags="0x1004"/>
    </TTGlyph>
    <TTGlyph name="Ucircumflex" xMin="24" yMin="-24" xMax="1327" yMax="1745">
      <component glyphName="circumflex" x="249" y="395" flags="0x1004"/>
      <component glyphName="U" x="0" y="0" flags="0x1004"/>
    </TTGlyph>
    <TTGlyph name="Udieresis" xMin="24" yMin="-24" xMax="1327" yMax="1669">
      <component glyphName="dieresis" x="249" y="395" flags="0x1004"/>
      <component glyphName="U" x="0" y="0" flags="0x1004"/>
    </TTGlyph>
    <TTGlyph name="Ugrave" xMin="24" yMin="-24" xMax="1327" yMax="1757">
      <component glyphName="U" x="0" y="0" flags="0x1204"/>
      <component glyphName="grave" x="290" y="395" flags="0x1004"/>
    </TTGlyph>
    <TTGlyph name="V" xMin="-14" yMin="-13" xMax="1356" yMax="1290">
      <contour>
        <pt x="335" y="1088" on="1"/>
        <pt x="335" y="1086" on="0"/>
        <pt x="356" y="1033" on="0"/>
        <pt x="391" y="943" on="0"/>
        <pt x="437" y="824" on="0"/>
        <pt x="489" y="691" on="0"/>
        <pt x="544" y="551" on="0"/>
        <pt x="596" y="418" on="0"/>
        <pt x="642" y="299" on="0"/>
        <pt x="677" y="210" on="0"/>
        <pt x="698" y="156" on="0"/>
        <pt x="698" y="155" on="1"/>
        <pt x="1039" y="1085" on="1"/>
        <pt x="1048" y="1110" on="0"/>
        <pt x="1059" y="1144" on="0"/>
        <pt x="1059" y="1156" on="1"/>
        <pt x="1059" y="1180" on="0"/>
        <pt x="1011" y="1191" on="0"/>
        <pt x="956" y="1191" on="1"/>
        <pt x="894" y="1191" on="1"/>
        <pt x="894" y="1290" on="1"/>
        <pt x="946" y="1289" on="0"/>
        <pt x="992" y="1288" on="1"/>
        <pt x="1031" y="1287" on="0"/>
        <pt x="1107" y="1287" on="0"/>
        <pt x="1124" y="1287" on="1"/>
        <pt x="1179" y="1287" on="0"/>
        <pt x="1296" y="1289" on="0"/>
        <pt x="1356" y="1290" on="1"/>
        <pt x="1356" y="1191" on="1"/>
        <pt x="1322" y="1191" on="0"/>
        <pt x="1275" y="1187" on="0"/>
        <pt x="1238" y="1170" on="0"/>
        <pt x="1209" y="1136" on="0"/>
        <pt x="1179" y="1075" on="0"/>
        <pt x="1144" y="984" on="0"/>
        <pt x="1120" y="919" on="1"/>
        <pt x="772" y="-13" on="1"/>
        <pt x="594" y="-13" on="1"/>
        <pt x="161" y="1073" on="1"/>
        <pt x="144" y="1114" on="0"/>
        <pt x="121" y="1161" on="0"/>
        <pt x="86" y="1185" on="0"/>
        <pt x="32" y="1191" on="0"/>
        <pt x="-14" y="1191" on="1"/>
        <pt x="-14" y="1290" on="1"/>
        <pt x="22" y="1288" on="0"/>
        <pt x="108" y="1286" on="0"/>
        <pt x="144" y="1286" on="1"/>
        <pt x="159" y="1286" on="0"/>
        <pt x="203" y="1286" on="0"/>
        <pt x="256" y="1287" on="0"/>
        <pt x="313" y="1288" on="0"/>
        <pt x="341" y="1288" on="1"/>
        <pt x="406" y="1289" on="0"/>
        <pt x="478" y="1290" on="1"/>
        <pt x="478" y="1191" on="1"/>
        <pt x="438" y="1191" on="0"/>
        <pt x="379" y="1190" on="0"/>
        <pt x="340" y="1181" on="0"/>
        <pt x="321" y="1162" on="0"/>
        <pt x="321" y="1145" on="1"/>
        <pt x="321" y="1123" on="0"/>
      </contour>
    </TTGlyph>
    <TTGlyph name="W" xMin="-10" yMin="-13" xMax="1920" yMax="1290">
      <contour>
        <pt x="163" y="1055" on="1"/>
        <pt x="149" y="1104" on="0"/>
        <pt x="129" y="1159" on="0"/>
        <pt x="96" y="1186" on="0"/>
        <pt x="41" y="1191" on="0"/>
        <pt x="-9" y="1191" on="1"/>
        <pt x="-10" y="1213" on="0"/>
        <pt x="-10" y="1232" on="1"/>
        <pt x="-10" y="1290" on="1"/>
        <pt x="49" y="1289" on="0"/>
        <pt x="99" y="1288" on="1"/>
        <pt x="120" y="1288" on="0"/>
        <pt x="164" y="1287" on="0"/>
        <pt x="203" y="1287" on="0"/>
        <pt x="234" y="1287" on="0"/>
        <pt x="243" y="1287" on="1"/>
        <pt x="286" y="1287" on="0"/>
        <pt x="404" y="1290" on="0"/>
        <pt x="475" y="1290" on="1"/>
        <pt x="475" y="1191" on="1"/>
        <pt x="433" y="1191" on="0"/>
        <pt x="373" y="1188" on="0"/>
        <pt x="335" y="1177" on="0"/>
        <pt x="318" y="1154" on="0"/>
        <pt x="318" y="1135" on="1"/>
        <pt x="318" y="1121" on="0"/>
        <pt x="326" y="1088" on="0"/>
        <pt x="332" y="1065" on="1"/>
        <pt x="361" y="960" on="0"/>
        <pt x="424" y="726" on="0"/>
        <pt x="488" y="488" on="0"/>
        <pt x="551" y="254" on="0"/>
        <pt x="580" y="149" on="1"/>
        <pt x="866" y="1275" on="1"/>
        <pt x="1054" y="1275" on="1"/>
        <pt x="1360" y="147" on="1"/>
        <pt x="1607" y="1071" on="1"/>
        <pt x="1613" y="1094" on="0"/>
        <pt x="1621" y="1128" on="0"/>
        <pt x="1622" y="1142" on="1"/>
        <pt x="1622" y="1158" on="0"/>
        <pt x="1607" y="1178" on="0"/>
        <pt x="1569" y="1188" on="0"/>
        <pt x="1507" y="1191" on="0"/>
        <pt x="1461" y="1191" on="1"/>
        <pt x="1461" y="1290" on="1"/>
        <pt x="1534" y="1290" on="0"/>
        <pt x="1654" y="1288" on="0"/>
        <pt x="1696" y="1288" on="1"/>
        <pt x="1746" y="1288" on="0"/>
        <pt x="1863" y="1288" on="0"/>
        <pt x="1920" y="1290" on="1"/>
        <pt x="1920" y="1191" on="1"/>
        <pt x="1874" y="1191" on="0"/>
        <pt x="1818" y="1186" on="0"/>
        <pt x="1781" y="1161" on="0"/>
        <pt x="1756" y="1108" on="0"/>
        <pt x="1742" y="1060" on="1"/>
        <pt x="1741" y="1057" on="0"/>
        <pt x="1715" y="966" on="0"/>
        <pt x="1674" y="820" on="0"/>
        <pt x="1622" y="636" on="0"/>
        <pt x="1566" y="441" on="0"/>
        <pt x="1513" y="253" on="0"/>
        <pt x="1469" y="100" on="0"/>
        <pt x="1440" y="-2" on="0"/>
        <pt x="1437" y="-13" on="1"/>
        <pt x="1257" y="-13" on="1"/>
        <pt x="957" y="1141" on="1"/>
        <pt x="658" y="-13" on="1"/>
        <pt x="472" y="-13" on="1"/>
      </contour>
    </TTGlyph>
    <TTGlyph name="X" xMin="28" yMin="0" xMax="1376" yMax="1290">
      <contour>
        <pt x="33" y="1290" on="1"/>
        <pt x="76" y="1288" on="0"/>
        <pt x="151" y="1287" on="0"/>
        <pt x="226" y="1286" on="0"/>
        <pt x="307" y="1286" on="0"/>
        <pt x="357" y="1286" on="1"/>
        <pt x="402" y="1286" on="0"/>
        <pt x="509" y="1290" on="0"/>
        <pt x="566" y="1290" on="1"/>
        <pt x="566" y="1191" on="1"/>
        <pt x="510" y="1191" on="1"/>
        <pt x="463" y="1191" on="0"/>
        <pt x="416" y="1183" on="0"/>
        <pt x="416" y="1165" on="1"/>
        <pt x="416" y="1152" on="0"/>
        <pt x="442" y="1110" on="0"/>
        <pt x="467" y="1078" on="1"/>
        <pt x="703" y="767" on="1"/>
        <pt x="703" y="768" on="0"/>
        <pt x="729" y="804" on="0"/>
        <pt x="772" y="862" on="0"/>
        <pt x="826" y="935" on="0"/>
        <pt x="881" y="1010" on="0"/>
        <pt x="931" y="1080" on="0"/>
        <pt x="949" y="1106" on="1"/>
        <pt x="966" y="1131" on="0"/>
        <pt x="987" y="1160" on="0"/>
        <pt x="987" y="1165" on="1"/>
        <pt x="987" y="1172" on="0"/>
        <pt x="972" y="1182" on="0"/>
        <pt x="936" y="1188" on="0"/>
        <pt x="877" y="1191" on="0"/>
        <pt x="832" y="1191" on="1"/>
        <pt x="832" y="1290" on="1"/>
        <pt x="838" y="1290" on="0"/>
        <pt x="878" y="1289" on="0"/>
        <pt x="931" y="1287" on="0"/>
        <pt x="992" y="1286" on="0"/>
        <pt x="1019" y="1286" on="1"/>
        <pt x="1064" y="1286" on="0"/>
        <pt x="1144" y="1287" on="0"/>
        <pt x="1221" y="1288" on="0"/>
        <pt x="1298" y="1290" on="0"/>
        <pt x="1339" y="1290" on="1"/>
        <pt x="1338" y="1194" on="1"/>
        <pt x="1287" y="1194" on="0"/>
        <pt x="1219" y="1188" on="0"/>
        <pt x="1172" y="1170" on="0"/>
        <pt x="1139" y="1139" on="0"/>
        <pt x="1123" y="1114" on="1"/>
        <pt x="1123" y="1114" on="0"/>
        <pt x="1094" y="1075" on="0"/>
        <pt x="1047" y="1013" on="0"/>
        <pt x="987" y="934" on="0"/>
        <pt x="956" y="892" on="1"/>
        <pt x="790" y="670" on="1"/>
        <pt x="1108" y="257" on="1"/>
        <pt x="1145" y="208" on="0"/>
        <pt x="1196" y="146" on="0"/>
        <pt x="1250" y="111" on="0"/>
        <pt x="1320" y="98" on="0"/>
        <pt x="1376" y="98" on="1"/>
        <pt x="1376" y="0" on="1"/>
        <pt x="1344" y="0" on="0"/>
        <pt x="1284" y="1" on="0"/>
        <pt x="1221" y="1" on="0"/>
        <pt x="1150" y="2" on="0"/>
        <pt x="1107" y="2" on="1"/>
        <pt x="1063" y="2" on="0"/>
        <pt x="989" y="1" on="0"/>
        <pt x="923" y="1" on="0"/>
        <pt x="860" y="0" on="0"/>
        <pt x="827" y="0" on="1"/>
        <pt x="827" y="24" on="0"/>
        <pt x="826" y="73" on="0"/>
        <pt x="826" y="98" on="1"/>
        <pt x="906" y="98" on="0"/>
        <pt x="978" y="115" on="0"/>
        <pt x="978" y="139" on="1"/>
        <pt x="978" y="155" on="0"/>
        <pt x="944" y="206" on="0"/>
        <pt x="918" y="241" on="1"/>
        <pt x="682" y="552" on="1"/>
        <pt x="458" y="248" on="1"/>
        <pt x="424" y="202" on="0"/>
        <pt x="389" y="147" on="0"/>
        <pt x="389" y="131" on="1"/>
        <pt x="389" y="106" on="0"/>
        <pt x="468" y="98" on="0"/>
        <pt x="552" y="98" on="1"/>
        <pt x="552" y="0" on="1"/>
        <pt x="541" y="0" on="0"/>
        <pt x="474" y="1" on="0"/>
        <pt x="388" y="1" on="0"/>
        <pt x="298" y="2" on="0"/>
        <pt x="265" y="2" on="1"/>
        <pt x="231" y="2" on="0"/>
        <pt x="173" y="1" on="0"/>
        <pt x="118" y="1" on="0"/>
        <pt x="61" y="0" on="0"/>
        <pt x="28" y="0" on="1"/>
        <pt x="28" y="99" on="1"/>
        <pt x="68" y="99" on="0"/>
        <pt x="126" y="103" on="0"/>
        <pt x="177" y="125" on="0"/>
        <pt x="230" y="173" on="0"/>
        <pt x="265" y="218" on="1"/>
        <pt x="594" y="648" on="1"/>
        <pt x="295" y="1040" on="1"/>
        <pt x="252" y="1096" on="0"/>
        <pt x="200" y="1157" on="0"/>
        <pt x="150" y="1186" on="0"/>
        <pt x="87" y="1191" on="0"/>
        <pt x="33" y="1191" on="1"/>
      </contour>
    </TTGlyph>
    <TTGlyph name="Y" xMin="-7" yMin="0" xMax="1265" yMax="1290">
      <contour>
        <pt x="-7" y="1290" on="1"/>
        <pt x="22" y="1288" on="0"/>
        <pt x="97" y="1287" on="0"/>
        <pt x="128" y="1287" on="1"/>
        <pt x="170" y="1287" on="0"/>
        <pt x="250" y="1288" on="0"/>
        <pt x="339" y="1289" on="0"/>
        <pt x="442" y="1290" on="0"/>
        <pt x="508" y="1290" on="1"/>
        <pt x="508" y="1191" on="1"/>
        <pt x="470" y="1191" on="1"/>
        <pt x="404" y="1191" on="0"/>
        <pt x="346" y="1184" on="0"/>
        <pt x="346" y="1164" on="1"/>
        <pt x="348" y="1150" on="0"/>
        <pt x="372" y="1105" on="0"/>
        <pt x="392" y="1073" on="1"/>
        <pt x="393" y="1071" on="0"/>
        <pt x="432" y="1010" on="0"/>
        <pt x="488" y="920" on="0"/>
        <pt x="553" y="817" on="0"/>
        <pt x="609" y="727" on="0"/>
        <pt x="647" y="666" on="0"/>
        <pt x="648" y="664" on="1"/>
        <pt x="903" y="1067" on="1"/>
        <pt x="926" y="1104" on="0"/>
        <pt x="952" y="1150" on="0"/>
        <pt x="952" y="1164" on="1"/>
        <pt x="952" y="1184" on="0"/>
        <pt x="879" y="1191" on="0"/>
        <pt x="795" y="1191" on="1"/>
        <pt x="795" y="1290" on="1"/>
        <pt x="853" y="1289" on="0"/>
        <pt x="905" y="1289" on="1"/>
        <pt x="927" y="1289" on="0"/>
        <pt x="973" y="1288" on="0"/>
        <pt x="1014" y="1288" on="0"/>
        <pt x="1047" y="1288" on="0"/>
        <pt x="1058" y="1288" on="1"/>
        <pt x="1106" y="1288" on="0"/>
        <pt x="1205" y="1288" on="0"/>
        <pt x="1265" y="1290" on="1"/>
        <pt x="1265" y="1191" on="1"/>
        <pt x="1220" y="1191" on="0"/>
        <pt x="1168" y="1188" on="0"/>
        <pt x="1135" y="1173" on="0"/>
        <pt x="1109" y="1141" on="0"/>
        <pt x="1090" y="1113" on="1"/>
        <pt x="1067" y="1079" on="0"/>
        <pt x="996" y="972" on="0"/>
        <pt x="915" y="849" on="0"/>
        <pt x="833" y="724" on="0"/>
        <pt x="766" y="621" on="0"/>
        <pt x="722" y="552" on="0"/>
        <pt x="719" y="548" on="1"/>
        <pt x="719" y="163" on="1"/>
        <pt x="719" y="143" on="0"/>
        <pt x="726" y="118" on="0"/>
        <pt x="752" y="104" on="0"/>
        <pt x="803" y="99" on="0"/>
        <pt x="848" y="99" on="1"/>
        <pt x="902" y="99" on="1"/>
        <pt x="902" y="0" on="1"/>
        <pt x="840" y="0" on="0"/>
        <pt x="714" y="0" on="0"/>
        <pt x="628" y="2" on="1"/>
        <pt x="551" y="2" on="0"/>
        <pt x="416" y="0" on="0"/>
        <pt x="361" y="0" on="1"/>
        <pt x="361" y="99" on="1"/>
        <pt x="414" y="99" on="1"/>
        <pt x="462" y="99" on="0"/>
        <pt x="514" y="108" on="0"/>
        <pt x="537" y="125" on="0"/>
        <pt x="541" y="147" on="0"/>
        <pt x="541" y="161" on="1"/>
        <pt x="541" y="550" on="1"/>
        <pt x="539" y="553" on="0"/>
        <pt x="509" y="600" on="0"/>
        <pt x="461" y="673" on="0"/>
        <pt x="402" y="764" on="0"/>
        <pt x="341" y="859" on="0"/>
        <pt x="282" y="950" on="0"/>
        <pt x="234" y="1023" on="0"/>
        <pt x="204" y="1070" on="0"/>
        <pt x="202" y="1073" on="1"/>
        <pt x="175" y="1116" on="0"/>
        <pt x="140" y="1163" on="0"/>
        <pt x="100" y="1186" on="0"/>
        <pt x="43" y="1191" on="0"/>
        <pt x="-6" y="1191" on="1"/>
        <pt x="-6" y="1216" on="0"/>
        <pt x="-7" y="1266" on="0"/>
      </contour>
    </TTGlyph>
    <TTGlyph name="Yacute" xMin="-7" yMin="0" xMax="1265" yMax="1749">
      <component glyphName="Y" x="0" y="0" flags="0x1204"/>
      <component glyphName="acute" x="168" y="395" flags="0x1004"/>
    </TTGlyph>
    <TTGlyph name="Ydieresis" xMin="-7" yMin="0" xMax="1265" yMax="1669">
      <component glyphName="Y" x="0" y="0" flags="0x1204"/>
      <component glyphName="dieresis" x="202" y="395" flags="0x1004"/>
    </TTGlyph>
    <TTGlyph name="Z" xMin="59" yMin="0" xMax="1088" yMax="1288">
      <contour>
        <pt x="1061" y="1288" on="1"/>
        <pt x="1061" y="1152" on="1"/>
        <pt x="252" y="110" on="1"/>
        <pt x="907" y="110" on="1"/>
        <pt x="931" y="110" on="0"/>
        <pt x="958" y="130" on="0"/>
        <pt x="972" y="186" on="0"/>
        <pt x="975" y="283" on="0"/>
        <pt x="975" y="361" on="1"/>
        <pt x="1088" y="361" on="1"/>
        <pt x="1088" y="0" on="1"/>
        <pt x="59" y="0" on="1"/>
        <pt x="59" y="134" on="1"/>
        <pt x="868" y="1179" on="1"/>
        <pt x="360" y="1179" on="1"/>
        <pt x="307" y="1179" on="0"/>
        <pt x="243" y="1177" on="0"/>
        <pt x="209" y="1164" on="0"/>
        <pt x="199" y="1136" on="0"/>
        <pt x="199" y="1111" on="1"/>
        <pt x="199" y="946" on="1"/>
        <pt x="88" y="946" on="1"/>
        <pt x="88" y="1288" on="1"/>
      </contour>
    </TTGlyph>
    <TTGlyph name="Zcaron" xMin="59" yMin="0" xMax="1088" yMax="1746">
      <component glyphName="caron" x="146" y="395" flags="0x1004"/>
      <component glyphName="Z" x="0" y="0" flags="0x1004"/>
    </TTGlyph>
    <TTGlyph name="a" xMin="84" yMin="-21" xMax="1035" yMax="918">
      <contour>
        <pt x="896" y="224" on="1"/>
        <pt x="896" y="172" on="0"/>
        <pt x="903" y="117" on="0"/>
        <pt x="923" y="92" on="0"/>
        <pt x="960" y="89" on="0"/>
        <pt x="990" y="89" on="1"/>
        <pt x="1035" y="89" on="1"/>
        <pt x="1035" y="0" on="1"/>
        <pt x="956" y="0" on="0"/>
        <pt x="801" y="-2" on="0"/>
        <pt x="734" y="-4" on="1"/>
        <pt x="734" y="133" on="1"/>
        <pt x="674" y="56" on="0"/>
        <pt x="509" y="-21" on="0"/>
        <pt x="399" y="-21" on="1"/>
        <pt x="327" y="-21" on="0"/>
        <pt x="211" y="20" on="0"/>
        <pt x="129" y="92" on="0"/>
        <pt x="84" y="192" on="0"/>
        <pt x="84" y="252" on="1"/>
        <pt x="84" y="316" on="0"/>
        <pt x="136" y="421" on="0"/>
        <pt x="236" y="495" on="0"/>
        <pt x="379" y="536" on="0"/>
        <pt x="471" y="536" on="1"/>
        <pt x="534" y="536" on="0"/>
        <pt x="662" y="517" on="0"/>
        <pt x="728" y="500" on="1"/>
        <pt x="728" y="644" on="1"/>
        <pt x="728" y="735" on="0"/>
        <pt x="607" y="831" on="0"/>
        <pt x="482" y="831" on="1"/>
        <pt x="377" y="831" on="0"/>
        <pt x="258" y="750" on="0"/>
        <pt x="238" y="665" on="1"/>
        <pt x="146" y="676" on="1"/>
        <pt x="159" y="852" on="1"/>
        <pt x="223" y="881" on="0"/>
        <pt x="394" y="918" on="0"/>
        <pt x="501" y="918" on="1"/>
        <pt x="607" y="918" on="0"/>
        <pt x="757" y="880" on="0"/>
        <pt x="852" y="802" on="0"/>
        <pt x="896" y="681" on="0"/>
        <pt x="896" y="599" on="1"/>
      </contour>
      <contour>
        <pt x="509" y="452" on="1"/>
        <pt x="449" y="452" on="0"/>
        <pt x="353" y="425" on="0"/>
        <pt x="286" y="375" on="0"/>
        <pt x="250" y="303" on="0"/>
        <pt x="250" y="257" on="1"/>
        <pt x="250" y="216" on="0"/>
        <pt x="279" y="153" on="0"/>
        <pt x="332" y="109" on="0"/>
        <pt x="406" y="83" on="0"/>
        <pt x="450" y="84" on="1"/>
        <pt x="498" y="83" on="0"/>
        <pt x="597" y="114" on="0"/>
        <pt x="677" y="171" on="0"/>
        <pt x="728" y="258" on="0"/>
        <pt x="728" y="319" on="1"/>
        <pt x="728" y="417" on="1"/>
        <pt x="668" y="434" on="0"/>
        <pt x="560" y="452" on="0"/>
      </contour>
    </TTGlyph>
    <TTGlyph name="aacute" xMin="84" yMin="-21" xMax="1035" yMax="1354">
      <component glyphName="a" x="0" y="0" flags="0x1204"/>
      <component glyphName="acute" x="67" y="0" flags="0x1004"/>
    </TTGlyph>
    <TTGlyph name="acircumflex" xMin="84" yMin="-21" xMax="1035" yMax="1350">
      <component glyphName="a" x="0" y="0" flags="0x1204"/>
      <component glyphName="circumflex" x="103" y="0" flags="0x1004"/>
    </TTGlyph>
    <TTGlyph name="acute" xMin="270" yMin="1029" xMax="652" yMax="1354">
      <contour>
        <pt x="457" y="1271" on="1"/>
        <pt x="469" y="1287" on="0"/>
        <pt x="500" y="1317" on="0"/>
        <pt x="535" y="1340" on="0"/>
        <pt x="572" y="1354" on="0"/>
        <pt x="590" y="1354" on="1"/>
        <pt x="616" y="1354" on="0"/>
        <pt x="652" y="1335" on="0"/>
        <pt x="652" y="1319" on="1"/>
        <pt x="652" y="1305" on="0"/>
        <pt x="637" y="1291" on="1"/>
        <pt x="354" y="1029" on="1"/>
        <pt x="270" y="1029" on="1"/>
      </contour>
    </TTGlyph>
    <TTGlyph name="adieresis" xMin="84" yMin="-21" xMax="1035" yMax="1274">
      <component glyphName="a" x="0" y="0" flags="0x1204"/>
      <component glyphName="dieresis" x="103" y="0" flags="0x1004"/>
    </TTGlyph>
    <TTGlyph name="ae" xMin="85" yMin="-28" xMax="1644" yMax="922">
      <contour>
        <pt x="814" y="171" on="1"/>
        <pt x="772" y="117" on="0"/>
        <pt x="680" y="44" on="0"/>
        <pt x="578" y="-2" on="0"/>
        <pt x="465" y="-22" on="0"/>
        <pt x="402" y="-22" on="1"/>
        <pt x="331" y="-22" on="0"/>
        <pt x="215" y="18" on="0"/>
        <pt x="131" y="90" on="0"/>
        <pt x="85" y="190" on="0"/>
        <pt x="85" y="251" on="1"/>
        <pt x="85" y="315" on="0"/>
        <pt x="138" y="419" on="0"/>
        <pt x="237" y="493" on="0"/>
        <pt x="381" y="534" on="0"/>
        <pt x="472" y="534" on="1"/>
        <pt x="595" y="534" on="0"/>
        <pt x="729" y="499" on="1"/>
        <pt x="729" y="645" on="1"/>
        <pt x="729" y="739" on="0"/>
        <pt x="611" y="836" on="0"/>
        <pt x="484" y="836" on="1"/>
        <pt x="377" y="836" on="0"/>
        <pt x="258" y="755" on="0"/>
        <pt x="240" y="669" on="1"/>
        <pt x="141" y="680" on="1"/>
        <pt x="156" y="856" on="1"/>
        <pt x="307" y="922" on="0"/>
        <pt x="503" y="922" on="1"/>
        <pt x="640" y="922" on="0"/>
        <pt x="811" y="846" on="0"/>
        <pt x="850" y="768" on="1"/>
        <pt x="910" y="840" on="0"/>
        <pt x="1086" y="922" on="0"/>
        <pt x="1195" y="922" on="1"/>
        <pt x="1301" y="922" on="0"/>
        <pt x="1468" y="856" on="0"/>
        <pt x="1582" y="731" on="0"/>
        <pt x="1643" y="550" on="0"/>
        <pt x="1644" y="435" on="1"/>
        <pt x="1582" y="416" on="1"/>
        <pt x="901" y="416" on="1"/>
        <pt x="902" y="336" on="0"/>
        <pt x="949" y="208" on="0"/>
        <pt x="1034" y="117" on="0"/>
        <pt x="1154" y="68" on="0"/>
        <pt x="1228" y="68" on="1"/>
        <pt x="1326" y="68" on="0"/>
        <pt x="1470" y="162" on="0"/>
        <pt x="1511" y="253" on="1"/>
        <pt x="1633" y="234" on="1"/>
        <pt x="1588" y="107" on="0"/>
        <pt x="1367" y="-28" on="0"/>
        <pt x="1205" y="-28" on="1"/>
        <pt x="1073" y="-28" on="0"/>
        <pt x="874" y="75" on="0"/>
      </contour>
      <contour>
        <pt x="729" y="415" on="1"/>
        <pt x="669" y="431" on="0"/>
        <pt x="559" y="449" on="0"/>
        <pt x="508" y="449" on="1"/>
        <pt x="449" y="449" on="0"/>
        <pt x="354" y="423" on="0"/>
        <pt x="287" y="373" on="0"/>
        <pt x="251" y="300" on="0"/>
        <pt x="251" y="254" on="1"/>
        <pt x="251" y="213" on="0"/>
        <pt x="280" y="146" on="0"/>
        <pt x="333" y="98" on="0"/>
        <pt x="407" y="71" on="0"/>
        <pt x="451" y="71" on="1"/>
        <pt x="500" y="71" on="0"/>
        <pt x="599" y="102" on="0"/>
        <pt x="679" y="164" on="0"/>
        <pt x="729" y="258" on="0"/>
        <pt x="729" y="321" on="1"/>
      </contour>
      <contour>
        <pt x="1481" y="506" on="1"/>
        <pt x="1468" y="660" on="0"/>
        <pt x="1325" y="826" on="0"/>
        <pt x="1196" y="826" on="1"/>
        <pt x="1071" y="826" on="0"/>
        <pt x="918" y="660" on="0"/>
        <pt x="901" y="506" on="1"/>
      </contour>
    </TTGlyph>
    <TTGlyph name="agrave" xMin="84" yMin="-21" xMax="1035" yMax="1362">
      <component glyphName="a" x="0" y="0" flags="0x1204"/>
      <component glyphName="grave" x="145" y="0" flags="0x1004"/>
    </TTGlyph>
    <TTGlyph name="ampersand" xMin="111" yMin="-23" xMax="1488" yMax="1370">
      <contour>
        <pt x="1226" y="1126" on="1"/>
        <pt x="1226" y="895" on="1"/>
        <pt x="1466" y="895" on="1"/>
        <pt x="1466" y="800" on="1"/>
        <pt x="1228" y="800" on="1"/>
        <pt x="1228" y="305" on="1"/>
        <pt x="1228" y="254" on="0"/>
        <pt x="1230" y="173" on="0"/>
        <pt x="1247" y="115" on="0"/>
        <pt x="1285" y="84" on="0"/>
        <pt x="1320" y="84" on="1"/>
        <pt x="1335" y="84" on="0"/>
        <pt x="1362" y="95" on="0"/>
        <pt x="1383" y="121" on="0"/>
        <pt x="1396" y="162" on="0"/>
        <pt x="1396" y="192" on="1"/>
        <pt x="1488" y="201" on="1"/>
        <pt x="1488" y="142" on="0"/>
        <pt x="1455" y="58" on="0"/>
        <pt x="1399" y="3" on="0"/>
        <pt x="1325" y="-23" on="0"/>
        <pt x="1284" y="-23" on="1"/>
        <pt x="1206" y="-23" on="0"/>
        <pt x="1114" y="32" on="0"/>
        <pt x="1091" y="83" on="1"/>
        <pt x="983" y="31" on="0"/>
        <pt x="758" y="-20" on="0"/>
        <pt x="649" y="-20" on="1"/>
        <pt x="518" y="-20" on="0"/>
        <pt x="318" y="56" on="0"/>
        <pt x="181" y="183" on="0"/>
        <pt x="111" y="347" on="0"/>
        <pt x="111" y="435" on="1"/>
        <pt x="111" y="494" on="0"/>
        <pt x="144" y="613" on="0"/>
        <pt x="210" y="726" on="0"/>
        <pt x="311" y="827" on="0"/>
        <pt x="379" y="868" on="1"/>
        <pt x="346" y="918" on="0"/>
        <pt x="315" y="1015" on="0"/>
        <pt x="315" y="1062" on="1"/>
        <pt x="315" y="1126" on="0"/>
        <pt x="371" y="1238" on="0"/>
        <pt x="475" y="1322" on="0"/>
        <pt x="623" y="1370" on="0"/>
        <pt x="715" y="1370" on="1"/>
        <pt x="809" y="1370" on="0"/>
        <pt x="960" y="1334" on="0"/>
        <pt x="1018" y="1305" on="1"/>
        <pt x="1031" y="1125" on="1"/>
        <pt x="940" y="1115" on="1"/>
        <pt x="937" y="1157" on="0"/>
        <pt x="903" y="1217" on="0"/>
        <pt x="847" y="1256" on="0"/>
        <pt x="776" y="1274" on="0"/>
        <pt x="737" y="1274" on="1"/>
        <pt x="666" y="1274" on="0"/>
        <pt x="559" y="1239" on="0"/>
        <pt x="487" y="1177" on="0"/>
        <pt x="450" y="1094" on="0"/>
        <pt x="450" y="1045" on="1"/>
        <pt x="450" y="974" on="0"/>
        <pt x="488" y="895" on="1"/>
        <pt x="1078" y="895" on="1"/>
        <pt x="1078" y="900" on="0"/>
        <pt x="1080" y="924" on="0"/>
        <pt x="1083" y="955" on="0"/>
        <pt x="1086" y="992" on="0"/>
        <pt x="1088" y="1010" on="1"/>
        <pt x="1092" y="1052" on="0"/>
        <pt x="1097" y="1103" on="1"/>
      </contour>
      <contour>
        <pt x="479" y="800" on="1"/>
        <pt x="426" y="767" on="0"/>
        <pt x="348" y="683" on="0"/>
        <pt x="296" y="590" on="0"/>
        <pt x="270" y="491" on="0"/>
        <pt x="270" y="442" on="1"/>
        <pt x="270" y="373" on="0"/>
        <pt x="320" y="247" on="0"/>
        <pt x="421" y="149" on="0"/>
        <pt x="571" y="91" on="0"/>
        <pt x="670" y="91" on="1"/>
        <pt x="759" y="91" on="0"/>
        <pt x="958" y="139" on="0"/>
        <pt x="1064" y="191" on="1"/>
        <pt x="1062" y="215" on="0"/>
        <pt x="1060" y="273" on="0"/>
        <pt x="1060" y="302" on="1"/>
        <pt x="1060" y="800" on="1"/>
      </contour>
    </TTGlyph>
    <TTGlyph name="approxequal" xMin="135" yMin="274" xMax="1291" yMax="869">
      <contour>
        <pt x="1291" y="779" on="1"/>
        <pt x="1217" y="704" on="0"/>
        <pt x="1059" y="617" on="0"/>
        <pt x="967" y="617" on="1"/>
        <pt x="914" y="617" on="0"/>
        <pt x="801" y="650" on="0"/>
        <pt x="726" y="680" on="1"/>
        <pt x="686" y="696" on="0"/>
        <pt x="615" y="725" on="0"/>
        <pt x="549" y="747" on="0"/>
        <pt x="489" y="760" on="0"/>
        <pt x="460" y="760" on="1"/>
        <pt x="421" y="760" on="0"/>
        <pt x="350" y="740" on="0"/>
        <pt x="280" y="701" on="0"/>
        <pt x="206" y="645" on="0"/>
        <pt x="164" y="609" on="1"/>
        <pt x="135" y="701" on="1"/>
        <pt x="212" y="779" on="0"/>
        <pt x="380" y="862" on="0"/>
        <pt x="468" y="862" on="1"/>
        <pt x="525" y="862" on="0"/>
        <pt x="648" y="823" on="0"/>
        <pt x="717" y="796" on="1"/>
        <pt x="796" y="762" on="0"/>
        <pt x="913" y="722" on="0"/>
        <pt x="969" y="722" on="1"/>
        <pt x="1008" y="722" on="0"/>
        <pt x="1077" y="738" on="0"/>
        <pt x="1147" y="774" on="0"/>
        <pt x="1219" y="830" on="0"/>
        <pt x="1261" y="869" on="1"/>
      </contour>
      <contour>
        <pt x="1291" y="443" on="1"/>
        <pt x="1216" y="369" on="0"/>
        <pt x="1060" y="284" on="0"/>
        <pt x="966" y="284" on="1"/>
        <pt x="915" y="284" on="0"/>
        <pt x="800" y="315" on="0"/>
        <pt x="727" y="345" on="1"/>
        <pt x="649" y="377" on="0"/>
        <pt x="518" y="424" on="0"/>
        <pt x="461" y="424" on="1"/>
        <pt x="421" y="424" on="0"/>
        <pt x="350" y="404" on="0"/>
        <pt x="280" y="366" on="0"/>
        <pt x="206" y="310" on="0"/>
        <pt x="164" y="274" on="1"/>
        <pt x="135" y="365" on="1"/>
        <pt x="213" y="445" on="0"/>
        <pt x="380" y="528" on="0"/>
        <pt x="468" y="528" on="1"/>
        <pt x="507" y="528" on="0"/>
        <pt x="596" y="507" on="0"/>
        <pt x="687" y="475" on="0"/>
        <pt x="778" y="438" on="0"/>
        <pt x="863" y="406" on="0"/>
        <pt x="939" y="385" on="0"/>
        <pt x="970" y="385" on="1"/>
        <pt x="1008" y="385" on="0"/>
        <pt x="1077" y="403" on="0"/>
        <pt x="1146" y="440" on="0"/>
        <pt x="1219" y="497" on="0"/>
        <pt x="1261" y="536" on="1"/>
      </contour>
    </TTGlyph>
    <TTGlyph name="aring" xMin="84" yMin="-21" xMax="1035" yMax="1428">
      <component glyphName="a" x="0" y="0" flags="0x1204"/>
      <component glyphName="ring" x="103" y="0" flags="0x1004"/>
    </TTGlyph>
    <TTGlyph name="asciicircum" xMin="313" yMin="826" xMax="1386" yMax="1403">
      <contour>
        <pt x="1386" y="850" on="1"/>
        <pt x="1288" y="826" on="1"/>
        <pt x="849" y="1263" on="1"/>
        <pt x="408" y="826" on="1"/>
        <pt x="313" y="850" on="1"/>
        <pt x="795" y="1403" on="1"/>
        <pt x="929" y="1403" on="1"/>
      </contour>
    </TTGlyph>
    <TTGlyph name="asciitilde" xMin="155" yMin="508" xMax="1375" yMax="777">
      <contour>
        <pt x="1375" y="640" on="1"/>
        <pt x="1277" y="571" on="0"/>
        <pt x="1116" y="508" on="0"/>
        <pt x="1038" y="508" on="1"/>
        <pt x="993" y="508" on="0"/>
        <pt x="905" y="528" on="0"/>
        <pt x="854" y="546" on="1"/>
        <pt x="798" y="565" on="0"/>
        <pt x="699" y="604" on="0"/>
        <pt x="609" y="634" on="0"/>
        <pt x="530" y="653" on="0"/>
        <pt x="494" y="653" on="1"/>
        <pt x="456" y="653" on="0"/>
        <pt x="384" y="638" on="0"/>
        <pt x="304" y="604" on="0"/>
        <pt x="212" y="549" on="0"/>
        <pt x="155" y="509" on="1"/>
        <pt x="155" y="646" on="1"/>
        <pt x="252" y="712" on="0"/>
        <pt x="419" y="777" on="0"/>
        <pt x="496" y="777" on="1"/>
        <pt x="526" y="777" on="0"/>
        <pt x="586" y="768" on="0"/>
        <pt x="651" y="751" on="0"/>
        <pt x="725" y="725" on="0"/>
        <pt x="770" y="708" on="1"/>
        <pt x="853" y="676" on="0"/>
        <pt x="984" y="633" on="0"/>
        <pt x="1038" y="633" on="1"/>
        <pt x="1074" y="633" on="0"/>
        <pt x="1146" y="648" on="0"/>
        <pt x="1226" y="681" on="0"/>
        <pt x="1319" y="735" on="0"/>
        <pt x="1375" y="774" on="1"/>
      </contour>
    </TTGlyph>
    <TTGlyph name="asterisk" xMin="126" yMin="415" xMax="816" yMax="1140">
      <contour>
        <pt x="407" y="551" on="1"/>
        <pt x="425" y="589" on="0"/>
        <pt x="444" y="675" on="0"/>
        <pt x="447" y="740" on="1"/>
        <pt x="402" y="707" on="0"/>
        <pt x="339" y="641" on="0"/>
        <pt x="315" y="597" on="1"/>
        <pt x="206" y="514" on="1"/>
        <pt x="126" y="628" on="1"/>
        <pt x="244" y="699" on="1"/>
        <pt x="286" y="707" on="0"/>
        <pt x="371" y="744" on="0"/>
        <pt x="426" y="778" on="1"/>
        <pt x="370" y="813" on="0"/>
        <pt x="286" y="848" on="0"/>
        <pt x="244" y="855" on="1"/>
        <pt x="126" y="927" on="1"/>
        <pt x="206" y="1041" on="1"/>
        <pt x="315" y="958" on="1"/>
        <pt x="339" y="915" on="0"/>
        <pt x="403" y="849" on="0"/>
        <pt x="447" y="818" on="1"/>
        <pt x="444" y="880" on="0"/>
        <pt x="424" y="967" on="0"/>
        <pt x="407" y="1005" on="1"/>
        <pt x="400" y="1140" on="1"/>
        <pt x="542" y="1140" on="1"/>
        <pt x="534" y="1006" on="1"/>
        <pt x="511" y="961" on="0"/>
        <pt x="494" y="875" on="0"/>
        <pt x="491" y="822" on="1"/>
        <pt x="543" y="860" on="0"/>
        <pt x="605" y="924" on="0"/>
        <pt x="626" y="958" on="1"/>
        <pt x="736" y="1041" on="1"/>
        <pt x="816" y="927" on="1"/>
        <pt x="698" y="855" on="1"/>
        <pt x="644" y="849" on="0"/>
        <pt x="555" y="810" on="0"/>
        <pt x="505" y="778" on="1"/>
        <pt x="554" y="746" on="0"/>
        <pt x="645" y="706" on="0"/>
        <pt x="699" y="699" on="1"/>
        <pt x="816" y="628" on="1"/>
        <pt x="736" y="514" on="1"/>
        <pt x="626" y="597" on="1"/>
        <pt x="605" y="632" on="0"/>
        <pt x="544" y="696" on="0"/>
        <pt x="491" y="735" on="1"/>
        <pt x="493" y="682" on="0"/>
        <pt x="511" y="594" on="0"/>
        <pt x="534" y="550" on="1"/>
        <pt x="542" y="415" on="1"/>
        <pt x="407" y="415" on="1"/>
      </contour>
    </TTGlyph>
    <TTGlyph name="at" xMin="68" yMin="-305" xMax="1729" yMax="1386">
      <contour>
        <pt x="1233" y="60" on="1"/>
        <pt x="1156" y="60" on="0"/>
        <pt x="1070" y="135" on="0"/>
        <pt x="1070" y="215" on="1"/>
        <pt x="1070" y="223" on="0"/>
        <pt x="1071" y="240" on="0"/>
        <pt x="1072" y="249" on="1"/>
        <pt x="1071" y="249" on="0"/>
        <pt x="1070" y="250" on="0"/>
        <pt x="1069" y="250" on="1"/>
        <pt x="937" y="61" on="0"/>
        <pt x="753" y="61" on="1"/>
        <pt x="684" y="61" on="0"/>
        <pt x="570" y="115" on="0"/>
        <pt x="488" y="213" on="0"/>
        <pt x="443" y="349" on="0"/>
        <pt x="443" y="430" on="1"/>
        <pt x="443" y="489" on="0"/>
        <pt x="473" y="618" on="0"/>
        <pt x="531" y="743" on="0"/>
        <pt x="615" y="857" on="0"/>
        <pt x="724" y="943" on="0"/>
        <pt x="856" y="994" on="0"/>
        <pt x="933" y="994" on="1"/>
        <pt x="1028" y="994" on="0"/>
        <pt x="1156" y="907" on="0"/>
        <pt x="1192" y="812" on="1"/>
        <pt x="1234" y="978" on="1"/>
        <pt x="1372" y="978" on="1"/>
        <pt x="1219" y="351" on="1"/>
        <pt x="1216" y="333" on="0"/>
        <pt x="1207" y="295" on="0"/>
        <pt x="1199" y="258" on="0"/>
        <pt x="1193" y="224" on="0"/>
        <pt x="1193" y="211" on="1"/>
        <pt x="1193" y="131" on="0"/>
        <pt x="1263" y="131" on="1"/>
        <pt x="1296" y="131" on="0"/>
        <pt x="1380" y="164" on="0"/>
        <pt x="1423" y="196" on="1"/>
        <pt x="1475" y="235" on="0"/>
        <pt x="1561" y="339" on="0"/>
        <pt x="1623" y="468" on="0"/>
        <pt x="1657" y="621" on="0"/>
        <pt x="1657" y="709" on="1"/>
        <pt x="1657" y="827" on="0"/>
        <pt x="1574" y="1047" on="0"/>
        <pt x="1408" y="1216" on="0"/>
        <pt x="1158" y="1317" on="0"/>
        <pt x="990" y="1317" on="1"/>
        <pt x="808" y="1317" on="0"/>
        <pt x="507" y="1193" on="0"/>
        <pt x="292" y="973" on="0"/>
        <pt x="174" y="673" on="0"/>
        <pt x="174" y="496" on="1"/>
        <pt x="174" y="332" on="0"/>
        <pt x="290" y="62" on="0"/>
        <pt x="498" y="-130" on="0"/>
        <pt x="788" y="-236" on="0"/>
        <pt x="962" y="-236" on="1"/>
        <pt x="1137" y="-236" on="0"/>
        <pt x="1456" y="-121" on="0"/>
        <pt x="1592" y="9" on="1"/>
        <pt x="1666" y="-10" on="1"/>
        <pt x="1601" y="-78" on="0"/>
        <pt x="1446" y="-188" on="0"/>
        <pt x="1266" y="-264" on="0"/>
        <pt x="1065" y="-305" on="0"/>
        <pt x="956" y="-305" on="1"/>
        <pt x="755" y="-305" on="0"/>
        <pt x="428" y="-184" on="0"/>
        <pt x="195" y="33" on="0"/>
        <pt x="68" y="333" on="0"/>
        <pt x="68" y="511" on="1"/>
        <pt x="68" y="627" on="0"/>
        <pt x="126" y="847" on="0"/>
        <pt x="235" y="1041" on="0"/>
        <pt x="394" y="1204" on="0"/>
        <pt x="597" y="1321" on="0"/>
        <pt x="840" y="1386" on="0"/>
        <pt x="980" y="1386" on="1"/>
        <pt x="1164" y="1386" on="0"/>
        <pt x="1445" y="1275" on="0"/>
        <pt x="1633" y="1086" on="0"/>
        <pt x="1729" y="836" on="0"/>
        <pt x="1729" y="697" on="1"/>
        <pt x="1729" y="607" on="0"/>
        <pt x="1688" y="443" on="0"/>
        <pt x="1617" y="301" on="0"/>
        <pt x="1522" y="186" on="0"/>
        <pt x="1411" y="104" on="0"/>
        <pt x="1292" y="60" on="0"/>
      </contour>
      <contour>
        <pt x="1143" y="697" on="1"/>
        <pt x="1143" y="747" on="0"/>
        <pt x="1114" y="832" on="0"/>
        <pt x="1061" y="894" on="0"/>
        <pt x="987" y="929" on="0"/>
        <pt x="942" y="929" on="1"/>
        <pt x="888" y="929" on="0"/>
        <pt x="793" y="875" on="0"/>
        <pt x="714" y="786" on="0"/>
        <pt x="652" y="672" on="0"/>
        <pt x="609" y="552" on="0"/>
        <pt x="586" y="434" on="0"/>
        <pt x="586" y="387" on="1"/>
        <pt x="586" y="269" on="0"/>
        <pt x="692" y="137" on="0"/>
        <pt x="783" y="137" on="1"/>
        <pt x="834" y="137" on="0"/>
        <pt x="928" y="190" on="0"/>
        <pt x="1008" y="278" on="0"/>
        <pt x="1073" y="393" on="0"/>
        <pt x="1118" y="517" on="0"/>
        <pt x="1143" y="642" on="0"/>
      </contour>
    </TTGlyph>
    <TTGlyph name="atilde" xMin="84" yMin="-21" xMax="1035" yMax="1295">
      <component glyphName="a" x="0" y="0" flags="0x1204"/>
      <component glyphName="tilde" x="104" y="0" flags="0x1004"/>
    </TTGlyph>
    <TTGlyph name="b" xMin="41" yMin="-21" xMax="1128" yMax="1297">
      <contour>
        <pt x="691" y="-21" on="1"/>
        <pt x="578" y="-21" on="0"/>
        <pt x="409" y="65" on="0"/>
        <pt x="349" y="152" on="1"/>
        <pt x="348" y="-4" on="1"/>
        <pt x="316" y="-3" on="0"/>
        <pt x="229" y="-2" on="0"/>
        <pt x="141" y="-1" on="0"/>
        <pt x="64" y="0" on="0"/>
        <pt x="42" y="0" on="1"/>
        <pt x="42" y="89" on="1"/>
        <pt x="97" y="89" on="0"/>
        <pt x="157" y="97" on="0"/>
        <pt x="184" y="115" on="0"/>
        <pt x="189" y="141" on="0"/>
        <pt x="189" y="159" on="1"/>
        <pt x="189" y="1148" on="1"/>
        <pt x="189" y="1168" on="0"/>
        <pt x="171" y="1189" on="0"/>
        <pt x="134" y="1199" on="0"/>
        <pt x="78" y="1201" on="0"/>
        <pt x="41" y="1202" on="1"/>
        <pt x="41" y="1293" on="1"/>
        <pt x="128" y="1293" on="0"/>
        <pt x="286" y="1295" on="0"/>
        <pt x="358" y="1297" on="1"/>
        <pt x="360" y="757" on="1"/>
        <pt x="417" y="834" on="0"/>
        <pt x="583" y="918" on="0"/>
        <pt x="689" y="918" on="1"/>
        <pt x="788" y="918" on="0"/>
        <pt x="950" y="850" on="0"/>
        <pt x="1065" y="726" on="0"/>
        <pt x="1128" y="555" on="0"/>
        <pt x="1128" y="447" on="1"/>
        <pt x="1128" y="342" on="0"/>
        <pt x="1066" y="170" on="0"/>
        <pt x="952" y="47" on="0"/>
        <pt x="790" y="-21" on="0"/>
      </contour>
      <contour>
        <pt x="655" y="814" on="1"/>
        <pt x="584" y="814" on="0"/>
        <pt x="471" y="762" on="0"/>
        <pt x="392" y="671" on="0"/>
        <pt x="350" y="534" on="0"/>
        <pt x="350" y="448" on="1"/>
        <pt x="350" y="363" on="0"/>
        <pt x="392" y="229" on="0"/>
        <pt x="470" y="135" on="0"/>
        <pt x="582" y="84" on="0"/>
        <pt x="653" y="84" on="1"/>
        <pt x="722" y="84" on="0"/>
        <pt x="834" y="136" on="0"/>
        <pt x="913" y="233" on="0"/>
        <pt x="955" y="368" on="0"/>
        <pt x="955" y="453" on="1"/>
        <pt x="955" y="537" on="0"/>
        <pt x="912" y="667" on="0"/>
        <pt x="834" y="763" on="0"/>
        <pt x="723" y="814" on="0"/>
      </contour>
    </TTGlyph>
    <TTGlyph name="backslash" xMin="-25" yMin="-105" xMax="596" yMax="1304">
      <contour>
        <pt x="99" y="1304" on="1"/>
        <pt x="596" y="-105" on="1"/>
        <pt x="472" y="-105" on="1"/>
        <pt x="-25" y="1304" on="1"/>
      </contour>
    </TTGlyph>
    <TTGlyph name="bar" xMin="453" yMin="-448" xMax="586" yMax="1442">
      <contour>
        <pt x="586" y="-448" on="1"/>
        <pt x="453" y="-448" on="1"/>
        <pt x="453" y="1442" on="1"/>
        <pt x="586" y="1442" on="1"/>
      </contour>
    </TTGlyph>
    <TTGlyph name="braceleft" xMin="132" yMin="-332" xMax="727" yMax="1421">
      <contour>
        <pt x="704" y="-332" on="1"/>
        <pt x="615" y="-332" on="0"/>
        <pt x="487" y="-299" on="0"/>
        <pt x="406" y="-218" on="0"/>
        <pt x="368" y="-81" on="0"/>
        <pt x="368" y="22" on="1"/>
        <pt x="368" y="214" on="1"/>
        <pt x="368" y="282" on="0"/>
        <pt x="345" y="383" on="0"/>
        <pt x="290" y="452" on="0"/>
        <pt x="199" y="490" on="0"/>
        <pt x="132" y="493" on="1"/>
        <pt x="132" y="596" on="1"/>
        <pt x="200" y="599" on="0"/>
        <pt x="291" y="636" on="0"/>
        <pt x="345" y="706" on="0"/>
        <pt x="368" y="810" on="0"/>
        <pt x="368" y="881" on="1"/>
        <pt x="368" y="1067" on="1"/>
        <pt x="368" y="1167" on="0"/>
        <pt x="405" y="1303" on="0"/>
        <pt x="486" y="1386" on="0"/>
        <pt x="613" y="1421" on="0"/>
        <pt x="703" y="1421" on="1"/>
        <pt x="707" y="1421" on="0"/>
        <pt x="722" y="1420" on="0"/>
        <pt x="727" y="1419" on="1"/>
        <pt x="727" y="1325" on="1"/>
        <pt x="662" y="1324" on="0"/>
        <pt x="580" y="1303" on="0"/>
        <pt x="532" y="1245" on="0"/>
        <pt x="514" y="1139" on="0"/>
        <pt x="514" y="1053" on="1"/>
        <pt x="513" y="928" on="0"/>
        <pt x="501" y="755" on="0"/>
        <pt x="454" y="637" on="0"/>
        <pt x="359" y="566" on="0"/>
        <pt x="275" y="545" on="1"/>
        <pt x="344" y="527" on="0"/>
        <pt x="436" y="468" on="0"/>
        <pt x="491" y="375" on="0"/>
        <pt x="514" y="244" on="0"/>
        <pt x="514" y="153" on="1"/>
        <pt x="514" y="69" on="0"/>
        <pt x="517" y="-53" on="0"/>
        <pt x="531" y="-140" on="0"/>
        <pt x="557" y="-194" on="0"/>
        <pt x="605" y="-225" on="0"/>
        <pt x="676" y="-237" on="0"/>
        <pt x="727" y="-238" on="1"/>
        <pt x="727" y="-331" on="1"/>
        <pt x="722" y="-332" on="0"/>
        <pt x="709" y="-332" on="0"/>
      </contour>
    </TTGlyph>
    <TTGlyph name="braceright" xMin="133" yMin="-332" xMax="728" yMax="1421">
      <contour>
        <pt x="492" y="885" on="1"/>
        <pt x="492" y="813" on="0"/>
        <pt x="514" y="708" on="0"/>
        <pt x="568" y="637" on="0"/>
        <pt x="659" y="599" on="0"/>
        <pt x="728" y="596" on="1"/>
        <pt x="728" y="493" on="1"/>
        <pt x="660" y="490" on="0"/>
        <pt x="570" y="452" on="0"/>
        <pt x="515" y="382" on="0"/>
        <pt x="492" y="280" on="0"/>
        <pt x="492" y="211" on="1"/>
        <pt x="492" y="74" on="1"/>
        <pt x="492" y="-43" on="0"/>
        <pt x="461" y="-200" on="0"/>
        <pt x="383" y="-293" on="0"/>
        <pt x="253" y="-332" on="0"/>
        <pt x="154" y="-332" on="1"/>
        <pt x="150" y="-332" on="0"/>
        <pt x="137" y="-332" on="0"/>
        <pt x="133" y="-331" on="1"/>
        <pt x="133" y="-238" on="1"/>
        <pt x="199" y="-237" on="0"/>
        <pt x="281" y="-215" on="0"/>
        <pt x="327" y="-155" on="0"/>
        <pt x="344" y="-46" on="0"/>
        <pt x="345" y="43" on="1"/>
        <pt x="346" y="161" on="0"/>
        <pt x="358" y="330" on="0"/>
        <pt x="405" y="447" on="0"/>
        <pt x="500" y="521" on="0"/>
        <pt x="584" y="544" on="1"/>
        <pt x="510" y="564" on="0"/>
        <pt x="417" y="627" on="0"/>
        <pt x="365" y="726" on="0"/>
        <pt x="346" y="867" on="0"/>
        <pt x="345" y="963" on="1"/>
        <pt x="344" y="1040" on="0"/>
        <pt x="340" y="1154" on="0"/>
        <pt x="326" y="1234" on="0"/>
        <pt x="299" y="1284" on="0"/>
        <pt x="252" y="1313" on="0"/>
        <pt x="182" y="1324" on="0"/>
        <pt x="133" y="1325" on="1"/>
        <pt x="133" y="1420" on="1"/>
        <pt x="137" y="1421" on="0"/>
        <pt x="150" y="1421" on="0"/>
        <pt x="155" y="1421" on="1"/>
        <pt x="243" y="1421" on="0"/>
        <pt x="371" y="1386" on="0"/>
        <pt x="453" y="1305" on="0"/>
        <pt x="492" y="1172" on="0"/>
        <pt x="492" y="1073" on="1"/>
      </contour>
    </TTGlyph>
    <TTGlyph name="bracketleft" xMin="198" yMin="-292" xMax="645" yMax="1290">
      <contour>
        <pt x="645" y="1290" on="1"/>
        <pt x="645" y="1178" on="1"/>
        <pt x="364" y="1178" on="1"/>
        <pt x="364" y="-179" on="1"/>
        <pt x="644" y="-179" on="1"/>
        <pt x="644" y="-292" on="1"/>
        <pt x="198" y="-292" on="1"/>
        <pt x="198" y="1290" on="1"/>
      </contour>
    </TTGlyph>
    <TTGlyph name="bracketright" xMin="48" yMin="-292" xMax="496" yMax="1290">
      <contour>
        <pt x="496" y="1290" on="1"/>
        <pt x="496" y="-292" on="1"/>
        <pt x="48" y="-292" on="1"/>
        <pt x="48" y="-179" on="1"/>
        <pt x="330" y="-179" on="1"/>
        <pt x="330" y="1178" on="1"/>
        <pt x="48" y="1178" on="1"/>
        <pt x="48" y="1290" on="1"/>
      </contour>
    </TTGlyph>
    <TTGlyph name="breve" xMin="121" yMin="1060" xMax="731" yMax="1316">
      <contour>
        <pt x="201" y="1316" on="1"/>
        <pt x="226" y="1245" on="0"/>
        <pt x="337" y="1178" on="0"/>
        <pt x="428" y="1178" on="1"/>
        <pt x="517" y="1178" on="0"/>
        <pt x="625" y="1245" on="0"/>
        <pt x="651" y="1316" on="1"/>
        <pt x="731" y="1316" on="1"/>
        <pt x="705" y="1195" on="0"/>
        <pt x="544" y="1060" on="0"/>
        <pt x="426" y="1060" on="1"/>
        <pt x="368" y="1060" on="0"/>
        <pt x="268" y="1095" on="0"/>
        <pt x="189" y="1161" on="0"/>
        <pt x="134" y="1256" on="0"/>
        <pt x="121" y="1316" on="1"/>
      </contour>
    </TTGlyph>
    <TTGlyph name="brokenbar" xMin="453" yMin="-203" xMax="586" yMax="1457">
      <contour>
        <pt x="586" y="724" on="1"/>
        <pt x="453" y="724" on="1"/>
        <pt x="453" y="1457" on="1"/>
        <pt x="586" y="1457" on="1"/>
      </contour>
      <contour>
        <pt x="586" y="-203" on="1"/>
        <pt x="453" y="-203" on="1"/>
        <pt x="453" y="529" on="1"/>
        <pt x="586" y="529" on="1"/>
      </contour>
    </TTGlyph>
    <TTGlyph name="bullet" xMin="282" yMin="441" xMax="840" yMax="985">
      <contour>
        <pt x="282" y="714" on="1"/>
        <pt x="282" y="770" on="0"/>
        <pt x="326" y="869" on="0"/>
        <pt x="403" y="942" on="0"/>
        <pt x="505" y="985" on="0"/>
        <pt x="562" y="985" on="1"/>
        <pt x="619" y="985" on="0"/>
        <pt x="720" y="942" on="0"/>
        <pt x="796" y="868" on="0"/>
        <pt x="840" y="769" on="0"/>
        <pt x="840" y="714" on="1"/>
        <pt x="840" y="658" on="0"/>
        <pt x="796" y="559" on="0"/>
        <pt x="719" y="485" on="0"/>
        <pt x="618" y="441" on="0"/>
        <pt x="561" y="441" on="1"/>
        <pt x="503" y="441" on="0"/>
        <pt x="402" y="484" on="0"/>
        <pt x="326" y="559" on="0"/>
        <pt x="282" y="658" on="0"/>
      </contour>
    </TTGlyph>
    <TTGlyph name="c" xMin="81" yMin="-21" xMax="940" yMax="918">
      <contour>
        <pt x="912" y="576" on="1"/>
        <pt x="814" y="576" on="1"/>
        <pt x="809" y="697" on="0"/>
        <pt x="676" y="814" on="0"/>
        <pt x="559" y="814" on="1"/>
        <pt x="488" y="814" on="0"/>
        <pt x="376" y="763" on="0"/>
        <pt x="299" y="669" on="0"/>
        <pt x="258" y="533" on="0"/>
        <pt x="258" y="448" on="1"/>
        <pt x="258" y="362" on="0"/>
        <pt x="300" y="233" on="0"/>
        <pt x="379" y="136" on="0"/>
        <pt x="491" y="84" on="0"/>
        <pt x="561" y="84" on="1"/>
        <pt x="661" y="84" on="0"/>
        <pt x="796" y="182" on="0"/>
        <pt x="823" y="280" on="1"/>
        <pt x="940" y="260" on="1"/>
        <pt x="924" y="191" on="0"/>
        <pt x="855" y="84" on="0"/>
        <pt x="753" y="18" on="0"/>
        <pt x="621" y="-21" on="0"/>
        <pt x="542" y="-21" on="1"/>
        <pt x="437" y="-21" on="0"/>
        <pt x="267" y="46" on="0"/>
        <pt x="147" y="162" on="0"/>
        <pt x="81" y="335" on="0"/>
        <pt x="81" y="441" on="1"/>
        <pt x="81" y="541" on="0"/>
        <pt x="145" y="714" on="0"/>
        <pt x="262" y="842" on="0"/>
        <pt x="423" y="918" on="0"/>
        <pt x="521" y="918" on="1"/>
        <pt x="561" y="918" on="0"/>
        <pt x="639" y="908" on="0"/>
        <pt x="710" y="884" on="0"/>
        <pt x="771" y="842" on="0"/>
        <pt x="795" y="811" on="1"/>
        <pt x="820" y="890" on="1"/>
        <pt x="824" y="890" on="0"/>
        <pt x="851" y="889" on="0"/>
        <pt x="881" y="889" on="0"/>
        <pt x="908" y="888" on="0"/>
        <pt x="912" y="888" on="1"/>
      </contour>
    </TTGlyph>
    <TTGlyph name="caron" xMin="124" yMin="1034" xMax="729" yMax="1351">
      <contour>
        <pt x="207" y="1351" on="1"/>
        <pt x="423" y="1153" on="1"/>
        <pt x="644" y="1351" on="1"/>
        <pt x="729" y="1351" on="1"/>
        <pt x="490" y="1034" on="1"/>
        <pt x="354" y="1034" on="1"/>
        <pt x="124" y="1351" on="1"/>
      </contour>
    </TTGlyph>
    <TTGlyph name="ccedilla" xMin="81" yMin="-424" xMax="940" yMax="918">
      <component glyphName="c" x="0" y="0" flags="0x1204"/>
      <component glyphName="cedilla" x="78" y="0" flags="0x1004"/>
    </TTGlyph>
    <TTGlyph name="cedilla" xMin="211" yMin="-424" xMax="644" yMax="-6">
      <contour>
        <pt x="451" y="-6" on="1"/>
        <pt x="445" y="-96" on="1"/>
        <pt x="446" y="-96" on="0"/>
        <pt x="461" y="-95" on="0"/>
        <pt x="466" y="-95" on="1"/>
        <pt x="507" y="-95" on="0"/>
        <pt x="573" y="-119" on="0"/>
        <pt x="619" y="-161" on="0"/>
        <pt x="644" y="-220" on="0"/>
        <pt x="644" y="-255" on="1"/>
        <pt x="644" y="-297" on="0"/>
        <pt x="609" y="-361" on="0"/>
        <pt x="544" y="-403" on="0"/>
        <pt x="453" y="-424" on="0"/>
        <pt x="396" y="-424" on="1"/>
        <pt x="355" y="-424" on="0"/>
        <pt x="268" y="-411" on="0"/>
        <pt x="211" y="-391" on="1"/>
        <pt x="230" y="-320" on="1"/>
        <pt x="272" y="-336" on="0"/>
        <pt x="346" y="-350" on="0"/>
        <pt x="378" y="-350" on="1"/>
        <pt x="444" y="-350" on="0"/>
        <pt x="514" y="-304" on="0"/>
        <pt x="514" y="-256" on="1"/>
        <pt x="514" y="-214" on="0"/>
        <pt x="449" y="-176" on="0"/>
        <pt x="388" y="-174" on="1"/>
        <pt x="383" y="-174" on="0"/>
        <pt x="374" y="-174" on="0"/>
        <pt x="369" y="-175" on="1"/>
        <pt x="383" y="-6" on="1"/>
      </contour>
    </TTGlyph>
    <TTGlyph name="cent" xMin="82" yMin="-201" xMax="962" yMax="1093">
      <contour>
        <pt x="514" y="-27" on="1"/>
        <pt x="415" y="-21" on="0"/>
        <pt x="256" y="52" on="0"/>
        <pt x="143" y="175" on="0"/>
        <pt x="82" y="343" on="0"/>
        <pt x="82" y="445" on="1"/>
        <pt x="82" y="544" on="0"/>
        <pt x="146" y="714" on="0"/>
        <pt x="261" y="840" on="0"/>
        <pt x="419" y="914" on="0"/>
        <pt x="514" y="917" on="1"/>
        <pt x="514" y="1093" on="1"/>
        <pt x="606" y="1093" on="1"/>
        <pt x="606" y="914" on="1"/>
        <pt x="670" y="906" on="0"/>
        <pt x="772" y="863" on="0"/>
        <pt x="810" y="817" on="1"/>
        <pt x="835" y="895" on="1"/>
        <pt x="932" y="895" on="1"/>
        <pt x="932" y="576" on="1"/>
        <pt x="826" y="576" on="1"/>
        <pt x="823" y="692" on="0"/>
        <pt x="688" y="812" on="0"/>
        <pt x="570" y="812" on="1"/>
        <pt x="499" y="812" on="0"/>
        <pt x="387" y="762" on="0"/>
        <pt x="309" y="669" on="0"/>
        <pt x="268" y="535" on="0"/>
        <pt x="268" y="451" on="1"/>
        <pt x="268" y="366" on="0"/>
        <pt x="311" y="230" on="0"/>
        <pt x="390" y="134" on="0"/>
        <pt x="502" y="82" on="0"/>
        <pt x="571" y="82" on="1"/>
        <pt x="671" y="82" on="0"/>
        <pt x="807" y="188" on="0"/>
        <pt x="836" y="286" on="1"/>
        <pt x="962" y="261" on="1"/>
        <pt x="946" y="198" on="0"/>
        <pt x="882" y="96" on="0"/>
        <pt x="791" y="23" on="0"/>
        <pt x="675" y="-20" on="0"/>
        <pt x="606" y="-25" on="1"/>
        <pt x="606" y="-201" on="1"/>
        <pt x="514" y="-201" on="1"/>
      </contour>
    </TTGlyph>
    <TTGlyph name="circumflex" xMin="124" yMin="1033" xMax="729" yMax="1350">
      <contour>
        <pt x="490" y="1350" on="1"/>
        <pt x="729" y="1033" on="1"/>
        <pt x="643" y="1033" on="1"/>
        <pt x="423" y="1228" on="1"/>
        <pt x="207" y="1033" on="1"/>
        <pt x="124" y="1033" on="1"/>
        <pt x="354" y="1350" on="1"/>
      </contour>
    </TTGlyph>
    <TTGlyph name="colon" xMin="177" yMin="-9" xMax="391" yMax="882">
      <contour>
        <pt x="284" y="882" on="1"/>
        <pt x="341" y="882" on="0"/>
        <pt x="391" y="828" on="0"/>
        <pt x="391" y="792" on="1"/>
        <pt x="391" y="756" on="0"/>
        <pt x="342" y="702" on="0"/>
        <pt x="284" y="702" on="1"/>
        <pt x="226" y="702" on="0"/>
        <pt x="177" y="754" on="0"/>
        <pt x="177" y="792" on="1"/>
        <pt x="177" y="828" on="0"/>
        <pt x="227" y="882" on="0"/>
      </contour>
      <contour>
        <pt x="284" y="172" on="1"/>
        <pt x="341" y="172" on="0"/>
        <pt x="391" y="118" on="0"/>
        <pt x="391" y="82" on="1"/>
        <pt x="391" y="46" on="0"/>
        <pt x="342" y="-9" on="0"/>
        <pt x="284" y="-9" on="1"/>
        <pt x="226" y="-9" on="0"/>
        <pt x="177" y="44" on="0"/>
        <pt x="177" y="82" on="1"/>
        <pt x="177" y="100" on="0"/>
        <pt x="189" y="132" on="0"/>
        <pt x="215" y="157" on="0"/>
        <pt x="255" y="172" on="0"/>
      </contour>
    </TTGlyph>
    <TTGlyph name="comma" xMin="147" yMin="-242" xMax="401" yMax="190">
      <contour>
        <pt x="401" y="190" on="1"/>
        <pt x="361" y="-1" on="1"/>
        <pt x="343" y="-88" on="0"/>
        <pt x="267" y="-215" on="0"/>
        <pt x="205" y="-242" on="1"/>
        <pt x="147" y="-188" on="1"/>
        <pt x="183" y="-163" on="0"/>
        <pt x="211" y="-66" on="0"/>
        <pt x="219" y="4" on="1"/>
        <pt x="152" y="9" on="1"/>
        <pt x="175" y="190" on="1"/>
      </contour>
    </TTGlyph>
    <TTGlyph name="copyright" xMin="99" yMin="-30" xMax="1567" yMax="1402">
      <contour>
        <pt x="834" y="1402" on="1"/>
        <pt x="937" y="1402" on="0"/>
        <pt x="1126" y="1349" on="0"/>
        <pt x="1289" y="1254" on="0"/>
        <pt x="1421" y="1122" on="0"/>
        <pt x="1516" y="963" on="0"/>
        <pt x="1567" y="781" on="0"/>
        <pt x="1567" y="685" on="1"/>
        <pt x="1567" y="587" on="0"/>
        <pt x="1514" y="405" on="0"/>
        <pt x="1419" y="246" on="0"/>
        <pt x="1284" y="115" on="0"/>
        <pt x="1121" y="21" on="0"/>
        <pt x="934" y="-30" on="0"/>
        <pt x="833" y="-30" on="1"/>
        <pt x="732" y="-30" on="0"/>
        <pt x="544" y="21" on="0"/>
        <pt x="381" y="115" on="0"/>
        <pt x="247" y="246" on="0"/>
        <pt x="151" y="405" on="0"/>
        <pt x="99" y="587" on="0"/>
        <pt x="99" y="685" on="1"/>
        <pt x="99" y="783" on="0"/>
        <pt x="152" y="966" on="0"/>
        <pt x="247" y="1125" on="0"/>
        <pt x="382" y="1257" on="0"/>
        <pt x="545" y="1350" on="0"/>
        <pt x="733" y="1402" on="0"/>
      </contour>
      <contour>
        <pt x="1470" y="685" on="1"/>
        <pt x="1470" y="816" on="0"/>
        <pt x="1368" y="1045" on="0"/>
        <pt x="1194" y="1215" on="0"/>
        <pt x="963" y="1313" on="0"/>
        <pt x="833" y="1313" on="1"/>
        <pt x="700" y="1313" on="0"/>
        <pt x="467" y="1212" on="0"/>
        <pt x="294" y="1040" on="0"/>
        <pt x="194" y="812" on="0"/>
        <pt x="194" y="685" on="1"/>
        <pt x="194" y="555" on="0"/>
        <pt x="296" y="327" on="0"/>
        <pt x="470" y="158" on="0"/>
        <pt x="702" y="60" on="0"/>
        <pt x="832" y="60" on="1"/>
        <pt x="920" y="60" on="0"/>
        <pt x="1084" y="106" on="0"/>
        <pt x="1226" y="188" on="0"/>
        <pt x="1342" y="303" on="0"/>
        <pt x="1425" y="442" on="0"/>
        <pt x="1470" y="600" on="0"/>
      </contour>
      <contour>
        <pt x="1163" y="829" on="1"/>
        <pt x="1085" y="816" on="1"/>
        <pt x="1051" y="922" on="0"/>
        <pt x="926" y="1027" on="0"/>
        <pt x="837" y="1027" on="1"/>
        <pt x="777" y="1027" on="0"/>
        <pt x="681" y="982" on="0"/>
        <pt x="614" y="897" on="0"/>
        <pt x="577" y="772" on="0"/>
        <pt x="577" y="693" on="1"/>
        <pt x="577" y="610" on="0"/>
        <pt x="613" y="479" on="0"/>
        <pt x="681" y="388" on="0"/>
        <pt x="778" y="340" on="0"/>
        <pt x="839" y="340" on="1"/>
        <pt x="919" y="340" on="0"/>
        <pt x="1054" y="424" on="0"/>
        <pt x="1102" y="522" on="1"/>
        <pt x="1172" y="494" on="1"/>
        <pt x="1146" y="430" on="0"/>
        <pt x="1071" y="341" on="0"/>
        <pt x="980" y="285" on="0"/>
        <pt x="879" y="260" on="0"/>
        <pt x="827" y="260" on="1"/>
        <pt x="741" y="260" on="0"/>
        <pt x="597" y="326" on="0"/>
        <pt x="491" y="440" on="0"/>
        <pt x="432" y="593" on="0"/>
        <pt x="432" y="679" on="1"/>
        <pt x="432" y="762" on="0"/>
        <pt x="490" y="912" on="0"/>
        <pt x="597" y="1026" on="0"/>
        <pt x="748" y="1093" on="0"/>
        <pt x="840" y="1093" on="1"/>
        <pt x="881" y="1093" on="0"/>
        <pt x="953" y="1073" on="0"/>
        <pt x="1010" y="1041" on="0"/>
        <pt x="1053" y="1001" on="0"/>
        <pt x="1065" y="982" on="1"/>
        <pt x="1075" y="1092" on="1"/>
        <pt x="1163" y="1084" on="1"/>
      </contour>
    </TTGlyph>
    <TTGlyph name="currency" xMin="142" yMin="273" xMax="1163" yMax="1270">
      <contour>
        <pt x="389" y="1104" on="1"/>
        <pt x="456" y="1151" on="0"/>
        <pt x="580" y="1194" on="0"/>
        <pt x="652" y="1194" on="1"/>
        <pt x="724" y="1194" on="0"/>
        <pt x="850" y="1151" on="0"/>
        <pt x="916" y="1104" on="1"/>
        <pt x="1085" y="1270" on="1"/>
        <pt x="1163" y="1191" on="1"/>
        <pt x="995" y="1027" on="1"/>
        <pt x="1039" y="972" on="0"/>
        <pt x="1084" y="842" on="0"/>
        <pt x="1084" y="771" on="1"/>
        <pt x="1084" y="743" on="0"/>
        <pt x="1074" y="678" on="0"/>
        <pt x="1053" y="611" on="0"/>
        <pt x="1019" y="545" on="0"/>
        <pt x="995" y="515" on="1"/>
        <pt x="1163" y="352" on="1"/>
        <pt x="1085" y="273" on="1"/>
        <pt x="917" y="437" on="1"/>
        <pt x="856" y="393" on="0"/>
        <pt x="725" y="350" on="0"/>
        <pt x="650" y="350" on="1"/>
        <pt x="576" y="350" on="0"/>
        <pt x="449" y="392" on="0"/>
        <pt x="389" y="436" on="1"/>
        <pt x="222" y="273" on="1"/>
        <pt x="142" y="352" on="1"/>
        <pt x="308" y="514" on="1"/>
        <pt x="262" y="576" on="0"/>
        <pt x="219" y="700" on="0"/>
        <pt x="219" y="772" on="1"/>
        <pt x="219" y="842" on="0"/>
        <pt x="262" y="965" on="0"/>
        <pt x="308" y="1028" on="1"/>
        <pt x="142" y="1191" on="1"/>
        <pt x="222" y="1270" on="1"/>
      </contour>
      <contour>
        <pt x="970" y="773" on="1"/>
        <pt x="970" y="836" on="0"/>
        <pt x="920" y="949" on="0"/>
        <pt x="833" y="1033" on="0"/>
        <pt x="718" y="1082" on="0"/>
        <pt x="652" y="1082" on="1"/>
        <pt x="586" y="1082" on="0"/>
        <pt x="470" y="1033" on="0"/>
        <pt x="384" y="949" on="0"/>
        <pt x="334" y="836" on="0"/>
        <pt x="334" y="773" on="1"/>
        <pt x="334" y="708" on="0"/>
        <pt x="384" y="595" on="0"/>
        <pt x="470" y="510" on="0"/>
        <pt x="586" y="461" on="0"/>
        <pt x="652" y="461" on="1"/>
        <pt x="717" y="461" on="0"/>
        <pt x="833" y="510" on="0"/>
        <pt x="920" y="595" on="0"/>
        <pt x="970" y="709" on="0"/>
      </contour>
    </TTGlyph>
    <TTGlyph name="d" xMin="79" yMin="-21" xMax="1162" yMax="1297">
      <contour>
        <pt x="1015" y="128" on="1"/>
        <pt x="1015" y="115" on="0"/>
        <pt x="1028" y="99" on="0"/>
        <pt x="1061" y="91" on="0"/>
        <pt x="1118" y="89" on="0"/>
        <pt x="1162" y="89" on="1"/>
        <pt x="1162" y="0" on="1"/>
        <pt x="1084" y="0" on="0"/>
        <pt x="927" y="-2" on="0"/>
        <pt x="856" y="-4" on="1"/>
        <pt x="856" y="-3" on="0"/>
        <pt x="856" y="37" on="0"/>
        <pt x="856" y="89" on="0"/>
        <pt x="855" y="140" on="0"/>
        <pt x="854" y="152" on="1"/>
        <pt x="797" y="67" on="0"/>
        <pt x="626" y="-21" on="0"/>
        <pt x="514" y="-21" on="1"/>
        <pt x="416" y="-21" on="0"/>
        <pt x="255" y="46" on="0"/>
        <pt x="141" y="168" on="0"/>
        <pt x="79" y="340" on="0"/>
        <pt x="79" y="445" on="1"/>
        <pt x="79" y="552" on="0"/>
        <pt x="142" y="727" on="0"/>
        <pt x="258" y="849" on="0"/>
        <pt x="419" y="918" on="0"/>
        <pt x="517" y="918" on="1"/>
        <pt x="625" y="918" on="0"/>
        <pt x="791" y="833" on="0"/>
        <pt x="845" y="755" on="1"/>
        <pt x="847" y="1163" on="1"/>
        <pt x="847" y="1178" on="0"/>
        <pt x="830" y="1193" on="0"/>
        <pt x="791" y="1201" on="0"/>
        <pt x="729" y="1202" on="0"/>
        <pt x="685" y="1202" on="1"/>
        <pt x="685" y="1293" on="1"/>
        <pt x="773" y="1293" on="0"/>
        <pt x="942" y="1295" on="0"/>
        <pt x="1015" y="1297" on="1"/>
      </contour>
      <contour>
        <pt x="549" y="814" on="1"/>
        <pt x="482" y="814" on="0"/>
        <pt x="372" y="761" on="0"/>
        <pt x="293" y="668" on="0"/>
        <pt x="250" y="532" on="0"/>
        <pt x="250" y="448" on="1"/>
        <pt x="250" y="365" on="0"/>
        <pt x="293" y="232" on="0"/>
        <pt x="371" y="135" on="0"/>
        <pt x="483" y="84" on="0"/>
        <pt x="552" y="84" on="1"/>
        <pt x="622" y="84" on="0"/>
        <pt x="734" y="134" on="0"/>
        <pt x="812" y="231" on="0"/>
        <pt x="853" y="363" on="0"/>
        <pt x="853" y="446" on="1"/>
        <pt x="853" y="530" on="0"/>
        <pt x="809" y="666" on="0"/>
        <pt x="729" y="761" on="0"/>
        <pt x="617" y="814" on="0"/>
      </contour>
    </TTGlyph>
    <TTGlyph name="dagger" xMin="75" yMin="-304" xMax="954" yMax="1290">
      <contour>
        <pt x="444" y="-304" on="1"/>
        <pt x="436" y="478" on="1"/>
        <pt x="441" y="552" on="0"/>
        <pt x="461" y="698" on="0"/>
        <pt x="461" y="776" on="1"/>
        <pt x="387" y="774" on="0"/>
        <pt x="273" y="767" on="0"/>
        <pt x="221" y="756" on="1"/>
        <pt x="75" y="756" on="1"/>
        <pt x="75" y="882" on="1"/>
        <pt x="224" y="882" on="1"/>
        <pt x="275" y="871" on="0"/>
        <pt x="385" y="864" on="0"/>
        <pt x="461" y="863" on="1"/>
        <pt x="461" y="940" on="0"/>
        <pt x="450" y="1061" on="0"/>
        <pt x="436" y="1115" on="1"/>
        <pt x="436" y="1290" on="1"/>
        <pt x="591" y="1290" on="1"/>
        <pt x="591" y="1115" on="1"/>
        <pt x="577" y="1061" on="0"/>
        <pt x="567" y="941" on="0"/>
        <pt x="567" y="863" on="1"/>
        <pt x="643" y="864" on="0"/>
        <pt x="753" y="871" on="0"/>
        <pt x="804" y="882" on="1"/>
        <pt x="954" y="882" on="1"/>
        <pt x="954" y="756" on="1"/>
        <pt x="847" y="756" on="1"/>
        <pt x="813" y="757" on="0"/>
        <pt x="754" y="764" on="0"/>
        <pt x="691" y="770" on="0"/>
        <pt x="616" y="775" on="0"/>
        <pt x="567" y="776" on="1"/>
        <pt x="567" y="698" on="0"/>
        <pt x="588" y="552" on="0"/>
        <pt x="592" y="478" on="1"/>
        <pt x="584" y="-304" on="1"/>
      </contour>
    </TTGlyph>
    <TTGlyph name="daggerdbl" xMin="80" yMin="-299" xMax="960" yMax="1290">
      <contour>
        <pt x="467" y="215" on="1"/>
        <pt x="464" y="299" on="0"/>
        <pt x="451" y="429" on="0"/>
        <pt x="434" y="492" on="1"/>
        <pt x="443" y="529" on="0"/>
        <pt x="454" y="603" on="0"/>
        <pt x="461" y="680" on="0"/>
        <pt x="465" y="763" on="0"/>
        <pt x="467" y="810" on="1"/>
        <pt x="398" y="809" on="0"/>
        <pt x="298" y="796" on="0"/>
        <pt x="251" y="786" on="1"/>
        <pt x="80" y="786" on="1"/>
        <pt x="80" y="922" on="1"/>
        <pt x="254" y="922" on="1"/>
        <pt x="299" y="912" on="0"/>
        <pt x="398" y="900" on="0"/>
        <pt x="467" y="899" on="1"/>
        <pt x="467" y="933" on="0"/>
        <pt x="463" y="986" on="0"/>
        <pt x="457" y="1032" on="0"/>
        <pt x="448" y="1073" on="0"/>
        <pt x="442" y="1096" on="1"/>
        <pt x="442" y="1290" on="1"/>
        <pt x="597" y="1290" on="1"/>
        <pt x="597" y="1096" on="1"/>
        <pt x="591" y="1073" on="0"/>
        <pt x="582" y="1032" on="0"/>
        <pt x="576" y="986" on="0"/>
        <pt x="573" y="933" on="0"/>
        <pt x="573" y="899" on="1"/>
        <pt x="642" y="900" on="0"/>
        <pt x="741" y="913" on="0"/>
        <pt x="785" y="922" on="1"/>
        <pt x="960" y="922" on="1"/>
        <pt x="960" y="786" on="1"/>
        <pt x="788" y="786" on="1"/>
        <pt x="742" y="795" on="0"/>
        <pt x="643" y="809" on="0"/>
        <pt x="573" y="810" on="1"/>
        <pt x="574" y="763" on="0"/>
        <pt x="578" y="680" on="0"/>
        <pt x="585" y="603" on="0"/>
        <pt x="596" y="529" on="0"/>
        <pt x="605" y="492" on="1"/>
        <pt x="588" y="429" on="0"/>
        <pt x="576" y="299" on="0"/>
        <pt x="573" y="215" on="1"/>
        <pt x="642" y="216" on="0"/>
        <pt x="742" y="230" on="0"/>
        <pt x="788" y="239" on="1"/>
        <pt x="960" y="239" on="1"/>
        <pt x="960" y="103" on="1"/>
        <pt x="785" y="103" on="1"/>
        <pt x="741" y="112" on="0"/>
        <pt x="643" y="125" on="0"/>
        <pt x="573" y="126" on="1"/>
        <pt x="573" y="88" on="0"/>
        <pt x="576" y="25" on="0"/>
        <pt x="582" y="-30" on="0"/>
        <pt x="591" y="-80" on="0"/>
        <pt x="597" y="-107" on="1"/>
        <pt x="597" y="-299" on="1"/>
        <pt x="442" y="-299" on="1"/>
        <pt x="442" y="-107" on="1"/>
        <pt x="448" y="-80" on="0"/>
        <pt x="457" y="-30" on="0"/>
        <pt x="463" y="25" on="0"/>
        <pt x="467" y="88" on="0"/>
        <pt x="467" y="126" on="1"/>
        <pt x="432" y="126" on="0"/>
        <pt x="373" y="122" on="0"/>
        <pt x="322" y="116" on="0"/>
        <pt x="276" y="108" on="0"/>
        <pt x="254" y="103" on="1"/>
        <pt x="80" y="103" on="1"/>
        <pt x="80" y="239" on="1"/>
        <pt x="251" y="239" on="1"/>
        <pt x="297" y="229" on="0"/>
        <pt x="400" y="216" on="0"/>
      </contour>
    </TTGlyph>
    <TTGlyph name="degree" xMin="79" yMin="826" xMax="665" yMax="1398">
      <contour>
        <pt x="372" y="1398" on="1"/>
        <pt x="433" y="1398" on="0"/>
        <pt x="539" y="1353" on="0"/>
        <pt x="619" y="1275" on="0"/>
        <pt x="665" y="1171" on="0"/>
        <pt x="665" y="1112" on="1"/>
        <pt x="665" y="1053" on="0"/>
        <pt x="619" y="949" on="0"/>
        <pt x="539" y="871" on="0"/>
        <pt x="432" y="826" on="0"/>
        <pt x="371" y="826" on="1"/>
        <pt x="310" y="826" on="0"/>
        <pt x="204" y="871" on="0"/>
        <pt x="125" y="948" on="0"/>
        <pt x="79" y="1052" on="0"/>
        <pt x="79" y="1112" on="1"/>
        <pt x="79" y="1172" on="0"/>
        <pt x="125" y="1276" on="0"/>
        <pt x="204" y="1353" on="0"/>
        <pt x="311" y="1398" on="0"/>
      </contour>
      <contour>
        <pt x="572" y="1112" on="1"/>
        <pt x="572" y="1145" on="0"/>
        <pt x="544" y="1215" on="0"/>
        <pt x="492" y="1272" on="0"/>
        <pt x="418" y="1308" on="0"/>
        <pt x="372" y="1308" on="1"/>
        <pt x="329" y="1308" on="0"/>
        <pt x="255" y="1276" on="0"/>
        <pt x="201" y="1222" on="0"/>
        <pt x="170" y="1151" on="0"/>
        <pt x="170" y="1112" on="1"/>
        <pt x="170" y="1073" on="0"/>
        <pt x="200" y="1002" on="0"/>
        <pt x="254" y="947" on="0"/>
        <pt x="328" y="915" on="0"/>
        <pt x="372" y="915" on="1"/>
        <pt x="412" y="915" on="0"/>
        <pt x="485" y="946" on="0"/>
        <pt x="540" y="999" on="0"/>
        <pt x="572" y="1071" on="0"/>
      </contour>
    </TTGlyph>
    <TTGlyph name="dieresis" xMin="148" yMin="1096" xMax="705" yMax="1274">
      <contour>
        <pt x="613" y="1274" on="1"/>
        <pt x="655" y="1274" on="0"/>
        <pt x="705" y="1226" on="0"/>
        <pt x="705" y="1185" on="1"/>
        <pt x="705" y="1145" on="0"/>
        <pt x="655" y="1096" on="0"/>
        <pt x="612" y="1096" on="1"/>
        <pt x="570" y="1096" on="0"/>
        <pt x="521" y="1146" on="0"/>
        <pt x="521" y="1186" on="1"/>
        <pt x="521" y="1226" on="0"/>
        <pt x="571" y="1274" on="0"/>
      </contour>
      <contour>
        <pt x="240" y="1274" on="1"/>
        <pt x="282" y="1274" on="0"/>
        <pt x="331" y="1227" on="0"/>
        <pt x="331" y="1185" on="1"/>
        <pt x="331" y="1145" on="0"/>
        <pt x="282" y="1096" on="0"/>
        <pt x="239" y="1096" on="1"/>
        <pt x="197" y="1096" on="0"/>
        <pt x="148" y="1146" on="0"/>
        <pt x="148" y="1186" on="1"/>
        <pt x="148" y="1226" on="0"/>
        <pt x="198" y="1274" on="0"/>
      </contour>
    </TTGlyph>
    <TTGlyph name="divide" xMin="197" yMin="145" xMax="1338" yMax="1096">
      <contour>
        <pt x="768" y="1096" on="1"/>
        <pt x="789" y="1096" on="0"/>
        <pt x="825" y="1080" on="0"/>
        <pt x="852" y="1054" on="0"/>
        <pt x="867" y="1018" on="0"/>
        <pt x="867" y="999" on="1"/>
        <pt x="867" y="958" on="0"/>
        <pt x="809" y="903" on="0"/>
        <pt x="768" y="903" on="1"/>
        <pt x="747" y="903" on="0"/>
        <pt x="711" y="918" on="0"/>
        <pt x="684" y="944" on="0"/>
        <pt x="669" y="979" on="0"/>
        <pt x="669" y="999" on="1"/>
        <pt x="669" y="1018" on="0"/>
        <pt x="685" y="1054" on="0"/>
        <pt x="712" y="1080" on="0"/>
        <pt x="748" y="1096" on="0"/>
      </contour>
      <contour>
        <pt x="1338" y="561" on="1"/>
        <pt x="197" y="561" on="1"/>
        <pt x="197" y="681" on="1"/>
        <pt x="1338" y="681" on="1"/>
      </contour>
      <contour>
        <pt x="768" y="339" on="1"/>
        <pt x="788" y="339" on="0"/>
        <pt x="824" y="323" on="0"/>
        <pt x="851" y="296" on="0"/>
        <pt x="867" y="260" on="0"/>
        <pt x="867" y="241" on="1"/>
        <pt x="867" y="221" on="0"/>
        <pt x="851" y="187" on="0"/>
        <pt x="824" y="160" on="0"/>
        <pt x="788" y="145" on="0"/>
        <pt x="768" y="145" on="1"/>
        <pt x="747" y="145" on="0"/>
        <pt x="711" y="160" on="0"/>
        <pt x="684" y="186" on="0"/>
        <pt x="669" y="221" on="0"/>
        <pt x="669" y="241" on="1"/>
        <pt x="669" y="261" on="0"/>
        <pt x="685" y="297" on="0"/>
        <pt x="712" y="324" on="0"/>
        <pt x="748" y="339" on="0"/>
      </contour>
    </TTGlyph>
    <TTGlyph name="dollar" xMin="114" yMin="-184" xMax="1016" yMax="1408">
      <contour>
        <pt x="609" y="1408" on="1"/>
        <pt x="609" y="1278" on="1"/>
        <pt x="709" y="1269" on="0"/>
        <pt x="884" y="1214" on="0"/>
        <pt x="963" y="1166" on="1"/>
        <pt x="964" y="957" on="1"/>
        <pt x="848" y="957" on="1"/>
        <pt x="848" y="1011" on="0"/>
        <pt x="823" y="1093" on="0"/>
        <pt x="766" y="1148" on="0"/>
        <pt x="675" y="1179" on="0"/>
        <pt x="609" y="1184" on="1"/>
        <pt x="609" y="720" on="1"/>
        <pt x="720" y="693" on="0"/>
        <pt x="875" y="621" on="0"/>
        <pt x="972" y="529" on="0"/>
        <pt x="1016" y="416" on="0"/>
        <pt x="1016" y="348" on="1"/>
        <pt x="1016" y="273" on="0"/>
        <pt x="961" y="147" on="0"/>
        <pt x="856" y="53" on="0"/>
        <pt x="705" y="-4" on="0"/>
        <pt x="608" y="-11" on="1"/>
        <pt x="608" y="-184" on="1"/>
        <pt x="514" y="-184" on="1"/>
        <pt x="514" y="-11" on="1"/>
        <pt x="252" y="0" on="0"/>
        <pt x="114" y="109" on="1"/>
        <pt x="114" y="331" on="1"/>
        <pt x="231" y="331" on="1"/>
        <pt x="235" y="268" on="0"/>
        <pt x="269" y="177" on="0"/>
        <pt x="336" y="116" on="0"/>
        <pt x="440" y="84" on="0"/>
        <pt x="514" y="81" on="1"/>
        <pt x="514" y="604" on="1"/>
        <pt x="328" y="648" on="0"/>
        <pt x="138" y="826" on="0"/>
        <pt x="138" y="954" on="1"/>
        <pt x="138" y="1023" on="0"/>
        <pt x="189" y="1137" on="0"/>
        <pt x="287" y="1220" on="0"/>
        <pt x="427" y="1270" on="0"/>
        <pt x="516" y="1276" on="1"/>
        <pt x="516" y="1408" on="1"/>
      </contour>
      <contour>
        <pt x="516" y="1186" on="1"/>
        <pt x="407" y="1175" on="0"/>
        <pt x="284" y="1064" on="0"/>
        <pt x="284" y="973" on="1"/>
        <pt x="284" y="889" on="0"/>
        <pt x="395" y="782" on="0"/>
        <pt x="516" y="746" on="1"/>
      </contour>
      <contour>
        <pt x="608" y="82" on="1"/>
        <pt x="668" y="88" on="0"/>
        <pt x="765" y="126" on="0"/>
        <pt x="832" y="189" on="0"/>
        <pt x="869" y="276" on="0"/>
        <pt x="869" y="330" on="1"/>
        <pt x="869" y="419" on="0"/>
        <pt x="744" y="547" on="0"/>
        <pt x="608" y="578" on="1"/>
      </contour>
    </TTGlyph>
    <TTGlyph name="dotaccent" xMin="331" yMin="1092" xMax="523" yMax="1278">
      <contour>
        <pt x="427" y="1278" on="1"/>
        <pt x="472" y="1278" on="0"/>
        <pt x="523" y="1228" on="0"/>
        <pt x="523" y="1185" on="1"/>
        <pt x="523" y="1143" on="0"/>
        <pt x="471" y="1092" on="0"/>
        <pt x="428" y="1092" on="1"/>
        <pt x="383" y="1092" on="0"/>
        <pt x="331" y="1144" on="0"/>
        <pt x="331" y="1186" on="1"/>
        <pt x="331" y="1228" on="0"/>
        <pt x="383" y="1278" on="0"/>
      </contour>
    </TTGlyph>
    <TTGlyph name="dotlessi" xMin="57" yMin="0" xMax="523" yMax="900">
      <contour>
        <pt x="373" y="152" on="1"/>
        <pt x="373" y="130" on="0"/>
        <pt x="389" y="105" on="0"/>
        <pt x="425" y="93" on="0"/>
        <pt x="482" y="91" on="0"/>
        <pt x="523" y="91" on="1"/>
        <pt x="523" y="0" on="1"/>
        <pt x="497" y="0" on="0"/>
        <pt x="409" y="1" on="0"/>
        <pt x="321" y="1" on="0"/>
        <pt x="253" y="2" on="0"/>
        <pt x="247" y="2" on="1"/>
        <pt x="190" y="2" on="0"/>
        <pt x="103" y="0" on="0"/>
        <pt x="57" y="0" on="1"/>
        <pt x="57" y="91" on="1"/>
        <pt x="111" y="91" on="0"/>
        <pt x="171" y="97" on="0"/>
        <pt x="200" y="111" on="0"/>
        <pt x="205" y="136" on="0"/>
        <pt x="205" y="156" on="1"/>
        <pt x="205" y="769" on="1"/>
        <pt x="205" y="783" on="0"/>
        <pt x="190" y="797" on="0"/>
        <pt x="156" y="804" on="0"/>
        <pt x="101" y="805" on="0"/>
        <pt x="62" y="806" on="1"/>
        <pt x="62" y="895" on="1"/>
        <pt x="147" y="895" on="0"/>
        <pt x="297" y="897" on="0"/>
        <pt x="373" y="900" on="1"/>
      </contour>
    </TTGlyph>
    <TTGlyph name="e" xMin="81" yMin="-21" xMax="1021" yMax="918">
      <contour>
        <pt x="961" y="417" on="1"/>
        <pt x="253" y="417" on="1"/>
        <pt x="254" y="337" on="0"/>
        <pt x="302" y="215" on="0"/>
        <pt x="390" y="130" on="0"/>
        <pt x="513" y="84" on="0"/>
        <pt x="588" y="84" on="1"/>
        <pt x="693" y="84" on="0"/>
        <pt x="847" y="170" on="0"/>
        <pt x="889" y="260" on="1"/>
        <pt x="1010" y="241" on="1"/>
        <pt x="964" y="114" on="0"/>
        <pt x="733" y="-21" on="0"/>
        <pt x="565" y="-21" on="1"/>
        <pt x="452" y="-21" on="0"/>
        <pt x="272" y="47" on="0"/>
        <pt x="147" y="171" on="0"/>
        <pt x="81" y="338" on="0"/>
        <pt x="81" y="445" on="1"/>
        <pt x="81" y="553" on="0"/>
        <pt x="149" y="726" on="0"/>
        <pt x="273" y="850" on="0"/>
        <pt x="448" y="918" on="0"/>
        <pt x="555" y="918" on="1"/>
        <pt x="663" y="918" on="0"/>
        <pt x="835" y="853" on="0"/>
        <pt x="955" y="729" on="0"/>
        <pt x="1020" y="551" on="0"/>
        <pt x="1021" y="435" on="1"/>
      </contour>
      <contour>
        <pt x="859" y="507" on="1"/>
        <pt x="847" y="658" on="0"/>
        <pt x="691" y="814" on="0"/>
        <pt x="557" y="814" on="1"/>
        <pt x="494" y="814" on="0"/>
        <pt x="390" y="771" on="0"/>
        <pt x="312" y="694" on="0"/>
        <pt x="263" y="582" on="0"/>
        <pt x="254" y="507" on="1"/>
      </contour>
    </TTGlyph>
    <TTGlyph name="eacute" xMin="81" yMin="-21" xMax="1021" yMax="1354">
      <component glyphName="acute" x="86" y="0" flags="0x1004"/>
      <component glyphName="e" x="0" y="0" flags="0x1004"/>
    </TTGlyph>
    <TTGlyph name="ecircumflex" xMin="81" yMin="-21" xMax="1021" yMax="1350">
      <component glyphName="circumflex" x="123" y="0" flags="0x1004"/>
      <component glyphName="e" x="0" y="0" flags="0x1004"/>
    </TTGlyph>
    <TTGlyph name="edieresis" xMin="81" yMin="-21" xMax="1021" yMax="1274">
      <component glyphName="dieresis" x="123" y="0" flags="0x1004"/>
      <component glyphName="e" x="0" y="0" flags="0x1004"/>
    </TTGlyph>
    <TTGlyph name="egrave" xMin="81" yMin="-21" xMax="1021" yMax="1362">
      <component glyphName="e" x="0" y="0" flags="0x1204"/>
      <component glyphName="grave" x="164" y="0" flags="0x1004"/>
    </TTGlyph>
    <TTGlyph name="eight" xMin="97" yMin="-23" xMax="1044" yMax="1315">
      <contour>
        <pt x="737" y="685" on="1"/>
        <pt x="891" y="647" on="0"/>
        <pt x="1044" y="474" on="0"/>
        <pt x="1044" y="346" on="1"/>
        <pt x="1044" y="262" on="0"/>
        <pt x="980" y="125" on="0"/>
        <pt x="858" y="29" on="0"/>
        <pt x="680" y="-23" on="0"/>
        <pt x="566" y="-23" on="1"/>
        <pt x="456" y="-23" on="0"/>
        <pt x="282" y="28" on="0"/>
        <pt x="161" y="123" on="0"/>
        <pt x="97" y="259" on="0"/>
        <pt x="97" y="344" on="1"/>
        <pt x="97" y="472" on="0"/>
        <pt x="250" y="643" on="0"/>
        <pt x="398" y="682" on="1"/>
        <pt x="275" y="714" on="0"/>
        <pt x="141" y="874" on="0"/>
        <pt x="141" y="984" on="1"/>
        <pt x="141" y="1062" on="0"/>
        <pt x="201" y="1184" on="0"/>
        <pt x="312" y="1270" on="0"/>
        <pt x="470" y="1315" on="0"/>
        <pt x="568" y="1315" on="1"/>
        <pt x="668" y="1315" on="0"/>
        <pt x="829" y="1270" on="0"/>
        <pt x="942" y="1185" on="0"/>
        <pt x="1002" y="1063" on="0"/>
        <pt x="1002" y="987" on="1"/>
        <pt x="1002" y="874" on="0"/>
        <pt x="868" y="721" on="0"/>
      </contour>
      <contour>
        <pt x="574" y="82" on="1"/>
        <pt x="643" y="82" on="0"/>
        <pt x="760" y="118" on="0"/>
        <pt x="846" y="185" on="0"/>
        <pt x="894" y="283" on="0"/>
        <pt x="894" y="346" on="1"/>
        <pt x="894" y="395" on="0"/>
        <pt x="857" y="486" on="0"/>
        <pt x="777" y="561" on="0"/>
        <pt x="654" y="617" on="0"/>
        <pt x="568" y="632" on="1"/>
        <pt x="413" y="607" on="0"/>
        <pt x="254" y="465" on="0"/>
        <pt x="254" y="349" on="1"/>
        <pt x="254" y="289" on="0"/>
        <pt x="297" y="190" on="0"/>
        <pt x="378" y="120" on="0"/>
        <pt x="497" y="82" on="0"/>
      </contour>
      <contour>
        <pt x="574" y="1215" on="1"/>
        <pt x="511" y="1215" on="0"/>
        <pt x="407" y="1185" on="0"/>
        <pt x="334" y="1128" on="0"/>
        <pt x="293" y="1046" on="0"/>
        <pt x="293" y="995" on="1"/>
        <pt x="293" y="895" on="0"/>
        <pt x="437" y="763" on="0"/>
        <pt x="574" y="738" on="1"/>
        <pt x="708" y="764" on="0"/>
        <pt x="848" y="891" on="0"/>
        <pt x="848" y="991" on="1"/>
        <pt x="848" y="1051" on="0"/>
        <pt x="801" y="1136" on="0"/>
        <pt x="724" y="1190" on="0"/>
        <pt x="625" y="1215" on="0"/>
      </contour>
    </TTGlyph>
    <TTGlyph name="ellipsis" xMin="164" yMin="-9" xMax="1499" yMax="172">
      <contour>
        <pt x="271" y="172" on="1"/>
        <pt x="299" y="172" on="0"/>
        <pt x="340" y="157" on="0"/>
        <pt x="367" y="132" on="0"/>
        <pt x="379" y="100" on="0"/>
        <pt x="379" y="82" on="1"/>
        <pt x="379" y="46" on="0"/>
        <pt x="329" y="-9" on="0"/>
        <pt x="271" y="-9" on="1"/>
        <pt x="213" y="-9" on="0"/>
        <pt x="164" y="44" on="0"/>
        <pt x="164" y="82" on="1"/>
        <pt x="164" y="100" on="0"/>
        <pt x="176" y="132" on="0"/>
        <pt x="202" y="157" on="0"/>
        <pt x="242" y="172" on="0"/>
      </contour>
      <contour>
        <pt x="831" y="172" on="1"/>
        <pt x="859" y="172" on="0"/>
        <pt x="900" y="157" on="0"/>
        <pt x="927" y="132" on="0"/>
        <pt x="939" y="100" on="0"/>
        <pt x="939" y="82" on="1"/>
        <pt x="939" y="46" on="0"/>
        <pt x="889" y="-9" on="0"/>
        <pt x="831" y="-9" on="1"/>
        <pt x="773" y="-9" on="0"/>
        <pt x="724" y="44" on="0"/>
        <pt x="724" y="82" on="1"/>
        <pt x="724" y="100" on="0"/>
        <pt x="736" y="132" on="0"/>
        <pt x="762" y="157" on="0"/>
        <pt x="802" y="172" on="0"/>
      </contour>
      <contour>
        <pt x="1391" y="172" on="1"/>
        <pt x="1419" y="172" on="0"/>
        <pt x="1460" y="157" on="0"/>
        <pt x="1487" y="132" on="0"/>
        <pt x="1499" y="100" on="0"/>
        <pt x="1499" y="82" on="1"/>
        <pt x="1499" y="46" on="0"/>
        <pt x="1449" y="-9" on="0"/>
        <pt x="1391" y="-9" on="1"/>
        <pt x="1333" y="-9" on="0"/>
        <pt x="1284" y="44" on="0"/>
        <pt x="1284" y="82" on="1"/>
        <pt x="1284" y="100" on="0"/>
        <pt x="1296" y="132" on="0"/>
        <pt x="1322" y="157" on="0"/>
        <pt x="1362" y="172" on="0"/>
      </contour>
    </TTGlyph>
    <TTGlyph name="emdash" xMin="-6" yMin="413" xMax="2054" yMax="541">
      <contour>
        <pt x="2054" y="541" on="1"/>
        <pt x="2054" y="413" on="1"/>
        <pt x="-6" y="413" on="1"/>
        <pt x="-6" y="541" on="1"/>
      </contour>
    </TTGlyph>
    <TTGlyph name="endash" xMin="-6" yMin="413" xMax="1030" yMax="541">
      <contour>
        <pt x="1030" y="541" on="1"/>
        <pt x="1030" y="413" on="1"/>
        <pt x="-6" y="413" on="1"/>
        <pt x="-6" y="541" on="1"/>
      </contour>
    </TTGlyph>
    <TTGlyph name="equal" xMin="197" yMin="352" xMax="1338" yMax="890">
      <contour>
        <pt x="1338" y="769" on="1"/>
        <pt x="197" y="769" on="1"/>
        <pt x="197" y="890" on="1"/>
        <pt x="1338" y="890" on="1"/>
      </contour>
      <contour>
        <pt x="1338" y="352" on="1"/>
        <pt x="197" y="352" on="1"/>
        <pt x="197" y="473" on="1"/>
        <pt x="1338" y="473" on="1"/>
      </contour>
    </TTGlyph>
    <TTGlyph name="eth" xMin="86" yMin="-28" xMax="1038" yMax="1317">
      <contour>
        <pt x="767" y="846" on="1"/>
        <pt x="753" y="874" on="0"/>
        <pt x="720" y="934" on="0"/>
        <pt x="677" y="997" on="0"/>
        <pt x="620" y="1062" on="0"/>
        <pt x="583" y="1095" on="1"/>
        <pt x="318" y="977" on="1"/>
        <pt x="261" y="1038" on="1"/>
        <pt x="524" y="1154" on="1"/>
        <pt x="486" y="1189" on="0"/>
        <pt x="405" y="1256" on="0"/>
        <pt x="358" y="1289" on="1"/>
        <pt x="506" y="1317" on="1"/>
        <pt x="544" y="1294" on="0"/>
        <pt x="624" y="1241" on="0"/>
        <pt x="660" y="1211" on="1"/>
        <pt x="900" y="1316" on="1"/>
        <pt x="957" y="1257" on="1"/>
        <pt x="720" y="1153" on="1"/>
        <pt x="794" y="1073" on="0"/>
        <pt x="912" y="913" on="0"/>
        <pt x="994" y="752" on="0"/>
        <pt x="1038" y="589" on="0"/>
        <pt x="1038" y="505" on="1"/>
        <pt x="1038" y="376" on="0"/>
        <pt x="973" y="177" on="0"/>
        <pt x="851" y="42" on="0"/>
        <pt x="677" y="-28" on="0"/>
        <pt x="569" y="-28" on="1"/>
        <pt x="459" y="-28" on="0"/>
        <pt x="280" y="39" on="0"/>
        <pt x="154" y="163" on="0"/>
        <pt x="86" y="339" on="0"/>
        <pt x="86" y="448" on="1"/>
        <pt x="86" y="552" on="0"/>
        <pt x="154" y="726" on="0"/>
        <pt x="274" y="851" on="0"/>
        <pt x="441" y="921" on="0"/>
        <pt x="540" y="921" on="1"/>
        <pt x="603" y="921" on="0"/>
        <pt x="718" y="880" on="0"/>
        <pt x="765" y="844" on="1"/>
        <pt x="765" y="846" on="0"/>
      </contour>
      <contour>
        <pt x="259" y="447" on="1"/>
        <pt x="259" y="362" on="0"/>
        <pt x="302" y="225" on="0"/>
        <pt x="381" y="128" on="0"/>
        <pt x="492" y="76" on="0"/>
        <pt x="561" y="76" on="1"/>
        <pt x="630" y="76" on="0"/>
        <pt x="743" y="129" on="0"/>
        <pt x="822" y="228" on="0"/>
        <pt x="865" y="371" on="0"/>
        <pt x="865" y="461" on="1"/>
        <pt x="865" y="539" on="0"/>
        <pt x="824" y="670" on="0"/>
        <pt x="747" y="765" on="0"/>
        <pt x="634" y="819" on="0"/>
        <pt x="562" y="819" on="1"/>
        <pt x="492" y="819" on="0"/>
        <pt x="380" y="767" on="0"/>
        <pt x="301" y="671" on="0"/>
        <pt x="259" y="533" on="0"/>
      </contour>
    </TTGlyph>
    <TTGlyph name="exclam" xMin="180" yMin="-9" xMax="395" yMax="1290">
      <contour>
        <pt x="288" y="172" on="1"/>
        <pt x="316" y="172" on="0"/>
        <pt x="357" y="157" on="0"/>
        <pt x="383" y="132" on="0"/>
        <pt x="395" y="100" on="0"/>
        <pt x="395" y="82" on="1"/>
        <pt x="395" y="46" on="0"/>
        <pt x="346" y="-9" on="0"/>
        <pt x="288" y="-9" on="1"/>
        <pt x="230" y="-9" on="0"/>
        <pt x="180" y="44" on="0"/>
        <pt x="180" y="82" on="1"/>
        <pt x="180" y="100" on="0"/>
        <pt x="192" y="132" on="0"/>
        <pt x="218" y="157" on="0"/>
        <pt x="259" y="172" on="0"/>
      </contour>
      <contour>
        <pt x="379" y="1290" on="1"/>
        <pt x="379" y="1288" on="0"/>
        <pt x="380" y="1249" on="0"/>
        <pt x="380" y="1201" on="0"/>
        <pt x="380" y="1161" on="0"/>
        <pt x="380" y="1159" on="1"/>
        <pt x="380" y="1154" on="0"/>
        <pt x="376" y="1083" on="0"/>
        <pt x="369" y="974" on="0"/>
        <pt x="361" y="836" on="0"/>
        <pt x="351" y="694" on="0"/>
        <pt x="342" y="556" on="0"/>
        <pt x="334" y="447" on="0"/>
        <pt x="329" y="376" on="0"/>
        <pt x="328" y="371" on="1"/>
        <pt x="257" y="371" on="1"/>
        <pt x="256" y="376" on="0"/>
        <pt x="251" y="447" on="0"/>
        <pt x="243" y="556" on="0"/>
        <pt x="235" y="693" on="0"/>
        <pt x="226" y="836" on="0"/>
        <pt x="217" y="974" on="0"/>
        <pt x="211" y="1083" on="0"/>
        <pt x="207" y="1155" on="0"/>
        <pt x="207" y="1160" on="1"/>
        <pt x="207" y="1161" on="0"/>
        <pt x="207" y="1201" on="0"/>
        <pt x="207" y="1249" on="0"/>
        <pt x="208" y="1288" on="0"/>
        <pt x="208" y="1290" on="1"/>
      </contour>
    </TTGlyph>
    <TTGlyph name="exclamdown" xMin="180" yMin="-9" xMax="395" yMax="1290">
      <component glyphName="exclam" x="0" y="0" flags="0x1204"/>
    </TTGlyph>
    <TTGlyph name="f" xMin="52" yMin="0" xMax="722" yMax="1315">
      <contour>
        <pt x="722" y="1096" on="1"/>
        <pt x="642" y="1088" on="1"/>
        <pt x="632" y="1151" on="0"/>
        <pt x="567" y="1218" on="0"/>
        <pt x="510" y="1218" on="1"/>
        <pt x="461" y="1218" on="0"/>
        <pt x="405" y="1185" on="0"/>
        <pt x="378" y="1121" on="0"/>
        <pt x="371" y="1026" on="0"/>
        <pt x="371" y="965" on="1"/>
        <pt x="371" y="895" on="1"/>
        <pt x="588" y="895" on="1"/>
        <pt x="588" y="806" on="1"/>
        <pt x="371" y="806" on="1"/>
        <pt x="371" y="155" on="1"/>
        <pt x="371" y="130" on="0"/>
        <pt x="391" y="103" on="0"/>
        <pt x="433" y="91" on="0"/>
        <pt x="497" y="89" on="0"/>
        <pt x="541" y="89" on="1"/>
        <pt x="541" y="0" on="1"/>
        <pt x="497" y="0" on="0"/>
        <pt x="452" y="1" on="1"/>
        <pt x="413" y="1" on="0"/>
        <pt x="321" y="2" on="0"/>
        <pt x="278" y="2" on="1"/>
        <pt x="243" y="2" on="0"/>
        <pt x="167" y="1" on="0"/>
        <pt x="135" y="1" on="1"/>
        <pt x="97" y="0" on="0"/>
        <pt x="61" y="0" on="1"/>
        <pt x="61" y="89" on="1"/>
        <pt x="112" y="89" on="0"/>
        <pt x="169" y="95" on="0"/>
        <pt x="196" y="110" on="0"/>
        <pt x="202" y="137" on="0"/>
        <pt x="202" y="157" on="1"/>
        <pt x="202" y="806" on="1"/>
        <pt x="52" y="806" on="1"/>
        <pt x="52" y="895" on="1"/>
        <pt x="202" y="895" on="1"/>
        <pt x="202" y="1011" on="1"/>
        <pt x="202" y="1171" on="0"/>
        <pt x="355" y="1315" on="0"/>
        <pt x="497" y="1315" on="1"/>
        <pt x="557" y="1315" on="0"/>
        <pt x="674" y="1298" on="0"/>
        <pt x="722" y="1281" on="1"/>
      </contour>
    </TTGlyph>
    <TTGlyph name="fi" xMin="52" yMin="0" xMax="1167" yMax="1315">
      <contour>
        <pt x="722" y="1096" on="1"/>
        <pt x="642" y="1088" on="1"/>
        <pt x="632" y="1151" on="0"/>
        <pt x="567" y="1218" on="0"/>
        <pt x="510" y="1218" on="1"/>
        <pt x="461" y="1218" on="0"/>
        <pt x="405" y="1185" on="0"/>
        <pt x="378" y="1121" on="0"/>
        <pt x="371" y="1026" on="0"/>
        <pt x="371" y="965" on="1"/>
        <pt x="371" y="895" on="1"/>
        <pt x="743" y="895" on="1"/>
        <pt x="743" y="806" on="1"/>
        <pt x="371" y="806" on="1"/>
        <pt x="371" y="157" on="1"/>
        <pt x="371" y="132" on="0"/>
        <pt x="391" y="105" on="0"/>
        <pt x="433" y="93" on="0"/>
        <pt x="497" y="91" on="0"/>
        <pt x="541" y="91" on="1"/>
        <pt x="541" y="0" on="1"/>
        <pt x="497" y="0" on="0"/>
        <pt x="452" y="1" on="1"/>
        <pt x="413" y="1" on="0"/>
        <pt x="321" y="2" on="0"/>
        <pt x="278" y="2" on="1"/>
        <pt x="243" y="2" on="0"/>
        <pt x="167" y="1" on="0"/>
        <pt x="135" y="1" on="1"/>
        <pt x="97" y="0" on="0"/>
        <pt x="61" y="0" on="1"/>
        <pt x="61" y="91" on="1"/>
        <pt x="112" y="91" on="0"/>
        <pt x="169" y="97" on="0"/>
        <pt x="196" y="112" on="0"/>
        <pt x="202" y="139" on="0"/>
        <pt x="202" y="159" on="1"/>
        <pt x="202" y="806" on="1"/>
        <pt x="52" y="806" on="1"/>
        <pt x="52" y="895" on="1"/>
        <pt x="202" y="895" on="1"/>
        <pt x="202" y="1011" on="1"/>
        <pt x="202" y="1171" on="0"/>
        <pt x="355" y="1315" on="0"/>
        <pt x="497" y="1315" on="1"/>
        <pt x="557" y="1315" on="0"/>
        <pt x="674" y="1298" on="0"/>
        <pt x="722" y="1281" on="1"/>
      </contour>
      <contour>
        <pt x="912" y="1315" on="1"/>
        <pt x="962" y="1315" on="0"/>
        <pt x="1020" y="1266" on="0"/>
        <pt x="1020" y="1223" on="1"/>
        <pt x="1020" y="1179" on="0"/>
        <pt x="963" y="1128" on="0"/>
        <pt x="912" y="1128" on="1"/>
        <pt x="862" y="1128" on="0"/>
        <pt x="806" y="1178" on="0"/>
        <pt x="806" y="1223" on="1"/>
        <pt x="806" y="1266" on="0"/>
        <pt x="862" y="1315" on="0"/>
      </contour>
      <contour>
        <pt x="1017" y="158" on="1"/>
        <pt x="1017" y="134" on="0"/>
        <pt x="1033" y="107" on="0"/>
        <pt x="1069" y="94" on="0"/>
        <pt x="1126" y="91" on="0"/>
        <pt x="1167" y="91" on="1"/>
        <pt x="1167" y="0" on="1"/>
        <pt x="1141" y="0" on="0"/>
        <pt x="1053" y="1" on="0"/>
        <pt x="965" y="1" on="0"/>
        <pt x="897" y="2" on="0"/>
        <pt x="891" y="2" on="1"/>
        <pt x="834" y="2" on="0"/>
        <pt x="747" y="0" on="0"/>
        <pt x="701" y="0" on="1"/>
        <pt x="701" y="91" on="1"/>
        <pt x="755" y="91" on="0"/>
        <pt x="815" y="97" on="0"/>
        <pt x="844" y="111" on="0"/>
        <pt x="849" y="136" on="0"/>
        <pt x="849" y="156" on="1"/>
        <pt x="849" y="769" on="1"/>
        <pt x="849" y="783" on="0"/>
        <pt x="834" y="797" on="0"/>
        <pt x="800" y="804" on="0"/>
        <pt x="745" y="805" on="0"/>
        <pt x="706" y="806" on="1"/>
        <pt x="706" y="895" on="1"/>
        <pt x="791" y="895" on="0"/>
        <pt x="941" y="897" on="0"/>
        <pt x="1017" y="900" on="1"/>
      </contour>
    </TTGlyph>
    <TTGlyph name="five" xMin="181" yMin="-23" xMax="1016" yMax="1290">
      <contour>
        <pt x="848" y="1095" on="1"/>
        <pt x="848" y="1124" on="0"/>
        <pt x="847" y="1156" on="0"/>
        <pt x="843" y="1171" on="0"/>
        <pt x="833" y="1173" on="0"/>
        <pt x="824" y="1173" on="1"/>
        <pt x="338" y="1173" on="1"/>
        <pt x="338" y="1173" on="0"/>
        <pt x="335" y="1110" on="0"/>
        <pt x="330" y="1014" on="0"/>
        <pt x="325" y="902" on="0"/>
        <pt x="321" y="805" on="0"/>
        <pt x="318" y="739" on="0"/>
        <pt x="318" y="737" on="1"/>
        <pt x="378" y="785" on="0"/>
        <pt x="519" y="832" on="0"/>
        <pt x="597" y="832" on="1"/>
        <pt x="692" y="832" on="0"/>
        <pt x="847" y="773" on="0"/>
        <pt x="956" y="664" on="0"/>
        <pt x="1016" y="509" on="0"/>
        <pt x="1016" y="414" on="1"/>
        <pt x="1016" y="302" on="0"/>
        <pt x="939" y="137" on="0"/>
        <pt x="807" y="29" on="0"/>
        <pt x="628" y="-23" on="0"/>
        <pt x="526" y="-23" on="1"/>
        <pt x="438" y="-23" on="0"/>
        <pt x="274" y="20" on="0"/>
        <pt x="202" y="62" on="1"/>
        <pt x="181" y="318" on="1"/>
        <pt x="284" y="319" on="1"/>
        <pt x="294" y="200" on="0"/>
        <pt x="420" y="78" on="0"/>
        <pt x="554" y="78" on="1"/>
        <pt x="619" y="78" on="0"/>
        <pt x="728" y="121" on="0"/>
        <pt x="806" y="205" on="0"/>
        <pt x="850" y="329" on="0"/>
        <pt x="850" y="409" on="1"/>
        <pt x="850" y="481" on="0"/>
        <pt x="809" y="597" on="0"/>
        <pt x="733" y="678" on="0"/>
        <pt x="626" y="722" on="0"/>
        <pt x="559" y="722" on="1"/>
        <pt x="467" y="722" on="0"/>
        <pt x="332" y="651" on="0"/>
        <pt x="281" y="580" on="1"/>
        <pt x="203" y="606" on="1"/>
        <pt x="203" y="1290" on="1"/>
        <pt x="951" y="1290" on="1"/>
        <pt x="951" y="1055" on="1"/>
        <pt x="848" y="1055" on="1"/>
      </contour>
    </TTGlyph>
    <TTGlyph name="fl" xMin="52" yMin="0" xMax="1184" yMax="1315">
      <component glyphName="f" x="0" y="0" flags="0x1004"/>
      <component glyphName="l" x="672" y="0" flags="0x1004"/>
    </TTGlyph>
    <TTGlyph name="florin" xMin="5" yMin="-405" xMax="1075" yMax="1347">
      <contour>
        <pt x="1042" y="1149" on="1"/>
        <pt x="964" y="1149" on="1"/>
        <pt x="964" y="1185" on="0"/>
        <pt x="924" y="1238" on="0"/>
        <pt x="875" y="1238" on="1"/>
        <pt x="842" y="1238" on="0"/>
        <pt x="794" y="1209" on="0"/>
        <pt x="758" y="1155" on="0"/>
        <pt x="734" y="1080" on="0"/>
        <pt x="726" y="1034" on="1"/>
        <pt x="700" y="884" on="1"/>
        <pt x="911" y="884" on="1"/>
        <pt x="897" y="778" on="1"/>
        <pt x="681" y="778" on="1"/>
        <pt x="649" y="615" on="0"/>
        <pt x="588" y="293" on="0"/>
        <pt x="556" y="130" on="1"/>
        <pt x="532" y="-1" on="0"/>
        <pt x="481" y="-201" on="0"/>
        <pt x="401" y="-336" on="0"/>
        <pt x="281" y="-405" on="0"/>
        <pt x="189" y="-405" on="1"/>
        <pt x="145" y="-405" on="0"/>
        <pt x="59" y="-391" on="0"/>
        <pt x="5" y="-376" on="1"/>
        <pt x="33" y="-189" on="1"/>
        <pt x="111" y="-189" on="1"/>
        <pt x="111" y="-235" on="0"/>
        <pt x="148" y="-288" on="0"/>
        <pt x="186" y="-288" on="1"/>
        <pt x="224" y="-288" on="0"/>
        <pt x="279" y="-255" on="0"/>
        <pt x="322" y="-175" on="0"/>
        <pt x="357" y="-44" on="0"/>
        <pt x="375" y="55" on="1"/>
        <pt x="510" y="778" on="1"/>
        <pt x="333" y="778" on="1"/>
        <pt x="345" y="884" on="1"/>
        <pt x="532" y="884" on="1"/>
        <pt x="551" y="987" on="1"/>
        <pt x="568" y="1080" on="0"/>
        <pt x="622" y="1216" on="0"/>
        <pt x="703" y="1305" on="0"/>
        <pt x="817" y="1347" on="0"/>
        <pt x="894" y="1347" on="1"/>
        <pt x="934" y="1347" on="0"/>
        <pt x="1024" y="1331" on="0"/>
        <pt x="1075" y="1317" on="1"/>
      </contour>
    </TTGlyph>
    <TTGlyph name="four" xMin="90" yMin="0" xMax="1045" yMax="1297">
      <contour>
        <pt x="828" y="1297" on="1"/>
        <pt x="828" y="488" on="1"/>
        <pt x="1045" y="488" on="1"/>
        <pt x="1045" y="383" on="1"/>
        <pt x="828" y="383" on="1"/>
        <pt x="828" y="156" on="1"/>
        <pt x="828" y="138" on="0"/>
        <pt x="831" y="114" on="0"/>
        <pt x="851" y="99" on="0"/>
        <pt x="893" y="92" on="0"/>
        <pt x="932" y="92" on="1"/>
        <pt x="985" y="92" on="1"/>
        <pt x="985" y="0" on="1"/>
        <pt x="935" y="0" on="0"/>
        <pt x="798" y="2" on="0"/>
        <pt x="717" y="2" on="1"/>
        <pt x="678" y="2" on="0"/>
        <pt x="617" y="1" on="0"/>
        <pt x="565" y="1" on="0"/>
        <pt x="517" y="0" on="0"/>
        <pt x="490" y="0" on="1"/>
        <pt x="490" y="92" on="1"/>
        <pt x="555" y="92" on="1"/>
        <pt x="597" y="92" on="0"/>
        <pt x="647" y="97" on="0"/>
        <pt x="672" y="108" on="0"/>
        <pt x="680" y="127" on="0"/>
        <pt x="680" y="142" on="1"/>
        <pt x="680" y="383" on="1"/>
        <pt x="116" y="383" on="1"/>
        <pt x="111" y="419" on="0"/>
        <pt x="99" y="483" on="0"/>
        <pt x="90" y="513" on="1"/>
        <pt x="647" y="1297" on="1"/>
      </contour>
      <contour>
        <pt x="203" y="486" on="1"/>
        <pt x="681" y="486" on="1"/>
        <pt x="681" y="1170" on="1"/>
        <pt x="679" y="1170" on="1"/>
      </contour>
    </TTGlyph>
    <TTGlyph name="foursuperior" xMin="90" yMin="0" xMax="750" yMax="896">
      <contour>
        <pt x="600" y="896" on="1"/>
        <pt x="600" y="337" on="1"/>
        <pt x="750" y="337" on="1"/>
        <pt x="750" y="264" on="1"/>
        <pt x="600" y="264" on="1"/>
        <pt x="600" y="108" on="1"/>
        <pt x="600" y="96" on="0"/>
        <pt x="602" y="79" on="0"/>
        <pt x="616" y="68" on="0"/>
        <pt x="644" y="64" on="0"/>
        <pt x="671" y="64" on="1"/>
        <pt x="708" y="64" on="1"/>
        <pt x="708" y="0" on="1"/>
        <pt x="674" y="0" on="0"/>
        <pt x="580" y="1" on="0"/>
        <pt x="523" y="1" on="1"/>
        <pt x="496" y="1" on="0"/>
        <pt x="453" y="1" on="0"/>
        <pt x="417" y="0" on="0"/>
        <pt x="384" y="0" on="0"/>
        <pt x="366" y="0" on="1"/>
        <pt x="366" y="64" on="1"/>
        <pt x="411" y="64" on="1"/>
        <pt x="440" y="64" on="0"/>
        <pt x="474" y="67" on="0"/>
        <pt x="492" y="75" on="0"/>
        <pt x="497" y="88" on="0"/>
        <pt x="497" y="98" on="1"/>
        <pt x="497" y="264" on="1"/>
        <pt x="108" y="264" on="1"/>
        <pt x="102" y="313" on="0"/>
        <pt x="90" y="354" on="1"/>
        <pt x="475" y="896" on="1"/>
      </contour>
      <contour>
        <pt x="168" y="336" on="1"/>
        <pt x="498" y="336" on="1"/>
        <pt x="498" y="808" on="1"/>
        <pt x="497" y="808" on="1"/>
      </contour>
    </TTGlyph>
    <TTGlyph name="fraction" xMin="-276" yMin="-14" xMax="766" yMax="1304">
      <contour>
        <pt x="766" y="1304" on="1"/>
        <pt x="-166" y="-14" on="1"/>
        <pt x="-276" y="-14" on="1"/>
        <pt x="657" y="1304" on="1"/>
      </contour>
    </TTGlyph>
    <TTGlyph name="g" xMin="82" yMin="-426" xMax="1176" yMax="918">
      <contour>
        <pt x="558" y="814" on="1"/>
        <pt x="490" y="814" on="0"/>
        <pt x="378" y="763" on="0"/>
        <pt x="299" y="669" on="0"/>
        <pt x="256" y="532" on="0"/>
        <pt x="256" y="451" on="1"/>
        <pt x="256" y="370" on="0"/>
        <pt x="299" y="241" on="0"/>
        <pt x="378" y="149" on="0"/>
        <pt x="490" y="100" on="0"/>
        <pt x="560" y="100" on="1"/>
        <pt x="629" y="100" on="0"/>
        <pt x="741" y="152" on="0"/>
        <pt x="820" y="246" on="0"/>
        <pt x="864" y="378" on="0"/>
        <pt x="864" y="459" on="1"/>
        <pt x="864" y="537" on="0"/>
        <pt x="820" y="668" on="0"/>
        <pt x="740" y="763" on="0"/>
        <pt x="627" y="814" on="0"/>
      </contour>
      <contour>
        <pt x="871" y="899" on="1"/>
        <pt x="916" y="897" on="0"/>
        <pt x="1004" y="894" on="0"/>
        <pt x="1049" y="894" on="1"/>
        <pt x="1088" y="894" on="0"/>
        <pt x="1147" y="895" on="0"/>
        <pt x="1176" y="895" on="1"/>
        <pt x="1176" y="806" on="1"/>
        <pt x="1121" y="806" on="0"/>
        <pt x="1060" y="799" on="0"/>
        <pt x="1031" y="782" on="0"/>
        <pt x="1025" y="753" on="0"/>
        <pt x="1025" y="730" on="1"/>
        <pt x="1025" y="62" on="1"/>
        <pt x="1025" y="-78" on="0"/>
        <pt x="958" y="-266" on="0"/>
        <pt x="833" y="-379" on="0"/>
        <pt x="654" y="-426" on="0"/>
        <pt x="541" y="-426" on="1"/>
        <pt x="435" y="-426" on="0"/>
        <pt x="245" y="-381" on="0"/>
        <pt x="163" y="-334" on="1"/>
        <pt x="171" y="-124" on="1"/>
        <pt x="173" y="-125" on="0"/>
        <pt x="188" y="-125" on="1"/>
        <pt x="198" y="-125" on="0"/>
        <pt x="225" y="-125" on="0"/>
        <pt x="236" y="-124" on="1"/>
        <pt x="249" y="-124" on="0"/>
        <pt x="263" y="-123" on="1"/>
        <pt x="272" y="-183" on="0"/>
        <pt x="317" y="-261" on="0"/>
        <pt x="388" y="-307" on="0"/>
        <pt x="483" y="-326" on="0"/>
        <pt x="542" y="-326" on="1"/>
        <pt x="605" y="-326" on="0"/>
        <pt x="720" y="-293" on="0"/>
        <pt x="807" y="-221" on="0"/>
        <pt x="859" y="-105" on="0"/>
        <pt x="859" y="-21" on="1"/>
        <pt x="859" y="163" on="1"/>
        <pt x="802" y="83" on="0"/>
        <pt x="629" y="0" on="0"/>
        <pt x="520" y="0" on="1"/>
        <pt x="421" y="0" on="0"/>
        <pt x="260" y="65" on="0"/>
        <pt x="145" y="183" on="0"/>
        <pt x="82" y="350" on="0"/>
        <pt x="82" y="452" on="1"/>
        <pt x="82" y="555" on="0"/>
        <pt x="147" y="727" on="0"/>
        <pt x="263" y="850" on="0"/>
        <pt x="425" y="918" on="0"/>
        <pt x="523" y="918" on="1"/>
        <pt x="635" y="918" on="0"/>
        <pt x="809" y="825" on="0"/>
        <pt x="871" y="735" on="1"/>
      </contour>
    </TTGlyph>
    <TTGlyph name="germandbls" xMin="42" yMin="-21" xMax="1137" yMax="1315">
      <contour>
        <pt x="827" y="741" on="1"/>
        <pt x="978" y="721" on="0"/>
        <pt x="1137" y="533" on="0"/>
        <pt x="1137" y="376" on="1"/>
        <pt x="1137" y="284" on="0"/>
        <pt x="1086" y="138" on="0"/>
        <pt x="989" y="34" on="0"/>
        <pt x="848" y="-21" on="0"/>
        <pt x="759" y="-21" on="1"/>
        <pt x="714" y="-21" on="0"/>
        <pt x="658" y="-11" on="1"/>
        <pt x="658" y="80" on="1"/>
        <pt x="671" y="77" on="0"/>
        <pt x="704" y="75" on="0"/>
        <pt x="721" y="75" on="1"/>
        <pt x="767" y="76" on="0"/>
        <pt x="854" y="110" on="0"/>
        <pt x="922" y="181" on="0"/>
        <pt x="964" y="291" on="0"/>
        <pt x="964" y="368" on="1"/>
        <pt x="964" y="442" on="0"/>
        <pt x="929" y="560" on="0"/>
        <pt x="848" y="643" on="0"/>
        <pt x="716" y="688" on="0"/>
        <pt x="618" y="689" on="1"/>
        <pt x="618" y="779" on="1"/>
        <pt x="684" y="782" on="0"/>
        <pt x="774" y="816" on="0"/>
        <pt x="830" y="873" on="0"/>
        <pt x="854" y="954" on="0"/>
        <pt x="854" y="1005" on="1"/>
        <pt x="854" y="1054" on="0"/>
        <pt x="820" y="1133" on="0"/>
        <pt x="757" y="1189" on="0"/>
        <pt x="667" y="1219" on="0"/>
        <pt x="611" y="1219" on="1"/>
        <pt x="557" y="1219" on="0"/>
        <pt x="466" y="1193" on="0"/>
        <pt x="399" y="1130" on="0"/>
        <pt x="361" y="1025" on="0"/>
        <pt x="361" y="945" on="1"/>
        <pt x="361" y="158" on="1"/>
        <pt x="361" y="136" on="0"/>
        <pt x="374" y="111" on="0"/>
        <pt x="407" y="99" on="0"/>
        <pt x="463" y="95" on="0"/>
        <pt x="506" y="95" on="1"/>
        <pt x="506" y="0" on="1"/>
        <pt x="480" y="0" on="0"/>
        <pt x="434" y="1" on="0"/>
        <pt x="384" y="1" on="0"/>
        <pt x="328" y="2" on="0"/>
        <pt x="293" y="2" on="1"/>
        <pt x="254" y="2" on="0"/>
        <pt x="188" y="1" on="0"/>
        <pt x="128" y="1" on="0"/>
        <pt x="71" y="0" on="0"/>
        <pt x="42" y="0" on="1"/>
        <pt x="42" y="95" on="1"/>
        <pt x="99" y="95" on="0"/>
        <pt x="160" y="100" on="0"/>
        <pt x="188" y="114" on="0"/>
        <pt x="193" y="139" on="0"/>
        <pt x="193" y="159" on="1"/>
        <pt x="193" y="857" on="1"/>
        <pt x="193" y="968" on="0"/>
        <pt x="231" y="1139" on="0"/>
        <pt x="327" y="1255" on="0"/>
        <pt x="489" y="1315" on="0"/>
        <pt x="613" y="1315" on="1"/>
        <pt x="709" y="1315" on="0"/>
        <pt x="860" y="1273" on="0"/>
        <pt x="965" y="1192" on="0"/>
        <pt x="1020" y="1075" on="0"/>
        <pt x="1020" y="999" on="1"/>
        <pt x="1020" y="901" on="0"/>
        <pt x="919" y="773" on="0"/>
        <pt x="822" y="741" on="1"/>
      </contour>
    </TTGlyph>
    <TTGlyph name="grave" xMin="187" yMin="1029" xMax="582" yMax="1362">
      <contour>
        <pt x="582" y="1029" on="1"/>
        <pt x="499" y="1029" on="1"/>
        <pt x="476" y="1049" on="0"/>
        <pt x="414" y="1098" on="0"/>
        <pt x="346" y="1151" on="0"/>
        <pt x="278" y="1205" on="0"/>
        <pt x="224" y="1258" on="0"/>
        <pt x="189" y="1305" on="0"/>
        <pt x="187" y="1324" on="1"/>
        <pt x="187" y="1340" on="0"/>
        <pt x="231" y="1362" on="0"/>
        <pt x="261" y="1362" on="1"/>
        <pt x="288" y="1362" on="0"/>
        <pt x="341" y="1344" on="0"/>
        <pt x="352" y="1330" on="1"/>
      </contour>
    </TTGlyph>
    <TTGlyph name="greater" xMin="202" yMin="107" xMax="1333" yMax="1134">
      <contour>
        <pt x="1333" y="567" on="1"/>
        <pt x="202" y="107" on="1"/>
        <pt x="202" y="239" on="1"/>
        <pt x="1158" y="619" on="1"/>
        <pt x="202" y="1002" on="1"/>
        <pt x="202" y="1134" on="1"/>
        <pt x="1333" y="674" on="1"/>
      </contour>
    </TTGlyph>
    <TTGlyph name="greaterequal" xMin="183" yMin="29" xMax="1242" yMax="1160">
      <contour>
        <pt x="1241" y="652" on="1"/>
        <pt x="189" y="240" on="1"/>
        <pt x="189" y="355" on="1"/>
        <pt x="1083" y="699" on="1"/>
        <pt x="1083" y="701" on="1"/>
        <pt x="188" y="1046" on="1"/>
        <pt x="188" y="1160" on="1"/>
        <pt x="1241" y="749" on="1"/>
      </contour>
      <contour>
        <pt x="1242" y="29" on="1"/>
        <pt x="183" y="29" on="1"/>
        <pt x="183" y="131" on="1"/>
        <pt x="1242" y="131" on="1"/>
      </contour>
    </TTGlyph>
    <TTGlyph name="guillemotleft" xMin="82" yMin="59" xMax="940" yMax="841">
      <contour>
        <pt x="516" y="841" on="1"/>
        <pt x="246" y="449" on="1"/>
        <pt x="516" y="59" on="1"/>
        <pt x="349" y="59" on="1"/>
        <pt x="82" y="449" on="1"/>
        <pt x="349" y="841" on="1"/>
      </contour>
      <contour>
        <pt x="940" y="841" on="1"/>
        <pt x="669" y="449" on="1"/>
        <pt x="940" y="59" on="1"/>
        <pt x="773" y="59" on="1"/>
        <pt x="516" y="449" on="1"/>
        <pt x="773" y="841" on="1"/>
      </contour>
    </TTGlyph>
    <TTGlyph name="guillemotright" xMin="82" yMin="59" xMax="940" yMax="841">
      <contour>
        <pt x="249" y="841" on="1"/>
        <pt x="506" y="449" on="1"/>
        <pt x="249" y="59" on="1"/>
        <pt x="82" y="59" on="1"/>
        <pt x="353" y="449" on="1"/>
        <pt x="82" y="841" on="1"/>
      </contour>
      <contour>
        <pt x="673" y="841" on="1"/>
        <pt x="940" y="449" on="1"/>
        <pt x="673" y="59" on="1"/>
        <pt x="506" y="59" on="1"/>
        <pt x="776" y="449" on="1"/>
        <pt x="506" y="841" on="1"/>
      </contour>
    </TTGlyph>
    <TTGlyph name="guilsinglleft" xMin="65" yMin="59" xMax="507" yMax="841">
      <contour>
        <pt x="507" y="841" on="1"/>
        <pt x="229" y="450" on="1"/>
        <pt x="507" y="59" on="1"/>
        <pt x="341" y="59" on="1"/>
        <pt x="65" y="450" on="1"/>
        <pt x="341" y="841" on="1"/>
      </contour>
    </TTGlyph>
    <TTGlyph name="guilsinglright" xMin="55" yMin="59" xMax="489" yMax="841">
      <contour>
        <pt x="222" y="841" on="1"/>
        <pt x="489" y="449" on="1"/>
        <pt x="222" y="59" on="1"/>
        <pt x="55" y="59" on="1"/>
        <pt x="326" y="449" on="1"/>
        <pt x="55" y="841" on="1"/>
      </contour>
    </TTGlyph>
    <TTGlyph name="h" xMin="39" yMin="0" xMax="1144" yMax="1297">
      <contour>
        <pt x="833" y="532" on="1"/>
        <pt x="833" y="605" on="0"/>
        <pt x="818" y="713" on="0"/>
        <pt x="777" y="782" on="0"/>
        <pt x="706" y="814" on="0"/>
        <pt x="649" y="814" on="1"/>
        <pt x="595" y="814" on="0"/>
        <pt x="502" y="780" on="0"/>
        <pt x="429" y="727" on="0"/>
        <pt x="375" y="668" on="0"/>
        <pt x="359" y="642" on="1"/>
        <pt x="359" y="132" on="1"/>
        <pt x="359" y="116" on="0"/>
        <pt x="373" y="98" on="0"/>
        <pt x="407" y="90" on="0"/>
        <pt x="466" y="89" on="0"/>
        <pt x="511" y="89" on="1"/>
        <pt x="511" y="0" on="1"/>
        <pt x="482" y="0" on="0"/>
        <pt x="428" y="0" on="0"/>
        <pt x="370" y="0" on="0"/>
        <pt x="306" y="1" on="0"/>
        <pt x="268" y="2" on="1"/>
        <pt x="233" y="2" on="0"/>
        <pt x="173" y="1" on="0"/>
        <pt x="118" y="1" on="0"/>
        <pt x="66" y="0" on="0"/>
        <pt x="39" y="0" on="1"/>
        <pt x="39" y="89" on="1"/>
        <pt x="95" y="89" on="0"/>
        <pt x="157" y="94" on="0"/>
        <pt x="186" y="105" on="0"/>
        <pt x="192" y="124" on="0"/>
        <pt x="192" y="138" on="1"/>
        <pt x="192" y="1163" on="1"/>
        <pt x="192" y="1178" on="0"/>
        <pt x="171" y="1195" on="0"/>
        <pt x="132" y="1202" on="0"/>
        <pt x="78" y="1203" on="0"/>
        <pt x="45" y="1203" on="1"/>
        <pt x="45" y="1293" on="1"/>
        <pt x="63" y="1293" on="0"/>
        <pt x="102" y="1292" on="0"/>
        <pt x="128" y="1292" on="1"/>
        <pt x="183" y="1292" on="0"/>
        <pt x="297" y="1295" on="0"/>
        <pt x="358" y="1297" on="1"/>
        <pt x="358" y="1239" on="0"/>
        <pt x="359" y="1105" on="0"/>
        <pt x="359" y="966" on="0"/>
        <pt x="359" y="831" on="0"/>
        <pt x="359" y="773" on="1"/>
        <pt x="431" y="848" on="0"/>
        <pt x="606" y="918" on="0"/>
        <pt x="712" y="918" on="1"/>
        <pt x="805" y="918" on="0"/>
        <pt x="919" y="860" on="0"/>
        <pt x="981" y="745" on="0"/>
        <pt x="1002" y="573" on="0"/>
        <pt x="1002" y="458" on="1"/>
        <pt x="1002" y="149" on="1"/>
        <pt x="1002" y="126" on="0"/>
        <pt x="1016" y="102" on="0"/>
        <pt x="1049" y="91" on="0"/>
        <pt x="1103" y="89" on="0"/>
        <pt x="1144" y="89" on="1"/>
        <pt x="1144" y="0" on="1"/>
        <pt x="1117" y="0" on="0"/>
        <pt x="1066" y="0" on="0"/>
        <pt x="1012" y="0" on="0"/>
        <pt x="951" y="1" on="0"/>
        <pt x="915" y="2" on="1"/>
        <pt x="843" y="2" on="0"/>
        <pt x="736" y="0" on="0"/>
        <pt x="682" y="0" on="1"/>
        <pt x="682" y="89" on="1"/>
        <pt x="726" y="90" on="0"/>
        <pt x="784" y="94" on="0"/>
        <pt x="819" y="105" on="0"/>
        <pt x="833" y="127" on="0"/>
        <pt x="833" y="146" on="1"/>
      </contour>
    </TTGlyph>
    <TTGlyph name="hungarumlaut" xMin="213" yMin="1029" xMax="803" yMax="1392">
      <contour>
        <pt x="637" y="1327" on="1"/>
        <pt x="657" y="1362" on="0"/>
        <pt x="717" y="1392" on="0"/>
        <pt x="745" y="1392" on="1"/>
        <pt x="766" y="1392" on="0"/>
        <pt x="803" y="1370" on="0"/>
        <pt x="803" y="1350" on="1"/>
        <pt x="803" y="1334" on="0"/>
        <pt x="776" y="1295" on="0"/>
        <pt x="757" y="1276" on="1"/>
        <pt x="549" y="1029" on="1"/>
        <pt x="470" y="1029" on="1"/>
      </contour>
      <contour>
        <pt x="386" y="1334" on="1"/>
        <pt x="409" y="1366" on="0"/>
        <pt x="465" y="1392" on="0"/>
        <pt x="491" y="1392" on="1"/>
        <pt x="512" y="1392" on="0"/>
        <pt x="549" y="1370" on="0"/>
        <pt x="549" y="1350" on="1"/>
        <pt x="549" y="1333" on="0"/>
        <pt x="523" y="1296" on="0"/>
        <pt x="504" y="1277" on="1"/>
        <pt x="291" y="1029" on="1"/>
        <pt x="213" y="1029" on="1"/>
      </contour>
    </TTGlyph>
    <TTGlyph name="hyphen" xMin="76" yMin="380" xMax="682" yMax="526">
      <contour>
        <pt x="682" y="526" on="1"/>
        <pt x="682" y="380" on="1"/>
        <pt x="76" y="380" on="1"/>
        <pt x="76" y="526" on="1"/>
      </contour>
    </TTGlyph>
    <TTGlyph name="i" xMin="57" yMin="0" xMax="523" yMax="1315">
      <contour>
        <pt x="268" y="1315" on="1"/>
        <pt x="318" y="1315" on="0"/>
        <pt x="376" y="1266" on="0"/>
        <pt x="376" y="1223" on="1"/>
        <pt x="376" y="1179" on="0"/>
        <pt x="319" y="1128" on="0"/>
        <pt x="268" y="1128" on="1"/>
        <pt x="218" y="1128" on="0"/>
        <pt x="162" y="1178" on="0"/>
        <pt x="162" y="1223" on="1"/>
        <pt x="162" y="1266" on="0"/>
        <pt x="218" y="1315" on="0"/>
      </contour>
      <contour>
        <pt x="373" y="156" on="1"/>
        <pt x="373" y="132" on="0"/>
        <pt x="389" y="105" on="0"/>
        <pt x="425" y="92" on="0"/>
        <pt x="482" y="89" on="0"/>
        <pt x="523" y="89" on="1"/>
        <pt x="523" y="0" on="1"/>
        <pt x="497" y="0" on="0"/>
        <pt x="409" y="1" on="0"/>
        <pt x="321" y="1" on="0"/>
        <pt x="253" y="2" on="0"/>
        <pt x="247" y="2" on="1"/>
        <pt x="190" y="2" on="0"/>
        <pt x="103" y="0" on="0"/>
        <pt x="57" y="0" on="1"/>
        <pt x="57" y="89" on="1"/>
        <pt x="111" y="89" on="0"/>
        <pt x="171" y="95" on="0"/>
        <pt x="200" y="109" on="0"/>
        <pt x="205" y="134" on="0"/>
        <pt x="205" y="154" on="1"/>
        <pt x="205" y="770" on="1"/>
        <pt x="205" y="784" on="0"/>
        <pt x="190" y="798" on="0"/>
        <pt x="156" y="805" on="0"/>
        <pt x="101" y="806" on="0"/>
        <pt x="62" y="806" on="1"/>
        <pt x="62" y="895" on="1"/>
        <pt x="147" y="895" on="0"/>
        <pt x="297" y="897" on="0"/>
        <pt x="373" y="900" on="1"/>
      </contour>
    </TTGlyph>
    <TTGlyph name="iacute" xMin="57" yMin="0" xMax="523" yMax="1354">
      <component glyphName="acute" x="-182" y="0" flags="0x1004"/>
      <component glyphName="dotlessi" x="0" y="0" flags="0x1004"/>
    </TTGlyph>
    <TTGlyph name="icircumflex" xMin="-20" yMin="0" xMax="585" yMax="1350">
      <component glyphName="circumflex" x="-144" y="0" flags="0x1004"/>
      <component glyphName="dotlessi" x="0" y="0" flags="0x1004"/>
    </TTGlyph>
    <TTGlyph name="idieresis" xMin="3" yMin="0" xMax="560" yMax="1274">
      <component glyphName="dieresis" x="-145" y="0" flags="0x1004"/>
      <component glyphName="dotlessi" x="0" y="0" flags="0x1004"/>
    </TTGlyph>
    <TTGlyph name="igrave" xMin="57" yMin="0" xMax="523" yMax="1362">
      <component glyphName="dotlessi" x="0" y="0" flags="0x1204"/>
      <component glyphName="grave" x="-103" y="0" flags="0x1004"/>
    </TTGlyph>
    <TTGlyph name="infinity" xMin="163" yMin="239" xMax="1464" yMax="913">
      <contour>
        <pt x="812" y="665" on="1"/>
        <pt x="849" y="720" on="0"/>
        <pt x="926" y="812" on="0"/>
        <pt x="1011" y="877" on="0"/>
        <pt x="1106" y="913" on="0"/>
        <pt x="1161" y="913" on="1"/>
        <pt x="1227" y="913" on="0"/>
        <pt x="1338" y="863" on="0"/>
        <pt x="1419" y="774" on="0"/>
        <pt x="1464" y="652" on="0"/>
        <pt x="1464" y="580" on="1"/>
        <pt x="1464" y="504" on="0"/>
        <pt x="1417" y="379" on="0"/>
        <pt x="1336" y="290" on="0"/>
        <pt x="1227" y="241" on="0"/>
        <pt x="1164" y="241" on="1"/>
        <pt x="1116" y="241" on="0"/>
        <pt x="1030" y="270" on="0"/>
        <pt x="949" y="330" on="0"/>
        <pt x="866" y="422" on="0"/>
        <pt x="821" y="485" on="1"/>
        <pt x="783" y="429" on="0"/>
        <pt x="705" y="339" on="0"/>
        <pt x="620" y="274" on="0"/>
        <pt x="525" y="239" on="0"/>
        <pt x="470" y="239" on="1"/>
        <pt x="406" y="239" on="0"/>
        <pt x="294" y="291" on="0"/>
        <pt x="211" y="381" on="0"/>
        <pt x="163" y="503" on="0"/>
        <pt x="163" y="573" on="1"/>
        <pt x="163" y="648" on="0"/>
        <pt x="208" y="773" on="0"/>
        <pt x="289" y="862" on="0"/>
        <pt x="400" y="912" on="0"/>
        <pt x="466" y="912" on="1"/>
        <pt x="519" y="912" on="0"/>
        <pt x="612" y="877" on="0"/>
        <pt x="697" y="812" on="0"/>
        <pt x="775" y="721" on="0"/>
      </contour>
      <contour>
        <pt x="764" y="598" on="1"/>
        <pt x="734" y="642" on="0"/>
        <pt x="669" y="716" on="0"/>
        <pt x="595" y="770" on="0"/>
        <pt x="511" y="801" on="0"/>
        <pt x="464" y="801" on="1"/>
        <pt x="413" y="801" on="0"/>
        <pt x="331" y="765" on="0"/>
        <pt x="274" y="704" on="0"/>
        <pt x="243" y="620" on="0"/>
        <pt x="243" y="572" on="1"/>
        <pt x="243" y="523" on="0"/>
        <pt x="274" y="439" on="0"/>
        <pt x="331" y="378" on="0"/>
        <pt x="410" y="343" on="0"/>
        <pt x="457" y="343" on="1"/>
        <pt x="503" y="343" on="0"/>
        <pt x="584" y="380" on="0"/>
        <pt x="659" y="447" on="0"/>
        <pt x="729" y="541" on="0"/>
      </contour>
      <contour>
        <pt x="868" y="551" on="1"/>
        <pt x="943" y="453" on="0"/>
        <pt x="1082" y="352" on="0"/>
        <pt x="1166" y="352" on="1"/>
        <pt x="1215" y="352" on="0"/>
        <pt x="1296" y="389" on="0"/>
        <pt x="1354" y="451" on="0"/>
        <pt x="1385" y="534" on="0"/>
        <pt x="1385" y="580" on="1"/>
        <pt x="1385" y="631" on="0"/>
        <pt x="1353" y="717" on="0"/>
        <pt x="1297" y="778" on="0"/>
        <pt x="1220" y="812" on="0"/>
        <pt x="1176" y="812" on="1"/>
        <pt x="1129" y="812" on="0"/>
        <pt x="1046" y="771" on="0"/>
        <pt x="970" y="701" on="0"/>
        <pt x="901" y="606" on="0"/>
      </contour>
    </TTGlyph>
</ttFont>
